<svg width="164" height="168" viewBox="0 0 164 168" fill="none" xmlns="http://www.w3.org/2000/svg">
<g style="mix-blend-mode:multiply" opacity="0.1">
<path d="M0 156.5C0 150.148 26.1936 145 58.5 145C90.8064 145 117 150.148 117 156.5C117 162.852 90.8064 168 58.5 168C26.1936 168 0 162.852 0 156.5Z" fill="black"/>
</g>
<path d="M132.2 52.8555H120.441V71.3328H132.2V52.8555Z" fill="#545454"/>
<path d="M102.615 52.3036V24.469C102.615 23.8 102.881 23.1584 103.354 22.6854C103.827 22.2123 104.469 21.9465 105.138 21.9465H148.005C148.507 21.9465 148.99 22.1463 149.345 22.5018C149.701 22.8573 149.9 23.3395 149.9 23.8422V52.3036C149.9 52.8063 149.701 53.2885 149.345 53.644C148.99 53.9995 148.507 54.1992 148.005 54.1992H104.511C104.008 54.1992 103.526 53.9995 103.17 53.644C102.815 53.2885 102.615 52.8063 102.615 52.3036Z" fill="#CFCFCF"/>
<path d="M102.615 49.9883V23.9695C102.615 23.704 102.668 23.441 102.769 23.1956C102.871 22.9502 103.02 22.7273 103.208 22.5394C103.395 22.3516 103.618 22.2027 103.864 22.101C104.109 21.9994 104.372 21.9471 104.638 21.9471L147.878 21.9471C148.414 21.9471 148.929 22.1602 149.308 22.5394C149.687 22.9187 149.9 23.4332 149.9 23.9695V49.9883H102.615Z" fill="#545454"/>
<path d="M104.031 23.3281V48.584H148.518V23.3281L104.031 23.3281Z" fill="#F7F7F7"/>
<path d="M126.26 22.3047C126.336 22.3047 126.409 22.335 126.463 22.3889C126.517 22.4428 126.548 22.5159 126.548 22.5921V22.5922C126.548 22.63 126.54 22.6674 126.526 22.7022C126.511 22.7371 126.49 22.7688 126.463 22.7955C126.437 22.8222 126.405 22.8434 126.37 22.8578C126.335 22.8723 126.298 22.8797 126.26 22.8797H126.26C126.222 22.8797 126.185 22.8723 126.15 22.8578C126.115 22.8434 126.084 22.8222 126.057 22.7955C126.03 22.7688 126.009 22.7371 125.995 22.7023C125.98 22.6674 125.973 22.63 125.973 22.5923V22.5922C125.973 22.516 126.003 22.4428 126.057 22.3889C126.111 22.335 126.184 22.3047 126.26 22.3047L126.26 22.3047Z" fill="#CFCFCF"/>
<path d="M107.585 25.1055H123.021C123.433 25.1055 123.827 25.269 124.118 25.56C124.409 25.851 124.573 26.2457 124.573 26.6573V42.0934C124.573 42.2972 124.533 42.499 124.455 42.6873C124.377 42.8756 124.263 43.0467 124.118 43.1908C123.974 43.3349 123.803 43.4492 123.615 43.5272C123.427 43.6051 123.225 43.6453 123.021 43.6453H107.585C107.173 43.6453 106.779 43.4818 106.488 43.1908C106.197 42.8998 106.033 42.505 106.033 42.0935V26.6573C106.033 26.2457 106.197 25.851 106.488 25.56C106.779 25.269 107.173 25.1055 107.585 25.1055Z" fill="#00243F"/>
<path d="M110.868 35.3246H109.609V34.0664H109.841V35.0927H110.868V35.3246Z" fill="white"/>
<path d="M121.929 35.3246H120.67V35.0927H121.697V34.0664H121.929V35.3246Z" fill="white"/>
<path d="M109.841 30.4028H109.609V29.1445H110.868V29.3768H109.841V30.4028Z" fill="white"/>
<path d="M121.929 30.4028H121.697V29.3768H120.67V29.1445H121.929V30.4028Z" fill="white"/>
<path d="M119.795 41.432C119.391 41.432 118.996 41.3122 118.66 41.0877C118.324 40.8632 118.062 40.5441 117.907 40.1707C117.753 39.7974 117.712 39.3866 117.791 38.9903C117.87 38.5939 118.065 38.2299 118.35 37.9441C118.636 37.6584 119 37.4638 119.396 37.385C119.793 37.3061 120.204 37.3466 120.577 37.5012C120.95 37.6559 121.269 37.9177 121.494 38.2537C121.718 38.5897 121.838 38.9848 121.838 39.3888C121.838 39.9305 121.622 40.4499 121.239 40.8329C120.856 41.2159 120.337 41.4314 119.795 41.432ZM119.795 37.7412C119.469 37.7412 119.151 37.8378 118.88 38.0189C118.609 38.1999 118.398 38.4573 118.273 38.7583C118.148 39.0594 118.116 39.3907 118.179 39.7103C118.243 40.03 118.4 40.3235 118.63 40.554C118.86 40.7844 119.154 40.9413 119.474 41.0049C119.793 41.0685 120.125 41.0358 120.426 40.9111C120.727 40.7864 120.984 40.5752 121.165 40.3043C121.346 40.0333 121.443 39.7147 121.443 39.3888C121.442 38.952 121.269 38.5332 120.96 38.2243C120.651 37.9154 120.232 37.7417 119.795 37.7412Z" fill="white"/>
<path d="M119.666 40.1914L118.738 39.2628L119.018 38.9833L119.666 39.6321L120.576 38.7227L120.855 39.0025L119.666 40.1914Z" fill="white"/>
<path d="M116.051 38.625H108.762V39.0742H116.051V38.625Z" fill="white"/>
<path d="M112.217 39.7031H108.762V40.1523H112.217V39.7031Z" fill="white"/>
<path d="M118.963 32.5916L119.082 32.4423L118.76 32.1843V32.1346H119.715V31.9435H118.76V31.8938L119.082 31.6357L118.963 31.4863L118.64 31.7446C118.618 31.7625 118.6 31.7852 118.587 31.811C118.575 31.8368 118.568 31.8651 118.568 31.8938V32.1843C118.568 32.213 118.575 32.2413 118.587 32.2672C118.6 32.2931 118.618 32.3158 118.64 32.3337L118.963 32.5916Z" fill="white"/>
<path d="M119.524 33.3328L119.202 33.5909L119.321 33.7402L119.644 33.4819C119.666 33.4641 119.684 33.4414 119.697 33.4156C119.709 33.3897 119.715 33.3614 119.715 33.3328V33.0422C119.715 33.0135 119.709 32.9852 119.697 32.9593C119.684 32.9335 119.666 32.9107 119.644 32.8928L119.321 32.6348L119.202 32.7841L119.524 33.0422V33.0919H118.568V33.2831H119.524V33.3328Z" fill="white"/>
<path d="M116.654 31.9434H116.463V33.4727H116.654V31.9434Z" fill="white"/>
<path d="M115.695 31.9434H115.504V33.4727H115.695V31.9434Z" fill="white"/>
<path d="M114.744 31.9434H114.553V33.4727H114.744V31.9434Z" fill="white"/>
<path d="M113.785 31.9434H113.594V33.4727H113.785V31.9434Z" fill="white"/>
<path d="M117.61 34.2382V31.1795C117.61 31.1288 117.59 31.0803 117.554 31.0444C117.518 31.0086 117.469 30.9884 117.419 30.9883H112.831C112.78 30.9884 112.731 31.0086 112.696 31.0444C112.66 31.0803 112.64 31.1288 112.639 31.1795V34.2382H111.684V34.4294H120.478V34.2382H117.61ZM117.419 34.2382H112.831V31.1795H117.419V34.2382Z" fill="white"/>
<path d="M129.129 25.1055H146.768" stroke="black" stroke-width="0.0644986" stroke-miterlimit="10"/>
<path d="M129.129 26.959H146.768" stroke="black" stroke-width="0.0644986" stroke-miterlimit="10"/>
<path d="M129.129 28.8125H146.768" stroke="black" stroke-width="0.0644986" stroke-miterlimit="10"/>
<path d="M129.129 30.666H146.768" stroke="black" stroke-width="0.0644986" stroke-miterlimit="10"/>
<path d="M129.129 32.5215H146.768" stroke="black" stroke-width="0.0644986" stroke-miterlimit="10"/>
<path d="M129.129 34.375H146.768" stroke="black" stroke-width="0.0644986" stroke-miterlimit="10"/>
<path d="M129.129 36.2285H146.768" stroke="black" stroke-width="0.0644986" stroke-miterlimit="10"/>
<path d="M129.129 38.084H146.768" stroke="black" stroke-width="0.0644986" stroke-miterlimit="10"/>
<path d="M129.129 39.9375H146.768" stroke="black" stroke-width="0.0644986" stroke-miterlimit="10"/>
<path d="M129.129 41.791H146.768" stroke="black" stroke-width="0.0644986" stroke-miterlimit="10"/>
<path d="M129.129 43.6445H146.768" stroke="black" stroke-width="0.0644986" stroke-miterlimit="10"/>
<path d="M146.44 45.0117H141.625C141.443 45.0117 141.295 45.1595 141.295 45.3417V46.2146C141.295 46.3968 141.443 46.5446 141.625 46.5446H146.44C146.622 46.5446 146.77 46.3968 146.77 46.2146V45.3417C146.77 45.1595 146.622 45.0117 146.44 45.0117Z" fill="#00243F"/>
<path d="M22.9135 72.543H16.7812V156.836H22.9135V72.543Z" fill="#878787"/>
<path d="M16.7812 116.289L22.9134 74.5215H16.7812V116.289Z" fill="#B9B9B9"/>
<path d="M147.427 72.543H141.295V156.836H147.427V72.543Z" fill="#878787"/>
<path d="M141.295 116.289L147.427 74.5215H141.295V116.289Z" fill="#B9B9B9"/>
<path d="M3.80023 72.543H161.242C161.767 72.543 162.27 72.7516 162.642 73.1229C163.013 73.4942 163.222 73.9978 163.222 74.5229V79.2808H1.82031V74.5229C1.82031 73.9978 2.02891 73.4942 2.40022 73.1229C2.77152 72.7516 3.27512 72.543 3.80023 72.543Z" fill="#939393"/>
<path d="M81.4152 78.396L86.463 105.737C86.7176 107.115 86.6469 108.534 86.2567 109.879C85.8665 111.225 85.1675 112.462 84.2153 113.49L60.6349 137.409C60.5156 137.53 60.3649 137.616 60.1997 137.656L58.0557 138.176L51.8965 135.299V132.53C51.8965 132.28 51.9785 132.038 52.1298 131.839L71.9225 105.894L64.7101 85.7657L61.4796 77.627L81.4152 78.396Z" fill="#00243F"/>
<path d="M61.4805 77.627L64.711 85.7598L68.4137 109.959L68.4939 144.873C68.4931 145.058 68.5352 145.241 68.6168 145.407C68.6984 145.573 68.8173 145.718 68.9643 145.831L72.4752 148.089L77.3788 147.494L79.1356 145.089C79.1838 144.99 79.2123 144.883 79.2194 144.774L81.6003 109.158L81.4132 78.396L61.4805 77.627Z" fill="#0074B0"/>
<path d="M64.7147 152.376C64.7147 152.376 66.1338 151.338 66.1069 150.181C66.08 149.023 65.278 147.997 64.7754 147.536C64.2729 147.076 62.8451 145.91 62.8451 145.91C62.0991 146.309 61.4018 146.794 60.7673 147.354C60.3737 147.763 60.0182 148.208 59.7052 148.683L59.209 149.191L64.2195 152.6L64.7147 152.376Z" fill="#545454"/>
<path d="M62.8095 145.934C62.3733 145.426 61.9371 144.918 61.5008 144.41C61.4232 144.399 61.3444 144.416 61.2772 144.456C61.21 144.496 61.1583 144.557 61.1307 144.631C61.1017 144.717 61.0413 144.79 60.9615 144.834C60.8816 144.878 60.7882 144.89 60.6996 144.869C60.6247 144.862 60.555 144.827 60.504 144.772C60.453 144.717 60.4242 144.645 60.4231 144.569C60.4117 144.479 60.4317 144.388 60.4797 144.311C60.5277 144.234 60.6007 144.176 60.6866 144.146C60.8777 144.074 61.0626 143.987 61.2395 143.885C61.0293 143.417 60.8191 142.949 60.6089 142.48C60.3808 142.542 60.1672 142.592 60.0997 142.887C60.0851 142.935 60.0593 142.979 60.0245 143.015C59.9897 143.05 59.9468 143.077 59.8995 143.093C59.8521 143.109 59.8017 143.113 59.7523 143.106C59.7029 143.098 59.6561 143.079 59.6156 143.05C59.5697 143.027 59.5293 142.995 59.4971 142.955C59.4649 142.915 59.4417 142.868 59.4291 142.819C59.4164 142.769 59.4147 142.717 59.4239 142.667C59.4331 142.616 59.453 142.568 59.4824 142.526C59.586 142.379 59.7294 142.264 59.8959 142.195C60.071 142.15 60.2337 142.067 60.3722 141.951C60.237 141.555 60.0741 141.169 59.8848 140.796C59.641 140.825 59.4109 140.924 59.2228 141.082C59.1641 141.141 59.0852 141.176 59.0021 141.179C58.9189 141.183 58.8375 141.155 58.774 141.101C58.7026 141.058 58.6495 140.99 58.6248 140.91C58.6001 140.831 58.6055 140.745 58.64 140.669C58.6663 140.593 58.7194 140.53 58.7893 140.491C58.8591 140.453 58.9408 140.441 59.0187 140.459C59.1363 140.469 59.2547 140.455 59.3663 140.416C59.478 140.378 59.5806 140.317 59.6674 140.238C59.4935 139.752 59.3197 139.266 59.1459 138.781C58.8993 138.842 58.6704 138.96 58.477 139.125C58.417 139.175 58.3425 139.205 58.2643 139.21C58.1862 139.214 58.1087 139.193 58.0433 139.151C57.9779 139.108 57.928 139.045 57.9011 138.971C57.8742 138.898 57.8716 138.818 57.8938 138.743C57.9074 138.668 57.9476 138.601 58.007 138.554C58.0663 138.508 58.1408 138.484 58.2163 138.488C58.5193 138.47 58.8124 138.374 59.0668 138.209C59.0175 138.055 58.9349 137.914 58.8248 137.796C58.7148 137.678 58.5801 137.586 58.4304 137.526C58.0903 137.378 57.7403 137.255 57.383 137.156C55.8881 136.667 54.5337 135.823 53.4355 134.697C53.1928 134.417 52.966 134.124 52.7563 133.818C52.6995 133.748 52.6365 133.682 52.5681 133.623C52.4916 133.532 52.3972 133.458 52.2909 133.405C52.1846 133.352 52.0686 133.322 51.9501 133.316C51.8316 133.309 51.713 133.328 51.6017 133.369C51.4905 133.41 51.3889 133.474 51.3032 133.556C50.7359 134.005 50.2002 134.493 49.6997 135.016C48.9482 135.753 48.2373 136.53 47.5703 137.345C47.399 137.545 47.2551 137.767 47.1426 138.005C48.948 139.319 50.753 140.634 52.5576 141.949C53.1576 142.384 53.7111 142.879 54.2094 143.428C54.6405 143.906 54.9826 144.454 55.4105 144.933C55.9757 145.542 56.5819 146.111 57.2246 146.638C58.089 147.374 58.9581 148.104 59.8655 148.787C60.0778 148.495 60.3046 148.212 60.4991 147.908C60.8421 147.335 61.3324 146.864 61.9191 146.545C62.1666 146.416 62.4037 146.268 62.6477 146.133C62.7306 146.087 62.8016 146.037 62.8095 145.934Z" fill="#FFAC26"/>
<path d="M59.065 138.209C58.8105 138.374 58.5174 138.471 58.2144 138.488C58.1389 138.484 58.0644 138.508 58.0051 138.555C57.9457 138.601 57.9055 138.668 57.8919 138.743C57.8697 138.818 57.8723 138.898 57.8992 138.971C57.9261 139.045 57.976 139.108 58.0414 139.151C58.1068 139.194 58.1843 139.214 58.2624 139.21C58.3406 139.205 58.4151 139.176 58.4751 139.125C58.6685 138.96 58.8974 138.843 59.1439 138.781C59.1763 138.757 59.2054 138.719 59.2416 138.71C59.4836 138.65 59.4789 138.528 59.3947 138.318C59.3118 138.112 59.1943 138.183 59.065 138.209Z" fill="black"/>
<path d="M60.3779 141.951C60.2395 142.066 60.0767 142.15 59.9017 142.194C59.7352 142.263 59.5918 142.378 59.4882 142.525C59.4588 142.567 59.4388 142.615 59.4296 142.666C59.4204 142.716 59.4222 142.768 59.4348 142.818C59.4475 142.867 59.4707 142.914 59.5029 142.954C59.5351 142.994 59.5755 143.026 59.6214 143.049C59.6618 143.078 59.7087 143.098 59.7581 143.105C59.8074 143.113 59.8579 143.108 59.9052 143.092C59.9526 143.076 59.9954 143.049 60.0302 143.014C60.0651 142.978 60.0908 142.934 60.1054 142.886C60.173 142.591 60.3866 142.541 60.6147 142.48C60.7485 142.388 60.9655 142.358 60.8174 142.094C60.7289 141.936 60.6787 141.809 60.4886 141.961C60.445 141.996 60.4135 141.967 60.3779 141.951Z" fill="black"/>
<path d="M59.6711 140.236C59.5843 140.316 59.4818 140.377 59.3701 140.415C59.2584 140.453 59.14 140.467 59.0225 140.457C58.9446 140.439 58.8629 140.451 58.793 140.49C58.7231 140.529 58.67 140.592 58.6438 140.667C58.6093 140.743 58.6038 140.829 58.6285 140.909C58.6532 140.988 58.7063 141.056 58.7777 141.099C58.8412 141.153 58.9226 141.181 59.0058 141.178C59.089 141.174 59.1678 141.14 59.2266 141.081C59.4146 140.923 59.6447 140.823 59.8886 140.795C59.9018 140.725 59.97 140.71 60.0153 140.696C60.223 140.636 60.1806 140.523 60.123 140.367C60.0533 140.178 59.9676 140.118 59.7883 140.23C59.7592 140.248 59.7107 140.235 59.6711 140.236Z" fill="black"/>
<path d="M61.2395 143.886C61.0625 143.987 60.8776 144.075 60.6865 144.146C60.6007 144.176 60.5276 144.234 60.4796 144.311C60.4316 144.388 60.4117 144.48 60.423 144.57C60.4241 144.645 60.4529 144.717 60.5039 144.772C60.555 144.827 60.6246 144.862 60.6995 144.869C60.7881 144.89 60.8816 144.878 60.9614 144.834C61.0412 144.79 61.1016 144.717 61.1306 144.631C61.1583 144.558 61.2099 144.496 61.2771 144.456C61.3443 144.416 61.4231 144.4 61.5007 144.41C61.5062 144.382 61.5203 144.357 61.5411 144.337C61.5619 144.317 61.5883 144.305 61.6166 144.301C61.8005 144.258 61.7878 144.172 61.7424 144.004C61.6366 143.615 61.4118 143.894 61.2395 143.886Z" fill="black"/>
<path d="M62.1074 153.091L62.1838 153.096C62.1741 153.086 62.1608 153.079 62.1467 153.078C62.1325 153.077 62.1185 153.082 62.1074 153.091Z" fill="#FF9E00"/>
<path d="M59.6758 151.389L59.75 151.383C59.7392 151.374 59.7255 151.37 59.7117 151.371C59.6979 151.372 59.685 151.379 59.6758 151.389Z" fill="#FF9E00"/>
<path d="M62.6055 153.633L62.5918 153.701C62.5973 153.698 62.6021 153.693 62.6058 153.688C62.6095 153.683 62.6121 153.676 62.6134 153.67C62.6147 153.664 62.6146 153.657 62.6133 153.651C62.6119 153.644 62.6093 153.638 62.6055 153.633Z" fill="#FF9E00"/>
<path d="M50.5976 139.445C50.5976 139.445 51.8776 138.338 51.4186 136.818C51.1781 135.949 50.6675 135.179 49.9607 134.619C49.9607 134.619 48.1096 136.544 47.7543 136.902C47.3991 137.259 46.4883 138.446 46.4883 138.446L49.6925 140.493L50.5976 139.445Z" fill="#545454"/>
<path d="M59.8654 148.787C58.9581 148.104 58.0889 147.374 57.2245 146.637C56.5818 146.111 55.9757 145.541 55.4104 144.932C54.9825 144.454 54.6405 143.906 54.2093 143.428C53.7111 142.879 53.1575 142.383 52.5575 141.949C50.7554 140.63 48.9504 139.316 47.1425 138.005C46.9731 137.854 46.8652 137.875 46.7248 138.075C46.0624 139.016 45.3797 139.943 44.7043 140.875L44.6992 140.922C44.8817 141.084 45.0745 141.233 45.2764 141.369C45.4031 141.472 45.4617 141.336 45.549 141.3C45.5669 141.276 45.5912 141.258 45.619 141.248C45.6467 141.238 45.6769 141.236 45.7058 141.242L45.8074 141.23L45.8873 141.237L45.8883 141.237C45.9717 141.237 46.053 141.264 46.1191 141.315C46.1852 141.366 46.2323 141.437 46.253 141.518C46.2568 141.519 46.2603 141.521 46.2634 141.523C46.2665 141.526 46.269 141.529 46.2708 141.532C46.2726 141.536 46.2737 141.54 46.274 141.544C46.2742 141.547 46.2737 141.551 46.2723 141.555C46.2855 141.566 46.295 141.581 46.2995 141.597C46.3041 141.614 46.3034 141.632 46.2976 141.648L46.301 141.698L46.2979 141.779C46.2947 141.872 46.267 141.963 46.2175 142.043C46.6333 142.341 47.0303 142.667 47.469 142.934C47.539 142.831 47.6458 142.758 47.7674 142.732C47.889 142.705 48.0162 142.726 48.123 142.79C48.2345 142.847 48.3187 142.947 48.3572 143.066C48.3957 143.185 48.3854 143.315 48.3285 143.427C48.2845 143.545 48.3282 143.59 48.4071 143.647C48.7146 143.869 49.0246 144.087 49.3252 144.318C49.3465 144.342 49.3725 144.361 49.4016 144.374C49.4307 144.387 49.4622 144.393 49.4941 144.393C49.5259 144.393 49.5573 144.386 49.5863 144.373C49.6153 144.36 49.6412 144.341 49.6622 144.317C49.7431 144.25 49.8448 144.214 49.9495 144.216C50.0542 144.217 50.1551 144.255 50.2344 144.323C50.3218 144.373 50.3886 144.453 50.4228 144.548C50.457 144.642 50.4565 144.746 50.4214 144.84C50.3375 145.047 50.4239 145.136 50.5752 145.226C50.6387 145.264 50.6959 145.312 50.7559 145.356C51.0889 145.598 51.0888 145.598 51.3369 145.256C51.5261 144.996 51.7154 144.736 51.9286 144.443C52.1637 144.972 52.433 145.485 52.7348 145.979C53.2337 146.826 53.8823 147.574 54.649 148.188C54.7429 148.26 54.8194 148.329 54.9448 148.217C55.0253 148.138 55.1328 148.092 55.2458 148.088C55.3589 148.084 55.469 148.124 55.5543 148.198C55.6496 148.259 55.7194 148.352 55.7504 148.461C55.7813 148.57 55.7714 148.686 55.7225 148.788C55.7104 148.808 55.7028 148.831 55.7002 148.855C55.6976 148.879 55.7 148.903 55.7072 148.926C55.7145 148.948 55.7265 148.969 55.7424 148.987C55.7583 149.005 55.7778 149.019 55.7995 149.029C56.1824 149.301 56.5614 149.579 56.94 149.857C57.0263 149.921 57.0873 149.954 57.1906 149.86C57.2705 149.78 57.3774 149.733 57.4903 149.728C57.6033 149.722 57.7141 149.759 57.8012 149.831C57.8973 149.891 57.9683 149.983 58.0005 150.091C58.0328 150.2 58.0242 150.316 57.9762 150.418C57.92 150.554 57.9667 150.607 58.0635 150.676C58.366 150.891 58.671 151.103 58.962 151.332C59.1697 151.496 59.3596 151.652 59.6045 151.402C59.6181 151.388 59.6511 151.393 59.6751 151.389C59.6844 151.379 59.6972 151.373 59.711 151.372C59.7247 151.371 59.7384 151.375 59.7491 151.384L59.8514 151.391C59.9283 151.391 60.0032 151.416 60.0658 151.46C60.1283 151.505 60.1753 151.568 60.2003 151.641C60.2202 151.662 60.2352 151.688 60.2443 151.715C60.2534 151.743 60.2564 151.772 60.2529 151.801L60.2577 151.876L60.2578 151.874C60.2699 151.892 60.2752 151.913 60.2728 151.935C60.2704 151.956 60.2603 151.976 60.2446 151.99C60.2461 151.992 60.2473 151.994 60.2479 151.996C60.2485 151.998 60.2485 152.001 60.248 152.003C60.2475 152.005 60.2465 152.007 60.245 152.009C60.2435 152.011 60.2416 152.012 60.2395 152.013C60.2522 152.087 60.1992 152.136 60.1733 152.196L61.6878 153.296C61.7707 153.215 61.835 153.105 61.974 153.11L62.1033 153.09C62.1144 153.082 62.1283 153.077 62.1425 153.078C62.1566 153.079 62.1698 153.086 62.1795 153.096C62.1837 153.092 62.189 153.091 62.1944 153.091C62.1998 153.091 62.2049 153.093 62.2087 153.097C62.2857 153.101 62.3598 153.128 62.421 153.175C62.4823 153.222 62.5279 153.286 62.5518 153.359C62.5716 153.382 62.5864 153.408 62.5952 153.436C62.6039 153.465 62.6065 153.495 62.6026 153.525C62.6149 153.54 62.6219 153.559 62.6225 153.578C62.6231 153.598 62.6172 153.617 62.6058 153.633L62.5875 153.633L62.6058 153.634C62.6096 153.639 62.6122 153.645 62.6136 153.651C62.6149 153.658 62.6149 153.664 62.6136 153.671C62.6124 153.677 62.6098 153.683 62.6061 153.689C62.6024 153.694 62.5976 153.699 62.5921 153.702C62.5026 153.873 62.5667 153.977 62.7245 154.071C62.8812 154.176 63.0321 154.288 63.1765 154.409L63.3574 154.511L63.4089 154.486C63.4386 154.423 63.4883 154.372 63.5503 154.34L63.7461 154.121C63.7895 154.029 63.8574 153.951 63.9424 153.894L64.335 153.383L64.3788 153.289C64.3862 153.219 64.421 153.155 64.4755 153.11L64.5392 152.979L64.6134 152.724L64.628 152.648L64.6286 152.567L64.6039 152.463L64.5352 152.334L64.5217 152.325L64.5208 152.309L64.4814 152.28C62.9165 151.15 61.3779 149.986 59.8654 148.787Z" fill="black"/>
<path d="M91.4732 154.448C91.4732 154.448 92.0106 152.771 91.3068 151.85C90.603 150.929 89.3489 150.57 88.6706 150.494C87.9924 150.417 86.1496 150.314 86.1496 150.314C85.7808 151.077 85.5017 151.88 85.3178 152.707C85.2406 153.271 85.2149 153.841 85.241 154.409L85.1387 155.113L91.2044 154.921L91.4732 154.448Z" fill="#545454"/>
<path d="M86.1334 150.354C85.4809 150.2 84.8284 150.046 84.1759 149.892C84.107 149.929 84.0527 149.989 84.0219 150.061C83.9911 150.133 83.9856 150.213 84.0064 150.289C84.0339 150.376 84.0277 150.47 83.989 150.553C83.9503 150.636 83.8819 150.701 83.7975 150.735C83.7327 150.774 83.6561 150.787 83.5822 150.772C83.5083 150.758 83.4425 150.716 83.3974 150.656C83.3351 150.59 83.2975 150.504 83.2909 150.413C83.2843 150.323 83.3091 150.233 83.3612 150.158C83.4736 149.987 83.572 149.808 83.6553 149.621C83.2092 149.366 82.7631 149.111 82.317 148.855C82.1685 149.039 82.0248 149.206 82.1444 149.485C82.1607 149.532 82.1655 149.583 82.1584 149.632C82.1513 149.682 82.1325 149.729 82.1035 149.769C82.0746 149.81 82.0363 149.843 81.9919 149.866C81.9475 149.889 81.8983 149.902 81.8483 149.902C81.7976 149.91 81.7457 149.908 81.6961 149.894C81.6465 149.881 81.6004 149.857 81.5609 149.824C81.5214 149.791 81.4894 149.751 81.4671 149.704C81.4448 149.658 81.4328 149.607 81.4318 149.556C81.4288 149.376 81.4772 149.198 81.5714 149.044C81.6869 148.905 81.7697 148.742 81.8135 148.566C81.4707 148.325 81.1114 148.109 80.7382 147.918C80.5578 148.085 80.4301 148.301 80.3709 148.54C80.358 148.622 80.3146 148.697 80.2493 148.749C80.184 148.801 80.1016 148.826 80.0184 148.82C79.9352 148.827 79.8523 148.803 79.7853 148.753C79.7184 148.703 79.6721 148.63 79.6553 148.549C79.6321 148.472 79.6379 148.39 79.6716 148.317C79.7054 148.244 79.7646 148.187 79.8382 148.155C79.9393 148.094 80.0267 148.013 80.0947 147.916C80.1627 147.82 80.2098 147.71 80.233 147.594L78.9524 146.722C78.789 146.917 78.6732 147.147 78.6138 147.395C78.5948 147.471 78.5519 147.539 78.4914 147.589C78.4308 147.638 78.3558 147.667 78.2776 147.671C78.1993 147.675 78.1219 147.653 78.0568 147.61C77.9917 147.566 77.9424 147.503 77.9162 147.429C77.8833 147.36 77.8764 147.283 77.8969 147.21C77.9173 147.137 77.9637 147.074 78.0273 147.033C78.2622 146.84 78.4429 146.589 78.5515 146.305C78.421 146.21 78.2711 146.145 78.1124 146.114C77.9537 146.083 77.7902 146.088 77.6335 146.127C77.2713 146.208 76.9151 146.314 76.5676 146.445C75.0689 146.93 73.4752 147.045 71.9225 146.78C71.5611 146.696 71.2046 146.592 70.8549 146.469C70.7673 146.445 70.6777 146.429 70.5873 146.421C70.4719 146.393 70.3519 146.389 70.2347 146.409C70.1175 146.428 70.0056 146.472 69.906 146.537C69.8063 146.602 69.721 146.686 69.6553 146.785C69.5896 146.884 69.5449 146.996 69.5239 147.113C69.3293 147.811 69.1828 148.521 69.0855 149.239C68.9114 150.279 68.794 151.327 68.7338 152.38C68.7131 152.643 68.7275 152.907 68.7768 153.167C71.0128 153.167 73.2488 153.163 75.4848 153.169C76.2269 153.168 76.9671 153.243 77.6938 153.393C78.3247 153.527 78.9243 153.768 79.5529 153.904C80.3694 154.064 81.1958 154.168 82.0263 154.215C83.1601 154.302 84.2938 154.381 85.4311 154.4C85.4307 154.038 85.4476 153.675 85.426 153.314C85.3659 152.648 85.4856 151.978 85.7724 151.374C85.8971 151.124 86.0017 150.864 86.1196 150.611C86.1449 150.573 86.1596 150.53 86.162 150.485C86.1644 150.439 86.1545 150.394 86.1334 150.354Z" fill="#FFAC26"/>
<path d="M78.5529 146.304C78.4443 146.588 78.2636 146.839 78.0287 147.031C77.9651 147.072 77.9187 147.135 77.8983 147.208C77.8778 147.281 77.8847 147.359 77.9176 147.427C77.9438 147.501 77.9931 147.565 78.0582 147.608C78.1233 147.652 78.2007 147.673 78.279 147.67C78.3572 147.666 78.4322 147.637 78.4928 147.587C78.5533 147.537 78.5962 147.47 78.6152 147.393C78.6746 147.146 78.7904 146.916 78.9538 146.72C78.959 146.68 78.9716 146.641 78.991 146.605C79.1519 146.415 79.0757 146.318 78.8841 146.198C78.6956 146.08 78.642 146.206 78.5529 146.304Z" fill="black"/>
<path d="M81.8115 148.566C81.7677 148.741 81.6849 148.905 81.5694 149.044C81.4752 149.198 81.4268 149.375 81.4298 149.556C81.4308 149.607 81.4428 149.658 81.4651 149.704C81.4874 149.75 81.5194 149.791 81.5589 149.824C81.5984 149.857 81.6445 149.881 81.6941 149.894C81.7437 149.907 81.7956 149.91 81.8463 149.901C81.8963 149.901 81.9455 149.889 81.9899 149.866C82.0343 149.843 82.0726 149.81 82.1015 149.769C82.1305 149.728 82.1493 149.681 82.1564 149.632C82.1635 149.582 82.1587 149.532 82.1424 149.484C82.0228 149.205 82.1665 149.039 82.315 148.855C82.3691 148.702 82.5274 148.55 82.2519 148.423C82.0872 148.348 81.9714 148.274 81.9073 148.509C81.8926 148.563 81.85 148.558 81.8115 148.566Z" fill="black"/>
<path d="M80.2343 147.592C80.2111 147.708 80.164 147.818 80.096 147.915C80.028 148.011 79.9406 148.093 79.8395 148.154C79.7659 148.185 79.7067 148.243 79.6729 148.315C79.6392 148.388 79.6334 148.47 79.6566 148.547C79.6734 148.629 79.7197 148.702 79.7866 148.751C79.8536 148.801 79.9365 148.825 80.0197 148.818C80.1029 148.824 80.1853 148.799 80.2506 148.747C80.3159 148.695 80.3593 148.621 80.3722 148.538C80.4314 148.3 80.5591 148.084 80.7395 147.917C80.7095 147.853 80.7554 147.8 80.7843 147.762C80.9169 147.591 80.8158 147.524 80.6771 147.432C80.5096 147.32 80.4051 147.323 80.3256 147.518C80.3127 147.55 80.2656 147.568 80.2343 147.592Z" fill="black"/>
<path d="M83.6526 149.621C83.5693 149.807 83.4709 149.987 83.3585 150.158C83.3064 150.232 83.2816 150.322 83.2882 150.413C83.2947 150.504 83.3323 150.59 83.3946 150.656C83.4398 150.716 83.5056 150.757 83.5795 150.772C83.6533 150.787 83.73 150.774 83.7947 150.735C83.8792 150.7 83.9475 150.635 83.9862 150.552C84.0249 150.47 84.0311 150.376 84.0036 150.288C83.9829 150.213 83.9884 150.133 84.0192 150.06C84.05 149.988 84.1042 149.929 84.1732 149.892C84.1611 149.866 84.1575 149.837 84.1628 149.808C84.1681 149.78 84.1821 149.755 84.2027 149.735C84.3261 149.591 84.2651 149.529 84.1298 149.421C83.8149 149.168 83.7973 149.526 83.6526 149.621Z" fill="black"/>
<path d="M91.5672 154.719L91.5195 154.652L91.5672 154.719Z" fill="#FF9E00"/>
<path d="M89.7793 156.565L89.8443 156.524C89.8304 156.522 89.8159 156.525 89.8039 156.532C89.7918 156.54 89.783 156.551 89.7793 156.565Z" fill="#FF9E00"/>
<path d="M86.8105 156.619L86.8671 156.57C86.8533 156.57 86.8397 156.574 86.8291 156.583C86.8186 156.592 86.8119 156.605 86.8105 156.619Z" fill="#FF9E00"/>
<path d="M90.5059 156.709L90.5351 156.773C90.5375 156.766 90.5387 156.76 90.5385 156.753C90.5384 156.747 90.5369 156.74 90.5341 156.734C90.5314 156.729 90.5275 156.723 90.5226 156.719C90.5178 156.714 90.5121 156.711 90.5059 156.709Z" fill="#FF9E00"/>
<path d="M72.4198 152.298C72.4198 152.298 72.8037 150.647 71.5368 149.687C70.8299 149.125 69.9628 148.802 69.0606 148.766C69.0606 148.766 68.6959 151.415 68.6191 151.914C68.5423 152.413 68.5039 153.91 68.5039 153.91L72.3046 153.68L72.4198 152.298Z" fill="#545454"/>
<path d="M85.43 154.399C84.2927 154.38 83.159 154.301 82.0252 154.214C81.1946 154.167 80.3682 154.063 79.5518 153.903C78.9232 153.767 78.3236 153.526 77.6927 153.392C76.966 153.242 76.2258 153.167 75.4837 153.168C73.2477 153.162 71.0117 153.166 68.7756 153.166C68.5494 153.143 68.4748 153.224 68.4787 153.468C68.497 154.621 68.4904 155.774 68.4926 156.926L68.5163 156.967C68.7591 156.99 69.0032 156.998 69.247 156.989C69.4103 156.998 69.3773 156.853 69.4268 156.772C69.4274 156.743 69.4365 156.714 69.4529 156.689C69.4694 156.664 69.4926 156.645 69.5197 156.633L69.5948 156.563L69.6639 156.522L69.6648 156.522C69.7318 156.472 69.8137 156.446 69.8972 156.448C69.9807 156.451 70.061 156.481 70.1253 156.534C70.129 156.533 70.133 156.532 70.1369 156.532C70.1409 156.533 70.1447 156.534 70.1482 156.535C70.1518 156.537 70.1549 156.54 70.1574 156.543C70.16 156.546 70.1618 156.549 70.163 156.553C70.1801 156.554 70.1965 156.56 70.2099 156.571C70.2233 156.582 70.2331 156.596 70.238 156.613L70.2701 156.651L70.3154 156.719C70.3679 156.796 70.399 156.886 70.4057 156.98C70.9185 156.977 71.4316 157.006 71.944 156.964C71.9801 156.656 72.1327 156.484 72.3888 156.462C72.513 156.443 72.6397 156.474 72.7412 156.548C72.8428 156.622 72.9109 156.733 72.9308 156.857C72.9646 156.978 73.0265 156.989 73.1239 156.989C73.5036 156.987 73.8834 156.981 74.2629 156.991C74.2941 156.998 74.3263 156.998 74.3575 156.991C74.3886 156.984 74.418 156.971 74.4437 156.952C74.4694 156.933 74.4908 156.909 74.5065 156.882C74.5222 156.854 74.5318 156.823 74.5348 156.791C74.5611 156.69 74.6224 156.601 74.7079 156.54C74.7933 156.48 74.8975 156.451 75.002 156.46C75.1022 156.449 75.2031 156.474 75.2866 156.53C75.3702 156.587 75.4309 156.671 75.4581 156.768C75.5117 156.985 75.634 157.006 75.8098 156.99C75.8834 156.983 75.9582 156.988 76.0325 156.988C76.4447 156.988 76.4446 156.988 76.4444 156.565C76.4443 156.243 76.4444 155.921 76.4444 155.558C76.9464 155.848 77.4668 156.105 78.0022 156.327C78.9048 156.718 79.871 156.942 80.8537 156.988C80.9721 156.99 81.0747 157.001 81.1101 156.837C81.1285 156.725 81.1884 156.624 81.2779 156.555C81.3673 156.485 81.4796 156.452 81.5924 156.462C81.7054 156.455 81.817 156.49 81.9061 156.56C81.9953 156.629 82.0558 156.729 82.0762 156.841C82.1083 156.965 82.1653 156.992 82.2805 156.99C82.751 156.985 83.2215 156.987 83.692 156.989C83.7992 156.99 83.8686 156.981 83.8967 156.844C83.9142 156.732 83.9729 156.631 84.0612 156.56C84.1495 156.489 84.2611 156.454 84.3741 156.461C84.4868 156.452 84.5988 156.485 84.6887 156.554C84.7786 156.622 84.8402 156.722 84.8616 156.833C84.8963 156.976 84.9652 156.991 85.0841 156.99C85.4555 156.986 85.8274 156.977 86.1983 156.992C86.463 157.002 86.7084 157.016 86.7596 156.67C86.7624 156.65 86.7922 156.635 86.8094 156.618C86.8108 156.604 86.8175 156.592 86.828 156.583C86.8385 156.574 86.8521 156.569 86.8659 156.57L86.9531 156.515C87.0156 156.47 87.0905 156.446 87.1676 156.445C87.2446 156.445 87.3199 156.468 87.383 156.512C87.4116 156.518 87.4386 156.529 87.4622 156.546C87.4858 156.563 87.5054 156.585 87.5196 156.611L87.5678 156.669L87.5669 156.667C87.5871 156.674 87.604 156.689 87.6146 156.707C87.6251 156.726 87.6286 156.748 87.6244 156.769C87.6266 156.769 87.6288 156.77 87.6306 156.772C87.6324 156.773 87.6338 156.775 87.6348 156.777C87.6357 156.779 87.6361 156.782 87.636 156.784C87.6359 156.786 87.6352 156.789 87.634 156.791C87.6875 156.843 87.6738 156.914 87.6879 156.977L89.5623 156.976C89.5817 156.861 89.5692 156.735 89.6847 156.657L89.7778 156.565C89.7815 156.551 89.7902 156.539 89.8023 156.532C89.8143 156.524 89.8287 156.521 89.8426 156.524C89.8439 156.519 89.8471 156.514 89.8517 156.511C89.8562 156.508 89.8617 156.507 89.8671 156.508C89.9316 156.466 90.0075 156.444 90.0847 156.446C90.1618 156.447 90.2366 156.473 90.2992 156.518C90.3284 156.524 90.3559 156.537 90.3799 156.555C90.4038 156.573 90.4236 156.596 90.438 156.622C90.4568 156.627 90.4735 156.638 90.4855 156.653C90.4974 156.669 90.5039 156.688 90.504 156.707L90.4895 156.719L90.5047 156.708C90.5109 156.71 90.5166 156.714 90.5214 156.718C90.5263 156.722 90.5302 156.728 90.5329 156.734C90.5356 156.74 90.5371 156.746 90.5373 156.753C90.5375 156.759 90.5363 156.766 90.5339 156.772C90.5622 156.963 90.6752 157.009 90.8587 156.993C91.0469 156.985 91.2354 156.987 91.4233 156.999L91.6304 156.976L91.657 156.925C91.644 156.857 91.6541 156.786 91.6857 156.724L91.7152 156.431C91.696 156.331 91.7048 156.227 91.7405 156.132L91.7568 155.486L91.7373 155.385C91.702 155.324 91.6922 155.251 91.71 155.183L91.6846 155.039L91.5944 154.789L91.5614 154.719L91.5138 154.653L91.4324 154.583L91.3011 154.519L91.285 154.52L91.2749 154.508L91.2258 154.507C89.2931 154.515 87.3611 154.478 85.43 154.399Z" fill="black"/>
<path d="M114.975 61.7109L114.841 62.0758L100.824 62.1483L77.7086 63.6243C76.6187 63.0756 75.5565 59.6691 76.4294 58.2382L81.2461 54.8203L100.968 58.5926L104.993 57.4555C105.368 57.3851 105.755 57.44 106.095 57.6116L114.381 59.9511C114.872 59.9659 115.113 61.2231 114.975 61.7109Z" fill="#DCA48C"/>
<path d="M89.114 20.2612L87.2173 20.6895C87.163 21.1598 87.1005 21.5911 87.0273 21.9904C86.973 22.3007 86.9124 22.5883 86.8428 22.8571C85.764 27.1671 83.218 26.6734 79.4043 26.4924L78.2284 30.5879L67.6191 26.2628L71.175 18.5009L71.882 14.1242L75.4718 10.0022L83.2073 6.79305C83.2073 6.79305 83.5458 5.45356 85.7281 7.05979C87.9105 8.6661 87.7866 12.6426 87.6911 14.6418L89.114 20.2612Z" fill="#DCA48C"/>
<path d="M83.2966 39.8642L84.1178 57.5936L82.8721 79.0537L60.6557 79.2822L59.7633 37.8087C59.7051 35.7372 60.3684 33.7098 61.6398 32.0734L66.5023 25.8671L67.142 24.3823L67.8651 22.3105L78.632 29.1107L81.3496 33.5569C82.5232 35.4601 83.1932 37.6306 83.2966 39.8642Z" fill="#1A82B8"/>
<path d="M76.117 4.54507C74.0681 3.8953 72.81 4.73712 72.4419 5.62726C70.8573 5.70539 70.2263 6.73553 70.3304 7.90604C69.3921 8.70986 68.932 9.48308 69.6589 10.9927C68.4836 12.2702 69.0132 13.4077 69.5962 14.1107C68.7201 15.1424 69.1464 16.2221 69.8136 16.5594C69.3869 17.8758 69.8883 18.4821 70.954 18.9873C73.419 18.8196 73.7218 17.2864 73.7659 16.3426C73.7697 16.2616 73.8472 14.6343 73.8517 14.5501C73.9193 13.3136 74.3627 12.7569 75.8523 12.791C77.7872 12.836 77.7419 14.1751 77.7206 15.2383L79.943 15.3424L80.1094 11.7861C85.1077 12.0201 83.9364 8.43733 86.257 8.54596C86.6543 8.56457 86.9592 8.59332 86.9592 8.59332C87.2403 7.37306 86.9164 5.23854 84.3669 5.38245C83.7542 4.87857 82.9267 3.67419 80.4492 4.55122C79.0401 4.07507 77.4714 3.63075 76.117 4.54507Z" fill="#00243F"/>
<path d="M85.7157 15.754L85.2172 15.7306C85.1717 15.7285 85.1271 15.7174 85.0858 15.698C85.0446 15.6786 85.0076 15.6513 84.977 15.6176C84.9463 15.584 84.9226 15.5446 84.9072 15.5017C84.8918 15.4588 84.8849 15.4134 84.8871 15.3679L84.9104 14.8696C84.9148 14.7777 84.9554 14.6914 85.0234 14.6295C85.0913 14.5676 85.1811 14.5352 85.273 14.5394L85.7715 14.5628C85.8633 14.5671 85.9497 14.6077 86.0116 14.6757C86.0735 14.7437 86.1059 14.8335 86.1016 14.9253L86.0783 15.4236C86.0762 15.4691 86.0651 15.5138 86.0458 15.555C86.0264 15.5962 85.9991 15.6332 85.9655 15.6639C85.9318 15.6946 85.8924 15.7183 85.8496 15.7338C85.8067 15.7492 85.7612 15.7561 85.7157 15.7539" fill="#00243F"/>
<path d="M83.644 41.4057L84.0191 52.3604L84.1737 56.8905L84.1977 57.5882L84.2944 59.8423L84.492 64.3703L84.0202 77.4262C84.0019 77.9314 83.7911 78.4105 83.4309 78.7652C83.0707 79.12 82.5885 79.3235 82.0831 79.3341L61.088 79.7744C60.7818 79.7771 60.4781 79.7185 60.1949 79.6021C59.9117 79.4856 59.6546 79.3138 59.4388 79.0965C59.223 78.8793 59.0528 78.6211 58.9383 78.3371C58.8237 78.0532 58.7671 77.7492 58.7718 77.443L58.8775 65.619L58.9806 61.0763L59.0482 58.1153L59.1546 53.5726L59.5031 38.3001C59.5641 35.8826 60.1875 33.5868 61.6492 31.7071L66.0968 25.9889C66.9882 24.8424 67.1393 24.3809 67.1393 24.3809C67.1393 24.3809 80.9428 33.1892 81.2128 33.3653C81.2127 33.3653 83.0586 35.0354 83.644 41.4057Z" fill="#FF9E00"/>
<path d="M84.0476 52.2617L84.1987 56.7918L59.0723 57.9975L59.1822 53.4546L84.0476 52.2617Z" fill="white"/>
<path d="M84.4428 59.543L84.6252 64.0717L58.7715 65.2484L58.8923 60.7058L84.4428 59.543Z" fill="white"/>
<path d="M81.0676 53.9817L70.5811 38.8554C70.1139 38.2206 69.6086 37.6147 69.0681 37.0411C68.2933 36.2138 67.2537 35.6835 66.1291 35.5419C65.0046 35.4004 63.8659 35.6566 62.9103 36.2661C62.8295 36.3193 62.7537 36.372 62.6842 36.424C60.2599 38.2378 60.0011 41.7955 61.9514 44.1114L62.5934 44.8737L75.2874 61.1035C76.0875 62.635 78.0423 63.5517 79.244 63.3282L80.7486 56.9469L81.1862 54.187" fill="#1A82B8"/>
<path d="M69.3177 13.7246L67.2988 14.6707L67.3229 14.8165L69.7615 14.3631L69.3177 13.7246Z" fill="#FF9E00"/>
<path d="M67.6579 16.8325L67.2988 14.672L70.7066 13.7886C70.9602 13.6953 71.1789 13.5264 71.3335 13.3048L73.249 10.2324L75.1042 11.3877L73.1909 14.457C72.741 15.1533 72.0569 15.6658 71.2622 15.902L67.6579 16.8325Z" fill="#FFC566"/>
<path d="M91.5315 10.03L66.709 14.1599L67.2003 12.7638C66.4542 6.63905 68.2149 3.14823 72.769 1.40115C73.5289 1.11494 74.3154 0.905045 75.1169 0.774583L77.3231 0.407047C78.3188 0.229649 79.3331 0.179977 80.3413 0.25923C84.6728 0.632174 87.036 3.25228 88.1323 7.17626C88.9633 7.59968 90.619 8.5861 91.6862 9.22812C91.7618 9.27458 91.8213 9.34295 91.8571 9.42413C91.8928 9.50531 91.9029 9.59545 91.8861 9.68253C91.8693 9.76961 91.8264 9.84951 91.763 9.91158C91.6997 9.97365 91.6189 10.0149 91.5315 10.03" fill="#FF9E00"/>
<path d="M88.1213 7.15431L83.8867 10.2595L83.8931 10.2738L89.3917 7.85503C89.3917 7.85503 89.021 7.62808 88.1213 7.1543" fill="#FF6D00"/>
<path d="M74.7594 7.38477L72.4277 13.209L74.1232 12.9272L74.7594 7.38477Z" fill="#FF6D00"/>
<path d="M84.2806 28.0063C83.9888 28.3181 82.966 28.6571 82.1435 28.4195C82.021 28.3898 81.9 28.354 81.781 28.3122C81.1155 28.0367 80.5195 27.4174 79.9902 26.5644C80.7363 26.6719 81.4897 26.7203 82.2434 26.7089C82.3353 26.7042 82.4236 26.6979 82.5134 26.6879C82.5915 26.7521 82.6815 26.8001 82.7783 26.8291C82.8751 26.8581 82.9767 26.8676 83.0772 26.8571C83.5109 26.7925 83.6632 26.6953 83.7741 26.4585C84.112 26.3578 84.4434 26.2367 84.7666 26.0957C84.8553 26.7109 84.9766 27.2664 84.2806 28.0063Z" fill="#BFC8CF"/>
<path d="M82.5138 26.6872C82.424 26.6971 82.3357 26.7034 82.2438 26.7082C81.4901 26.7195 80.7367 26.6712 79.9907 26.5636C77.812 23.0832 77.1767 14.5565 76.916 11.5231L78.7702 11.2949C79.3412 17.9348 80.9282 25.6025 82.5138 26.6872Z" fill="#BFC8CF"/>
<path d="M74.123 12.9269L81.9464 11.6255L79.5493 6.58789L74.7593 7.38415L74.123 12.9269Z" fill="#FFC566"/>
<path d="M82.0699 64.0316L100.939 63.4361L101.011 58.2276L81.1874 54.1867L75.7981 54.0039C75.3378 58.348 74.6587 62.9365 78.7714 64.0371L82.0699 64.0316Z" fill="#1A82B8"/>
<path d="M47.1207 44.459H13.6914V72.563H47.1207V44.459Z" fill="#FFCE7F"/>
<path d="M47.12 44.459H13.6914V47.1761H13.6917V69.8444H13.6914V72.5615H13.6917V72.5631H16.269V72.5615H44.5393V72.5631H47.1204V44.459H47.12ZM16.269 69.8444V47.1761H44.5393V69.8444H16.269Z" fill="#FFE2B2"/>
<path d="M44.5358 54.5842H39.7269H34.918V44.418H44.5358V54.5842Z" fill="#9C5959"/>
<path d="M43.8884 51.2812H39.7246V51.3582H43.8884V51.2812Z" fill="#767676"/>
<path d="M43.8884 51.7891H39.7246V51.8661H43.8884V51.7891Z" fill="#767676"/>
<path d="M43.8884 52.2949H39.7246V52.3719H43.8884V52.2949Z" fill="#767676"/>
<path d="M43.8884 52.8008H39.7246V52.8778H43.8884V52.8008Z" fill="#767676"/>
<path d="M43.8884 53.3066H39.7246V53.3836H43.8884V53.3066Z" fill="#767676"/>
<path d="M43.8884 53.8145H39.7246V53.8915H43.8884V53.8145Z" fill="#767676"/>
<path d="M134.435 61.8574H101.006V72.5636H134.435V61.8574Z" fill="#FFCE7F"/>
<path d="M134.434 61.8574H101.006V62.8925H101.006V71.5279H101.006V72.563H101.006V72.5636H103.583V72.563H131.854V72.5636H134.435V61.8574H134.434ZM103.583 70.7715V63.8297H131.854V70.7715H103.583Z" fill="#FFE2B2"/>
<path d="M131.86 69.1207H127.051H122.242V61.8574H131.86V69.1207Z" fill="#9C5959"/>
<path d="M131.213 65.8184H127.049V65.8954H131.213V65.8184Z" fill="#767676"/>
<path d="M131.213 66.3242H127.049V66.4012H131.213V66.3242Z" fill="#767676"/>
<path d="M131.213 66.8301H127.049V66.9071H131.213V66.8301Z" fill="#767676"/>
<path d="M131.213 67.3359H127.049V67.4129H131.213V67.3359Z" fill="#767676"/>
<path d="M131.213 67.8438H127.049V67.9207H131.213V67.8438Z" fill="#767676"/>
<path d="M131.213 68.3496H127.049V68.4266H131.213V68.3496Z" fill="#767676"/>
</svg>
