<svg width="58" height="64" viewBox="0 0 58 64" fill="none" xmlns="http://www.w3.org/2000/svg">
<path fill-rule="evenodd" clip-rule="evenodd" d="M0.0455889 26.4209C2.19583e-10 27.7383 0 29.2787 0 31.1386V48.0486C0 55.5682 0 59.3279 2.40086 61.664C4.60521 63.8088 8.0431 63.9843 14.5728 63.9987V44.0605C14.5728 39.6212 18.2412 36.2021 22.5419 36.2021H34.8374C39.1381 36.2021 42.8065 39.6212 42.8065 44.0605V63.9987C49.3362 63.9843 52.7741 63.8088 54.9785 61.664C57.3793 59.3279 57.3793 55.5682 57.3793 48.0486V31.1386C57.3793 29.2787 57.3793 27.7383 57.3337 26.4209H0.0455889ZM55.8031 19.8002C54.5902 17.8076 52.5082 16.0712 48.7919 12.9718L44.6934 9.55365C37.0565 3.18455 33.2381 0 28.6897 0C24.1412 0 20.3228 3.18455 12.686 9.55366L8.58744 12.9718C4.87108 16.0712 2.78916 17.8076 1.57616 19.8002H55.8031ZM35.0654 63.9997V64H22.3139V63.9997V44.0605C22.3139 44.0586 22.3139 44.0571 22.314 44.056C22.3141 44.0551 22.3141 44.0545 22.3142 44.0539C22.3143 44.0534 22.3144 44.0529 22.3145 44.0526C22.3146 44.0522 22.3148 44.052 22.3149 44.0517L22.3151 44.0513C22.3169 44.0472 22.3241 44.0331 22.343 44.0148C22.3804 43.9784 22.4436 43.9432 22.5419 43.9432H34.8374C34.9358 43.9432 34.9989 43.9784 35.0363 44.0148C35.0552 44.0331 35.0624 44.0472 35.0642 44.0513L35.0644 44.0517L35.0649 44.0531L35.0652 44.0552L35.0654 44.0605V63.9997Z" fill="#222222"/>
</svg>
