<svg width="262" height="184" viewBox="0 0 262 184" fill="none" xmlns="http://www.w3.org/2000/svg">
<g style="mix-blend-mode:multiply" opacity="0.1">
<path d="M0.632812 172.6C0.632812 166.469 27.2123 161.5 59.9946 161.5C92.7769 161.5 119.356 166.469 119.356 172.6C119.356 178.731 92.7769 183.7 59.9946 183.7C27.2123 183.7 0.632812 178.731 0.632812 172.6Z" fill="black"/>
</g>
<path d="M131.264 53.3583C131.219 53.3505 131.175 53.3455 131.131 53.3433L129.21 53.5503C128.53 53.7179 128.52 54.2868 128.501 54.2604L128.448 54.7488C128.448 54.7488 128.531 55.2437 128.625 55.3229L194.576 142.066L236.55 56.1237L131.264 53.3583Z" fill="url(#paint0_linear_471_4350)"/>
<path d="M120.644 35.3481C121.289 35.263 121.793 35.8092 121.404 36.2975C120.241 37.7573 115.412 43.7617 115.068 43.9483C114.51 44.2616 111.09 46.3816 111.09 46.3816L107.652 41.4434C107.652 41.4434 108.632 39.6389 108.811 39.4355C108.902 38.94 109.475 36.9845 109.48 36.9706C109.697 36.7182 112.558 32.8739 112.639 32.7619L117.13 28.0435C117.267 27.7959 117.481 27.5995 117.739 27.4837C117.998 27.3679 118.286 27.3389 118.562 27.4012L118.684 27.8697C119.417 28.0998 117.872 29.6994 117.728 30.158L115.397 34.5044C115.059 34.9383 113.335 38.9573 117.22 37.4332L120.644 35.3481Z" fill="#B4816B"/>
<path d="M94.6102 25.2759L92.6692 26.1359C92.7105 26.6512 92.7348 27.1264 92.7409 27.5695C92.7483 27.9134 92.7443 28.2343 92.7266 28.537C92.4826 33.3818 89.651 33.3915 85.5277 34.0043L85.1344 38.6398L72.8555 36.2511L75.0225 27.1848L74.8542 22.3472L77.8275 17.1726L85.4345 12.0989C85.4345 12.0989 85.5138 10.5925 88.1911 11.8515C90.8685 13.1105 91.5769 17.3961 91.8974 19.5577L94.6102 25.2759Z" fill="#DCA48C"/>
<path d="M107.658 41.4414L111.095 46.3795L91.3361 63.2515C90.4421 63.7064 89.4273 63.8675 88.4363 63.7118L71.0391 59.8981L72.8173 49.62L88.6098 52.7262L107.658 41.4414Z" fill="#00243F"/>
<path d="M89.6653 50.6157L89.6183 69.9939L87.1188 93.3308L62.8789 92.3989L64.1106 47.1229C64.1573 44.8608 64.9885 42.6852 66.462 40.9681L72.8712 32.8732L73.7699 30.6523L85.1502 38.6406L87.8773 43.6338C89.056 45.7717 89.6713 48.1744 89.6653 50.6157Z" fill="#0074B0"/>
<path d="M77.3818 11.1923C75.0497 10.9297 73.8803 12.0975 73.6742 13.1288C71.9934 13.5477 71.5353 14.7846 71.8945 16.0164C71.0594 17.0759 70.7301 18.0014 71.828 19.4647C70.8394 21.0817 71.6472 22.1881 72.4204 22.8178C71.7002 24.1082 72.3852 25.1745 73.1712 25.3947C72.9926 26.8951 73.6579 27.4384 74.9063 27.7542C77.5112 27.0531 77.5112 25.3468 77.3589 24.3265C77.3458 24.239 77.0846 22.4796 77.0716 22.3884C76.8825 21.0495 77.2396 20.3595 78.8424 20.0809C80.9245 19.7199 81.1592 21.1638 81.3614 22.3072L83.7638 21.9485L83.1899 18.1041C88.5934 17.2975 86.5808 13.7076 89.0895 13.3331C89.5191 13.269 89.8517 13.2353 89.8517 13.2353C89.8947 11.8687 89.0963 9.65086 86.3959 10.3443C85.633 9.93414 84.4919 8.81909 82.0235 10.2826C80.4136 10.0706 78.6393 9.92646 77.3818 11.1923Z" fill="#B55833"/>
<path d="M90.0147 21.1668L89.4758 21.2473C89.4266 21.2546 89.3764 21.2522 89.3282 21.2402C89.2799 21.2281 89.2345 21.2067 89.1946 21.1771C89.1546 21.1475 89.1209 21.1103 89.0953 21.0677C89.0697 21.025 89.0528 20.9778 89.0455 20.9286L88.9651 20.3899C88.9503 20.2906 88.9755 20.1895 89.0353 20.1088C89.095 20.0281 89.1843 19.9744 89.2836 19.9596L89.8225 19.8791C89.9218 19.8644 90.0229 19.8896 90.1036 19.9493C90.1843 20.009 90.2379 20.0984 90.2528 20.1976L90.3332 20.7363C90.3406 20.7855 90.3382 20.8357 90.3262 20.8839C90.3142 20.9322 90.2928 20.9776 90.2632 21.0176C90.2336 21.0576 90.1964 21.0913 90.1538 21.1169C90.1112 21.1425 90.0639 21.1595 90.0147 21.1668" fill="#00243F"/>
<path d="M65.4648 92.4961L83.4366 126.261L92.3615 163.252L99.0654 161.943C100.157 161.73 100.536 160.673 101.416 159.992L101.7 158.89C101.784 158.745 101.818 158.576 101.796 158.41L97.607 124.382C97.5474 123.544 97.3766 122.717 97.0992 121.923L87.1023 93.3295L65.4648 92.4961Z" fill="#00243F"/>
<path d="M63.9435 92.4375L66.9204 99.8244L66.0578 129.89L57.7846 162.681C57.7251 162.917 57.7229 163.163 57.7781 163.4C57.8334 163.637 57.9444 163.857 58.1021 164.042L59.3053 165.454C59.6958 165.468 64.9743 165.616 65.3302 165.454L68.1786 163.867C68.4579 163.712 68.6709 163.46 68.7777 163.158L79.6488 132.509C80.0605 131.509 80.3655 130.468 80.5589 129.403L87.1121 93.3298L63.9435 92.4375Z" fill="#0074B0"/>
<path d="M67.1848 39.7637L66.0859 41.0931C66.2157 40.9094 66.3489 40.7329 66.4895 40.5707L67.1848 39.7637Z" fill="#FF9E00"/>
<path d="M90.1919 53.8311L89.983 68.5201L89.9289 72.3068L89.8749 76.0934L89.8208 79.8801L89.4101 93.2505C89.3971 93.7138 89.2053 94.1542 88.8749 94.4792C88.5444 94.8043 88.101 94.9889 87.6375 94.9943C86.4773 95.0123 84.8236 95.0123 82.9609 94.9474L63.0189 94.2485C62.65 94.2355 62.2876 94.1478 61.9536 93.9907C61.6197 93.8335 61.321 93.6103 61.0758 93.3345C60.8306 93.0586 60.644 92.7359 60.5271 92.3858C60.4102 92.0357 60.3656 91.6655 60.3959 91.2977L61.4156 78.9722L61.729 75.1891L62.0425 71.4133L62.3523 67.6338L63.7142 48.7366C63.8944 46.3227 64.6474 43.1269 66.0777 41.0949L67.1766 39.7654L71.637 34.57C72.1195 34.0661 72.5294 33.4974 72.8548 32.8803L72.8584 32.873C72.8584 32.873 87.4429 43.2134 87.7312 43.4187C87.7312 43.4187 89.6551 45.3391 89.9541 52.3179L89.9505 52.5341C90.1174 52.9458 90.1994 53.3869 90.1919 53.8311Z" fill="#FF9E00"/>
<path d="M66.0745 41.0938C64.6441 43.1258 63.8911 46.3216 63.7109 48.7355L63.765 47.9753C64.1073 45.1002 64.5144 43.0609 65.9412 41.2559L66.0745 41.0938Z" fill="#FF9E00"/>
<path d="M72.8657 32.8789C72.5403 33.496 72.1304 34.0648 71.6478 34.5687L67.1875 39.7641L72.8657 32.8789Z" fill="#FF9E00"/>
<path d="M89.9913 68.5191L62.3606 67.6328L62.0508 71.4123L89.9372 72.3058L89.9913 68.5191Z" fill="white"/>
<path d="M89.8734 76.0918L61.7275 75.1875L61.4141 78.9705L89.8193 79.8785L89.8734 76.0918Z" fill="white"/>
<path d="M90.8574 64.1869L81.5244 46.3895C81.1033 45.639 80.6371 44.9147 80.1284 44.2206C79.3999 43.2202 78.3445 42.5061 77.145 42.2019C75.9455 41.8976 74.6773 42.0224 73.5601 42.5546C73.4654 42.6014 73.3762 42.6484 73.2939 42.6954C70.4236 44.3355 69.6658 48.1557 71.4684 50.9268L72.0617 51.8389L83.6386 71.1281C84.3001 72.895 86.2953 74.1505 87.6274 74.0697L90.1139 67.357L90.9969 64.2006" fill="#0074B0"/>
<path d="M91.0144 64.2021L110.19 63.3828L112.591 67.8927L87.6355 74.0856L87.3728 73.7234C84.8902 70.3014 87.016 65.5757 91.0144 64.2021V64.2021Z" fill="#0074B0"/>
<path d="M114.892 71.7945C113.821 71.4803 113.163 70.4317 113.431 69.4643L117.448 54.9391C117.529 54.7005 117.656 54.4803 117.823 54.2912C117.989 54.1021 118.191 53.9479 118.418 53.8375C118.644 53.727 118.89 53.6626 119.142 53.6478C119.393 53.633 119.645 53.6683 119.883 53.7515C120.954 54.0657 121.612 55.1143 121.344 56.0817L117.327 70.6069C117.246 70.8455 117.118 71.0657 116.952 71.2548C116.786 71.4438 116.583 71.5981 116.357 71.7085C116.131 71.819 115.885 71.8834 115.633 71.8982C115.382 71.9129 115.13 71.8777 114.892 71.7945Z" fill="#545454"/>
<path d="M132.641 60.1284L112.209 57.8502C111.654 57.7883 111.232 57.4141 111.295 57.0402L112.79 48.2674C112.853 47.8936 113.375 47.6802 113.92 47.8055L133.954 52.4192C134.437 52.5304 134.764 52.8704 134.708 53.2019L133.611 59.6393C133.555 59.9708 133.133 60.1833 132.641 60.1284Z" fill="#878787"/>
<path d="M132.731 60.1461L131.777 60.0492L133.11 52.2246L134.032 52.4369C134.471 52.5381 134.77 52.8479 134.718 53.1499L133.603 59.6993C133.552 59.998 133.175 60.1913 132.731 60.1461Z" fill="#CFCFCF"/>
<path d="M108.838 63.4396L114.249 61.5527L120.227 63.8815C120.48 63.9797 120.697 64.1531 120.848 64.3784C120.999 64.6037 121.077 64.8699 121.072 65.141L121.02 67.6957C121.015 67.9673 120.926 68.2308 120.766 68.4503C120.606 68.6699 120.383 68.8349 120.126 68.9232L114.455 70.866L108.73 68.9145L108.838 63.4396Z" fill="#DCA48C"/>
<path d="M117.505 164.302C117.505 164.302 117.523 162.383 116.493 161.65C115.462 160.918 114.04 160.95 113.309 161.089C112.578 161.228 110.626 161.716 110.626 161.716C110.488 162.63 110.457 163.556 110.532 164.477C110.634 165.089 110.791 165.691 111.002 166.274L111.123 167.04L117.378 164.882L117.505 164.302Z" fill="#545454"/>
<path d="M110.625 161.761C109.896 161.811 109.166 161.861 108.437 161.912C108.377 161.973 108.34 162.052 108.331 162.137C108.322 162.222 108.343 162.308 108.389 162.38C108.445 162.461 108.469 162.562 108.456 162.66C108.442 162.759 108.392 162.849 108.315 162.912C108.26 162.973 108.185 163.012 108.103 163.02C108.021 163.029 107.939 163.007 107.873 162.959C107.787 162.91 107.72 162.833 107.684 162.74C107.648 162.648 107.644 162.546 107.674 162.452C107.736 162.238 107.781 162.019 107.807 161.798C107.26 161.676 106.713 161.554 106.166 161.432C106.071 161.672 105.975 161.891 106.19 162.144C106.222 162.187 106.243 162.238 106.252 162.292C106.261 162.346 106.256 162.401 106.239 162.453C106.222 162.505 106.193 162.552 106.154 162.59C106.115 162.628 106.068 162.657 106.016 162.673C105.966 162.698 105.911 162.713 105.855 162.715C105.799 162.717 105.744 162.707 105.692 162.685C105.64 162.664 105.594 162.632 105.555 162.591C105.517 162.55 105.488 162.501 105.471 162.448C105.409 162.261 105.402 162.06 105.451 161.87C105.526 161.688 105.56 161.491 105.549 161.294C105.114 161.154 104.67 161.044 104.22 160.966C104.086 161.198 104.022 161.465 104.038 161.732C104.051 161.822 104.03 161.914 103.979 161.989C103.927 162.064 103.85 162.117 103.761 162.137C103.677 162.171 103.583 162.174 103.497 162.143C103.411 162.113 103.339 162.052 103.295 161.972C103.246 161.9 103.226 161.812 103.238 161.726C103.249 161.639 103.292 161.56 103.359 161.504C103.445 161.407 103.509 161.294 103.549 161.172C103.588 161.049 103.602 160.92 103.589 160.792L101.973 160.297C101.866 160.553 101.82 160.83 101.838 161.107C101.843 161.192 101.82 161.277 101.773 161.348C101.726 161.419 101.657 161.474 101.577 161.503C101.497 161.532 101.409 161.535 101.327 161.51C101.246 161.486 101.174 161.436 101.123 161.367C101.066 161.307 101.034 161.228 101.032 161.146C101.03 161.063 101.058 160.982 101.11 160.919C101.293 160.642 101.4 160.323 101.422 159.993C101.255 159.935 101.078 159.916 100.902 159.935C100.727 159.954 100.558 160.011 100.408 160.103C100.057 160.305 99.7202 160.53 99.4005 160.778C97.9963 161.767 96.3737 162.401 94.6712 162.627C94.2677 162.657 93.863 162.664 93.4588 162.648C93.3599 162.651 93.2616 162.664 93.1649 162.685C93.0355 162.693 92.9091 162.727 92.7935 162.785C92.6779 162.844 92.5755 162.925 92.4926 163.025C92.4097 163.125 92.3482 163.24 92.3117 163.365C92.2753 163.489 92.2647 163.62 92.2806 163.748C92.3034 164.538 92.3802 165.325 92.5107 166.104C92.6651 167.243 92.8813 168.373 93.1584 169.488C93.2218 169.769 93.3223 170.04 93.4573 170.294C95.786 169.572 98.1149 168.851 100.444 168.131C101.216 167.889 102.012 167.729 102.817 167.651C103.517 167.586 104.219 167.644 104.918 167.582C105.82 167.485 106.714 167.327 107.594 167.108C108.803 166.833 110.009 166.549 111.2 166.201C111.082 165.824 110.983 165.441 110.844 165.072C110.566 164.398 110.474 163.661 110.578 162.939C110.627 162.639 110.652 162.335 110.693 162.033C110.708 161.985 110.709 161.935 110.697 161.887C110.685 161.84 110.66 161.796 110.625 161.761Z" fill="#FFAC26"/>
<path d="M101.417 159.994C101.396 160.324 101.289 160.644 101.106 160.92C101.053 160.984 101.025 161.064 101.027 161.147C101.03 161.229 101.062 161.308 101.118 161.368C101.169 161.437 101.241 161.487 101.323 161.512C101.405 161.536 101.493 161.533 101.573 161.504C101.653 161.475 101.722 161.421 101.769 161.349C101.816 161.278 101.839 161.193 101.834 161.108C101.816 160.831 101.862 160.554 101.969 160.298C101.962 160.254 101.962 160.209 101.971 160.166C102.077 159.915 101.966 159.839 101.728 159.776C101.494 159.714 101.478 159.863 101.417 159.994Z" fill="black"/>
<path d="M105.54 161.294C105.551 161.49 105.517 161.687 105.442 161.869C105.394 162.06 105.401 162.261 105.462 162.448C105.48 162.501 105.508 162.549 105.547 162.59C105.585 162.631 105.631 162.664 105.683 162.685C105.735 162.706 105.79 162.716 105.846 162.714C105.902 162.712 105.957 162.698 106.007 162.673C106.059 162.657 106.107 162.628 106.145 162.59C106.184 162.552 106.213 162.505 106.23 162.453C106.247 162.401 106.252 162.346 106.243 162.292C106.235 162.238 106.213 162.187 106.181 162.143C105.966 161.891 106.062 161.672 106.157 161.432C106.164 161.255 106.28 161.046 105.953 161.003C105.756 160.977 105.612 160.938 105.621 161.204C105.623 161.265 105.577 161.273 105.54 161.294Z" fill="black"/>
<path d="M103.585 160.792C103.598 160.92 103.585 161.05 103.545 161.172C103.505 161.295 103.441 161.408 103.355 161.504C103.289 161.561 103.245 161.64 103.234 161.726C103.222 161.813 103.243 161.901 103.291 161.973C103.335 162.053 103.407 162.113 103.493 162.144C103.579 162.174 103.673 162.172 103.757 162.138C103.846 162.117 103.923 162.065 103.975 161.989C104.026 161.914 104.047 161.823 104.034 161.733C104.019 161.465 104.082 161.199 104.216 160.967C104.164 160.91 104.194 160.84 104.213 160.792C104.295 160.571 104.169 160.534 103.994 160.482C103.784 160.42 103.676 160.456 103.656 160.686C103.653 160.723 103.61 160.757 103.585 160.792Z" fill="black"/>
<path d="M107.81 161.798C107.783 162.02 107.739 162.238 107.677 162.452C107.647 162.547 107.65 162.649 107.686 162.741C107.722 162.833 107.789 162.911 107.875 162.959C107.942 163.008 108.024 163.029 108.105 163.021C108.187 163.012 108.263 162.974 108.317 162.913C108.394 162.849 108.444 162.759 108.458 162.661C108.472 162.562 108.448 162.462 108.391 162.38C108.345 162.308 108.325 162.223 108.333 162.138C108.342 162.053 108.38 161.973 108.439 161.912C108.418 161.889 108.405 161.86 108.402 161.829C108.398 161.798 108.404 161.767 108.419 161.739C108.502 161.55 108.418 161.505 108.242 161.436C107.832 161.274 107.93 161.653 107.81 161.798Z" fill="black"/>
<path d="M117.683 164.556L117.609 164.5L117.683 164.556Z" fill="#FF9E00"/>
<path d="M116.418 167.054L116.475 166.988C116.459 166.99 116.444 166.998 116.434 167.01C116.423 167.022 116.417 167.038 116.418 167.054Z" fill="#FF9E00"/>
<path d="M113.341 168.07L113.386 167.998C113.371 168.002 113.358 168.011 113.349 168.025C113.341 168.038 113.338 168.054 113.341 168.07Z" fill="#FF9E00"/>
<path d="M117.242 166.967L117.295 167.026C117.296 167.018 117.295 167.011 117.293 167.004C117.29 166.997 117.286 166.99 117.281 166.985C117.276 166.979 117.27 166.975 117.264 166.972C117.257 166.969 117.25 166.967 117.242 166.967Z" fill="#FF9E00"/>
<path d="M96.9669 168.214C96.9669 168.214 96.8337 166.371 95.2044 165.781C94.2869 165.424 93.2796 165.368 92.3281 165.621C92.3281 165.621 92.8036 168.497 92.8848 169.042C92.966 169.586 93.4095 171.158 93.4095 171.158L97.2932 169.691L96.9669 168.214Z" fill="#545454"/>
<path d="M111.202 166.2C110.011 166.547 108.805 166.831 107.596 167.107C106.716 167.326 105.822 167.484 104.92 167.581C104.221 167.643 103.519 167.585 102.819 167.65C102.013 167.728 101.218 167.888 100.446 168.129C98.1155 168.845 95.7866 169.567 93.4593 170.293C93.2165 170.343 93.1649 170.451 93.2477 170.704C93.6389 171.898 94.0043 173.101 94.3788 174.301L94.4167 174.336C94.677 174.282 94.9336 174.21 95.1846 174.123C95.3577 174.079 95.2764 173.939 95.3019 173.839C95.293 173.808 95.2931 173.775 95.3023 173.744C95.3114 173.713 95.3293 173.685 95.3537 173.664L95.4094 173.567L95.4682 173.502L95.4689 173.501C95.5227 173.428 95.5995 173.374 95.6872 173.35C95.7749 173.325 95.8683 173.33 95.9525 173.365C95.9559 173.363 95.9598 173.361 95.9639 173.36C95.9681 173.358 95.9725 173.358 95.9767 173.359C95.981 173.36 95.985 173.361 95.9886 173.364C95.9922 173.366 95.9953 173.369 95.9977 173.373C96.0159 173.368 96.035 173.37 96.0525 173.376C96.0699 173.383 96.0849 173.395 96.0952 173.411L96.1411 173.44L96.21 173.496C96.2897 173.56 96.3513 173.644 96.3884 173.739C96.9215 173.57 97.4654 173.435 97.9853 173.225C97.9409 173.097 97.9474 172.956 98.0034 172.832C98.0594 172.709 98.1606 172.611 98.2864 172.559C98.4096 172.499 98.5515 172.49 98.6811 172.535C98.8108 172.579 98.9176 172.673 98.9784 172.796C99.0528 172.911 99.1207 172.902 99.222 172.87C99.6169 172.746 100.011 172.618 100.409 172.505C100.444 172.502 100.477 172.492 100.508 172.475C100.538 172.458 100.564 172.434 100.585 172.406C100.605 172.378 100.62 172.346 100.627 172.312C100.635 172.278 100.635 172.243 100.628 172.209C100.622 172.095 100.657 171.983 100.727 171.892C100.796 171.801 100.895 171.738 101.007 171.713C101.108 171.669 101.221 171.663 101.326 171.694C101.432 171.726 101.522 171.795 101.582 171.887C101.707 172.095 101.842 172.078 102.019 172.004C102.094 171.973 102.174 171.955 102.251 171.931C102.68 171.797 102.68 171.797 102.544 171.357C102.439 171.022 102.335 170.687 102.218 170.309C102.835 170.448 103.46 170.548 104.089 170.606C105.155 170.722 106.234 170.643 107.272 170.374C107.396 170.338 107.506 170.316 107.49 170.133C107.473 170.011 107.503 169.887 107.574 169.786C107.644 169.685 107.751 169.614 107.871 169.588C107.987 169.544 108.114 169.544 108.23 169.588C108.345 169.632 108.44 169.716 108.497 169.826C108.508 169.85 108.523 169.871 108.542 169.889C108.561 169.907 108.583 169.92 108.608 169.929C108.633 169.937 108.659 169.941 108.685 169.938C108.711 169.936 108.736 169.928 108.759 169.916C109.247 169.758 109.737 169.608 110.228 169.458C110.34 169.424 110.409 169.393 110.394 169.241C110.377 169.119 110.405 168.994 110.474 168.892C110.543 168.79 110.648 168.717 110.768 168.688C110.882 168.643 111.01 168.641 111.126 168.683C111.241 168.726 111.337 168.809 111.396 168.918C111.478 169.056 111.555 169.05 111.678 169.01C112.064 168.885 112.448 168.757 112.839 168.652C113.118 168.577 113.378 168.513 113.32 168.135C113.316 168.114 113.342 168.089 113.355 168.065C113.352 168.051 113.355 168.035 113.363 168.023C113.371 168.01 113.383 168.001 113.398 167.997L113.471 167.912C113.522 167.845 113.592 167.795 113.672 167.77C113.752 167.745 113.838 167.745 113.918 167.77C113.95 167.767 113.981 167.77 114.011 167.78C114.042 167.79 114.069 167.807 114.092 167.828L114.161 167.873L114.16 167.872C114.183 167.873 114.205 167.882 114.222 167.898C114.239 167.914 114.25 167.936 114.252 167.959C114.255 167.959 114.257 167.959 114.26 167.96C114.262 167.961 114.264 167.963 114.266 167.965C114.267 167.967 114.269 167.969 114.269 167.971C114.27 167.974 114.27 167.977 114.269 167.979C114.342 168.016 114.351 168.095 114.386 168.156L116.337 167.549C116.32 167.424 116.267 167.296 116.362 167.177L116.429 167.051C116.428 167.036 116.434 167.021 116.444 167.009C116.454 166.997 116.468 166.99 116.483 166.988C116.483 166.982 116.485 166.976 116.489 166.972C116.492 166.967 116.498 166.964 116.504 166.963C116.557 166.899 116.629 166.851 116.71 166.828C116.791 166.805 116.877 166.807 116.957 166.834C116.989 166.832 117.022 166.836 117.053 166.847C117.084 166.858 117.112 166.875 117.135 166.898C117.156 166.897 117.177 166.903 117.195 166.915C117.212 166.928 117.225 166.945 117.231 166.965L117.22 166.982L117.232 166.966C117.24 166.966 117.246 166.968 117.253 166.971C117.259 166.974 117.265 166.978 117.27 166.984C117.275 166.989 117.278 166.995 117.281 167.002C117.283 167.009 117.284 167.016 117.283 167.023C117.374 167.213 117.507 167.225 117.693 167.148C117.886 167.079 118.083 167.02 118.283 166.973L118.491 166.882L118.502 166.82C118.467 166.753 118.454 166.676 118.467 166.601L118.404 166.287C118.351 166.189 118.327 166.078 118.333 165.967L118.142 165.289L118.089 165.19C118.032 165.138 117.998 165.065 117.995 164.988L117.922 164.847L117.748 164.616L117.69 164.553L117.62 164.5L117.512 164.453L117.355 164.429L117.339 164.435L117.324 164.426L117.273 164.441C115.262 165.073 113.238 165.659 111.202 166.2Z" fill="black"/>
<path d="M81.7014 173.195C81.7014 173.195 82.2882 171.364 81.5197 170.358C80.7513 169.352 79.382 168.961 78.6415 168.877C77.901 168.793 75.889 168.682 75.889 168.682C75.4862 169.515 75.1815 170.391 74.9808 171.294C74.8964 171.91 74.8684 172.532 74.8969 173.153L74.7852 173.921L81.408 173.712L81.7014 173.195Z" fill="#545454"/>
<path d="M75.8903 168.724C75.1779 168.556 74.4655 168.388 73.7531 168.219C73.6778 168.26 73.6185 168.325 73.5849 168.404C73.5513 168.482 73.5453 168.57 73.5679 168.653C73.598 168.748 73.5912 168.851 73.5489 168.941C73.5067 169.031 73.4321 169.102 73.3399 169.14C73.2692 169.182 73.1855 169.197 73.1048 169.181C73.0242 169.165 72.9523 169.119 72.903 169.054C72.835 168.981 72.7939 168.888 72.7867 168.789C72.7795 168.69 72.8067 168.591 72.8635 168.51C72.9863 168.323 73.0937 168.127 73.1846 167.924C72.6975 167.645 72.2105 167.366 71.7234 167.087C71.5613 167.288 71.4044 167.47 71.535 167.775C71.5528 167.826 71.558 167.881 71.5503 167.936C71.5425 167.99 71.522 168.041 71.4904 168.085C71.4588 168.13 71.417 168.166 71.3685 168.191C71.32 168.217 71.2662 168.23 71.2116 168.23C71.1563 168.239 71.0997 168.236 71.0456 168.222C70.9914 168.207 70.9411 168.181 70.8979 168.145C70.8547 168.11 70.8198 168.065 70.7955 168.014C70.7712 167.964 70.758 167.909 70.757 167.853C70.7537 167.656 70.8065 167.462 70.9093 167.294C71.0355 167.142 71.1259 166.964 71.1737 166.772C70.7994 166.509 70.4071 166.272 69.9997 166.064C69.8026 166.247 69.6632 166.483 69.5986 166.743C69.5846 166.833 69.5372 166.914 69.4659 166.971C69.3946 167.028 69.3046 167.055 69.2138 167.048C69.1229 167.056 69.0324 167.03 68.9593 166.976C68.8862 166.921 68.8356 166.842 68.8173 166.752C68.7919 166.669 68.7983 166.579 68.8351 166.5C68.872 166.421 68.9367 166.358 69.017 166.323C69.1274 166.257 69.2228 166.168 69.2971 166.062C69.3713 165.957 69.4227 165.837 69.4481 165.71L68.0498 164.758C67.8715 164.971 67.745 165.223 67.6802 165.493C67.6595 165.576 67.6126 165.65 67.5465 165.704C67.4804 165.759 67.3985 165.79 67.3131 165.794C67.2276 165.798 67.1431 165.775 67.072 165.727C67.001 165.68 66.9471 165.61 66.9185 165.53C66.8826 165.455 66.8751 165.37 66.8974 165.291C66.9197 165.211 66.9704 165.142 67.0398 165.097C67.2963 164.887 67.4936 164.613 67.6121 164.303C67.4696 164.199 67.3059 164.128 67.1327 164.094C66.9595 164.061 66.781 164.066 66.6099 164.109C66.2143 164.197 65.8254 164.313 65.446 164.456C63.8098 164.985 62.0697 165.11 60.3744 164.822C59.9798 164.73 59.5906 164.617 59.2087 164.482C59.113 164.456 59.0153 164.439 58.9166 164.43C58.7906 164.399 58.6595 164.394 58.5316 164.416C58.4036 164.438 58.2815 164.485 58.1727 164.556C58.0639 164.627 57.9707 164.719 57.899 164.827C57.8272 164.935 57.7784 165.057 57.7555 165.185C57.5431 165.947 57.3831 166.723 57.2769 167.507C57.0868 168.642 56.9585 169.786 56.8928 170.936C56.8702 171.223 56.886 171.512 56.9398 171.795C59.3811 171.795 61.8225 171.791 64.2638 171.797C65.074 171.796 65.8823 171.878 66.6757 172.042C67.3645 172.188 68.0192 172.452 68.7055 172.6C69.597 172.774 70.4992 172.888 71.4061 172.94C72.644 173.035 73.8818 173.121 75.1235 173.141C75.1231 172.746 75.1415 172.35 75.118 171.956C75.0524 171.229 75.183 170.497 75.4962 169.837C75.6323 169.564 75.7466 169.281 75.8753 169.004C75.9029 168.963 75.9189 168.916 75.9216 168.866C75.9242 168.817 75.9134 168.768 75.8903 168.724Z" fill="#FFAC26"/>
<path d="M67.6102 164.305C67.4916 164.614 67.2944 164.888 67.0379 165.098C66.9684 165.143 66.9178 165.212 66.8954 165.292C66.8731 165.371 66.8806 165.456 66.9165 165.531C66.9452 165.612 66.999 165.681 67.07 165.728C67.1411 165.776 67.2256 165.8 67.3111 165.795C67.3965 165.791 67.4784 165.76 67.5445 165.705C67.6106 165.651 67.6575 165.577 67.6782 165.494C67.743 165.224 67.8695 164.972 68.0478 164.759C68.0536 164.715 68.0673 164.673 68.0885 164.634C68.2641 164.425 68.181 164.32 67.9718 164.189C67.766 164.06 67.7074 164.198 67.6102 164.305Z" fill="black"/>
<path d="M71.1669 166.771C71.1191 166.963 71.0287 167.141 70.9025 167.293C70.7997 167.461 70.7469 167.655 70.7501 167.852C70.7512 167.908 70.7644 167.963 70.7887 168.014C70.813 168.064 70.8479 168.109 70.8911 168.145C70.9342 168.181 70.9846 168.207 71.0387 168.221C71.0929 168.236 71.1495 168.239 71.2048 168.229C71.2594 168.229 71.3132 168.216 71.3617 168.191C71.4102 168.166 71.4519 168.129 71.4836 168.085C71.5152 168.04 71.5357 167.989 71.5435 167.935C71.5512 167.881 71.546 167.826 71.5281 167.774C71.3976 167.469 71.5544 167.288 71.7166 167.087C71.7757 166.919 71.9486 166.754 71.6478 166.616C71.4679 166.533 71.3415 166.453 71.2715 166.71C71.2555 166.768 71.2089 166.763 71.1669 166.771Z" fill="black"/>
<path d="M69.4469 165.71C69.4215 165.836 69.3701 165.956 69.2958 166.062C69.2216 166.167 69.1262 166.256 69.0157 166.323C68.9355 166.357 68.8707 166.42 68.8339 166.499C68.7971 166.578 68.7907 166.668 68.8161 166.752C68.8344 166.841 68.885 166.921 68.958 166.975C69.0311 167.03 69.1217 167.056 69.2126 167.048C69.3034 167.055 69.3934 167.027 69.4647 166.97C69.536 166.914 69.5834 166.833 69.5974 166.743C69.662 166.482 69.8014 166.246 69.9985 166.064C69.9657 165.994 70.0158 165.936 70.0474 165.895C70.1921 165.708 70.0818 165.635 69.9303 165.534C69.7474 165.413 69.6333 165.415 69.5465 165.629C69.5324 165.664 69.481 165.683 69.4469 165.71Z" fill="black"/>
<path d="M73.1725 167.923C73.0815 168.126 72.9741 168.323 72.8513 168.509C72.7945 168.59 72.7674 168.689 72.7746 168.788C72.7818 168.887 72.8228 168.98 72.8908 169.053C72.9401 169.118 73.012 169.164 73.0927 169.18C73.1733 169.196 73.257 169.181 73.3277 169.139C73.4199 169.101 73.4945 169.03 73.5368 168.94C73.579 168.85 73.5858 168.747 73.5558 168.652C73.5331 168.569 73.5391 168.481 73.5727 168.403C73.6063 168.324 73.6656 168.259 73.7409 168.218C73.7277 168.19 73.7238 168.158 73.7295 168.128C73.7353 168.097 73.7506 168.069 73.7731 168.047C73.9079 167.891 73.8412 167.823 73.6935 167.704C73.3496 167.428 73.3305 167.82 73.1725 167.923Z" fill="black"/>
<path d="M81.812 173.494L81.7578 173.418L81.812 173.494Z" fill="#FF9E00"/>
<path d="M79.8594 175.506L79.9333 175.46C79.9174 175.457 79.901 175.46 79.8873 175.469C79.8736 175.477 79.8636 175.491 79.8594 175.506Z" fill="#FF9E00"/>
<path d="M76.6289 175.565L76.6932 175.51C76.6775 175.509 76.662 175.514 76.65 175.525C76.6381 175.535 76.6305 175.549 76.6289 175.565Z" fill="#FF9E00"/>
<path d="M80.6484 175.662L80.6817 175.734C80.6844 175.727 80.6857 175.72 80.6856 175.713C80.6854 175.705 80.6837 175.698 80.6806 175.691C80.6774 175.684 80.673 175.678 80.6675 175.673C80.662 175.668 80.6555 175.665 80.6484 175.662Z" fill="#FF9E00"/>
<path d="M60.9083 170.847C60.9083 170.847 61.3275 169.044 59.9442 167.996C59.1724 167.383 58.2257 167.03 57.2406 166.99C57.2406 166.99 56.8424 169.882 56.7586 170.427C56.6747 170.972 56.6328 172.607 56.6328 172.607L60.7825 172.356L60.9083 170.847Z" fill="#545454"/>
<path d="M75.1215 173.141C73.8798 173.121 72.6419 173.035 71.404 172.94C70.4972 172.888 69.5949 172.774 68.7035 172.6C68.0172 172.452 67.3625 172.188 66.6736 172.042C65.8802 171.878 65.072 171.796 64.2618 171.797C61.8204 171.791 59.3791 171.795 56.9377 171.795C56.6907 171.77 56.6092 171.859 56.6134 172.125C56.6334 173.384 56.6262 174.642 56.6287 175.901L56.6546 175.946C56.9197 175.971 57.1862 175.979 57.4523 175.969C57.6307 175.979 57.5946 175.821 57.6487 175.733C57.6493 175.7 57.6592 175.669 57.6772 175.642C57.6951 175.615 57.7204 175.594 57.7501 175.581L57.8321 175.505L57.9076 175.46L57.9085 175.459C57.9817 175.405 58.071 175.377 58.1622 175.379C58.2534 175.382 58.3411 175.415 58.4113 175.473C58.4154 175.471 58.4197 175.47 58.424 175.471C58.4283 175.471 58.4325 175.472 58.4363 175.474C58.4402 175.476 58.4436 175.479 58.4464 175.482C58.4491 175.485 58.4512 175.489 58.4524 175.493C58.4711 175.494 58.489 175.501 58.5037 175.513C58.5183 175.525 58.529 175.541 58.5343 175.559L58.5694 175.601L58.6188 175.674C58.6761 175.759 58.7102 175.857 58.7175 175.959C59.2773 175.956 59.8376 175.988 60.397 175.942C60.4364 175.606 60.6031 175.418 60.8826 175.394C61.0182 175.373 61.1566 175.407 61.2674 175.487C61.3783 175.568 61.4527 175.69 61.4744 175.825C61.5113 175.958 61.5789 175.969 61.6853 175.969C62.0998 175.967 62.5146 175.961 62.9289 175.972C62.9629 175.979 62.9981 175.979 63.0321 175.972C63.0661 175.964 63.0982 175.95 63.1263 175.929C63.1543 175.909 63.1777 175.882 63.1948 175.852C63.212 175.822 63.2225 175.788 63.2257 175.754C63.2545 175.643 63.3214 175.546 63.4147 175.479C63.508 175.413 63.6217 175.382 63.7358 175.391C63.8453 175.379 63.9554 175.407 64.0466 175.468C64.1378 175.53 64.2042 175.622 64.2338 175.728C64.2924 175.965 64.4259 175.987 64.6178 175.97C64.6982 175.962 64.7799 175.968 64.861 175.968C65.311 175.968 65.3109 175.968 65.3108 175.507C65.3106 175.155 65.3107 174.804 65.3107 174.407C65.8589 174.724 66.427 175.004 67.0116 175.247C67.997 175.674 69.052 175.918 70.1249 175.968C70.2541 175.971 70.3662 175.983 70.4048 175.803C70.425 175.681 70.4904 175.571 70.588 175.495C70.6857 175.419 70.8083 175.383 70.9315 175.394C71.0549 175.386 71.1767 175.424 71.274 175.5C71.3713 175.577 71.4374 175.686 71.4596 175.807C71.4947 175.944 71.557 175.972 71.6828 175.971C72.1964 175.965 72.7102 175.967 73.2239 175.969C73.341 175.97 73.4167 175.96 73.4474 175.811C73.4665 175.689 73.5306 175.578 73.627 175.501C73.7234 175.423 73.8452 175.385 73.9686 175.393C74.0917 175.383 74.214 175.419 74.3121 175.494C74.4103 175.569 74.4775 175.677 74.5009 175.799C74.5388 175.955 74.614 175.972 74.7439 175.97C75.1494 175.966 75.5554 175.957 75.9604 175.972C76.2494 175.984 76.5173 175.999 76.5731 175.621C76.5762 175.6 76.6088 175.583 76.6276 175.564C76.6291 175.549 76.6364 175.535 76.6478 175.526C76.6593 175.516 76.6741 175.511 76.6892 175.511L76.7844 175.452C76.8527 175.403 76.9345 175.376 77.0186 175.376C77.1027 175.375 77.1849 175.401 77.2538 175.449C77.285 175.455 77.3145 175.467 77.3403 175.486C77.366 175.504 77.3874 175.528 77.4029 175.556L77.4556 175.62L77.4546 175.618C77.4767 175.626 77.4951 175.641 77.5067 175.662C77.5182 175.682 77.522 175.706 77.5174 175.729C77.5199 175.729 77.5222 175.73 77.5242 175.732C77.5262 175.734 77.5277 175.736 77.5287 175.738C77.5298 175.74 77.5302 175.743 77.5301 175.746C77.5299 175.748 77.5292 175.751 77.5279 175.753C77.5863 175.81 77.5714 175.887 77.5867 175.957L79.6333 175.955C79.6545 175.83 79.6408 175.691 79.7669 175.607L79.8685 175.506C79.8726 175.491 79.8821 175.478 79.8953 175.47C79.9084 175.462 79.9241 175.459 79.9393 175.462C79.9407 175.456 79.9443 175.451 79.9492 175.448C79.9542 175.444 79.9602 175.443 79.966 175.444C80.0365 175.398 80.1193 175.374 80.2036 175.376C80.2879 175.378 80.3695 175.405 80.4378 175.455C80.4697 175.462 80.4998 175.476 80.5259 175.495C80.552 175.515 80.5737 175.54 80.5893 175.569C80.6099 175.574 80.6282 175.586 80.6412 175.603C80.6542 175.62 80.6614 175.64 80.6615 175.662L80.6456 175.674L80.6622 175.663C80.669 175.665 80.6752 175.669 80.6805 175.674C80.6858 175.678 80.69 175.684 80.693 175.691C80.696 175.697 80.6976 175.704 80.6978 175.711C80.698 175.718 80.6967 175.725 80.6941 175.732C80.725 175.941 80.8484 175.991 81.0487 175.973C81.2542 175.965 81.46 175.967 81.6652 175.981L81.8913 175.955L81.9203 175.899C81.9061 175.825 81.9171 175.747 81.9517 175.68L81.9839 175.36C81.9629 175.251 81.9725 175.138 82.0115 175.033L82.0293 174.328L82.008 174.218C81.9694 174.151 81.9587 174.072 81.9782 173.997L81.9504 173.841L81.852 173.567L81.8159 173.491L81.764 173.418L81.6752 173.342L81.5318 173.273L81.5142 173.274L81.5031 173.26L81.4496 173.26C79.3393 173.268 77.23 173.228 75.1215 173.141Z" fill="black"/>
<path d="M126.246 11.2072L108.594 30.0657C108.322 30.3563 108.337 30.8123 108.628 31.0842L119.802 41.5433C120.092 41.8153 120.548 41.8002 120.82 41.5097L138.472 22.6511C138.744 22.3606 138.729 21.9046 138.438 21.6326L127.264 11.1735C126.974 10.9016 126.518 10.9166 126.246 11.2072Z" fill="#CFCFCF"/>
<path d="M116.888 22.9397L110.977 29.2552C110.705 29.5457 110.72 30.0017 111.01 30.2737L120.525 39.179C120.815 39.4509 121.271 39.4359 121.543 39.1453L127.454 32.8298C127.726 32.5393 127.711 32.0833 127.421 31.8113L117.907 22.906C117.616 22.634 117.16 22.6491 116.888 22.9397Z" stroke="#545454" stroke-width="0.5" stroke-miterlimit="10"/>
<path d="M118.723 20.9746L129.289 30.8648" stroke="#545454" stroke-width="0.5" stroke-miterlimit="10"/>
<path d="M120.082 19.5371L130.648 29.4273" stroke="#545454" stroke-width="0.5" stroke-miterlimit="10"/>
<path d="M121.414 18.0996L131.98 27.9898" stroke="#545454" stroke-width="0.5" stroke-miterlimit="10"/>
<path d="M122.754 16.6641L133.32 26.5542" stroke="#545454" stroke-width="0.5" stroke-miterlimit="10"/>
<path d="M124.113 15.2246L134.68 25.1148" stroke="#545454" stroke-width="0.5" stroke-miterlimit="10"/>
<path d="M125.453 13.7891L136.019 23.6792" stroke="#545454" stroke-width="0.5" stroke-miterlimit="10"/>
<path d="M117.22 37.4318L120.644 35.3467C121.289 35.2616 121.793 35.8078 121.404 36.2962C120.241 37.756 115.412 43.7604 115.068 43.9469C114.51 44.2602 111.09 46.3802 111.09 46.3802L107.652 41.4421C107.652 41.4421 108.632 39.6376 108.811 39.4342C108.902 38.9387 109.475 36.9832 109.48 36.9693" fill="#B4816B"/>
<path d="M94.1585 13.7971L68.9629 23.162L69.195 21.5982C67.1705 15.326 68.3092 11.3079 72.7312 8.55212C73.4701 8.09786 74.2524 7.71825 75.0665 7.4189L77.3059 6.58604C78.3141 6.19808 79.3677 5.94032 80.4412 5.81899C85.0596 5.33178 88.0694 7.60044 90.0149 11.4935C90.9722 11.7691 92.9087 12.4678 94.1582 12.9248C94.2468 12.9582 94.3232 13.0178 94.3771 13.0957C94.431 13.1736 94.4599 13.2661 94.46 13.3608C94.46 13.4555 94.4312 13.548 94.3773 13.626C94.3235 13.7039 94.2471 13.7636 94.1585 13.7971" fill="#FF9E00"/>
<path d="M90.0019 11.4712L86.1905 15.5865L86.2 15.6002L91.4764 11.9484C91.4764 11.9484 91.0416 11.7856 90.0019 11.4712" fill="#FF6D00"/>
<path d="M90.2041 34.1188C89.9274 34.4091 89.5916 34.6367 89.2194 34.7863C88.8472 34.9358 88.4473 35.0037 88.0466 34.9855C87.912 34.9792 87.7779 34.9662 87.6446 34.9465C86.8908 34.7926 86.1401 34.2639 85.4121 33.4766C86.2164 33.4381 87.0163 33.336 87.8044 33.1713C87.8999 33.1476 87.9912 33.1232 88.0833 33.0945C88.1782 33.146 88.2824 33.178 88.3898 33.1888C88.4973 33.1997 88.6057 33.189 88.709 33.1576C89.1507 33.0019 89.2756 32.8481 89.3439 32.5773C89.3439 32.5773 90.3285 32.2065 90.4352 32.1425C90.653 32.7697 90.777 33.3221 90.2041 34.1188Z" fill="#BFC8CF"/>
<path d="M88.0794 33.0959C87.9873 33.1246 87.896 33.1491 87.8006 33.1727C87.0124 33.3374 86.2125 33.4395 85.4082 33.478C82.4175 30.2697 80.0221 21.4559 79.1337 18.3274L81.032 17.7121C82.9773 24.56 86.1966 32.2799 88.0794 33.0959Z" fill="#BFC8CF"/>
<path d="M76.4977 20.3652L84.4388 17.4139L80.9031 12.6169L76.041 14.4232L76.4977 20.3652Z" fill="#FFC566"/>
<defs>
<linearGradient id="paint0_linear_471_4350" x1="130.616" y1="54.9904" x2="218.828" y2="97.7258" gradientUnits="userSpaceOnUse">
<stop stop-color="#91D8F2"/>
<stop offset="1" stop-color="#E5F6FD" stop-opacity="0"/>
</linearGradient>
</defs>
</svg>
