<svg width="231" height="176" viewBox="0 0 231 176" fill="none" xmlns="http://www.w3.org/2000/svg">
<path d="M203.174 152.451H164.934V159.668H203.174V152.451Z" fill="#767676"/>
<path d="M210.233 152.451H203.18V159.668H210.233V152.451Z" fill="#FFCE7F"/>
<g style="mix-blend-mode:multiply" opacity="0.1">
<path d="M0 163.5C0 157.148 46.7903 152 104.5 152C162.21 152 209 157.148 209 163.5C209 169.852 162.21 175 104.5 175C46.7903 175 0 169.852 0 163.5Z" fill="black"/>
</g>
<path d="M203.228 150.652H105.586V152.452H203.228V150.652Z" fill="#FFE2B2"/>
<path d="M203.228 159.668H105.586V161.468H203.228V159.668Z" fill="#FFE2B2"/>
<path d="M112.64 152.451H105.586V159.668H112.64V152.451Z" fill="#FFCE7F"/>
<path d="M150.885 152.451H112.645V159.668H150.885V152.451Z" fill="#767676"/>
<path d="M157.936 152.451H150.883V159.668H157.936V152.451Z" fill="#FFCE7F"/>
<path d="M202.829 74H105.699V76.3853H105.699V96.2852H105.699V98.6705H105.699V98.6718H108.2V98.6705H200.325V98.6718H202.83V74H202.829Z" fill="#FFE2B2"/>
<path d="M200.324 76.3848H108.199V96.2847H200.324V76.3848Z" fill="#FFCE7F"/>
<path d="M121.874 82.925H117.732L113.59 82.9246V74H121.874V82.925Z" fill="#9C5959"/>
<path d="M121.317 80.0254H117.73V80.093H121.317V80.0254Z" fill="#767676"/>
<path d="M121.317 80.4688H117.73V80.5364H121.317V80.4688Z" fill="#767676"/>
<path d="M121.317 80.9141H117.73V80.9817H121.317V80.9141Z" fill="#767676"/>
<path d="M121.317 81.3594H117.73V81.427H121.317V81.3594Z" fill="#767676"/>
<path d="M121.317 81.8027H117.73V81.8703H121.317V81.8027Z" fill="#767676"/>
<path d="M121.317 82.25H117.73V82.3176H121.317V82.25Z" fill="#767676"/>
<path d="M121.874 82.925H117.732L113.59 82.9246V74H121.874V82.925Z" fill="#9C5959"/>
<path d="M121.317 80.0254H117.73V80.093H121.317V80.0254Z" fill="#767676"/>
<path d="M121.317 80.4688H117.73V80.5364H121.317V80.4688Z" fill="#767676"/>
<path d="M121.317 80.9141H117.73V80.9817H121.317V80.9141Z" fill="#767676"/>
<path d="M121.317 81.3594H117.73V81.427H121.317V81.3594Z" fill="#767676"/>
<path d="M121.317 81.8027H117.73V81.8703H121.317V81.8027Z" fill="#767676"/>
<path d="M121.317 82.25H117.73V82.3176H121.317V82.25Z" fill="#767676"/>
<path d="M202.829 99.4746H105.699V101.86H105.699V121.76H105.699V124.145H105.699V124.146H108.2V124.145H200.325V124.146H202.83V99.4746H202.829Z" fill="#FFE2B2"/>
<path d="M200.324 101.857H108.199V121.757H200.324V101.857Z" fill="#FFCE7F"/>
<path d="M121.874 108.399H117.732H113.59V99.4746H121.874V108.399Z" fill="#9C5959"/>
<path d="M121.317 105.498H117.73V105.566H121.317V105.498Z" fill="#767676"/>
<path d="M121.317 105.941H117.73V106.009H121.317V105.941Z" fill="#767676"/>
<path d="M121.317 106.387H117.73V106.454H121.317V106.387Z" fill="#767676"/>
<path d="M121.317 106.832H117.73V106.9H121.317V106.832Z" fill="#767676"/>
<path d="M121.317 107.275H117.73V107.343H121.317V107.275Z" fill="#767676"/>
<path d="M121.317 107.721H117.73V107.788H121.317V107.721Z" fill="#767676"/>
<path d="M121.874 108.399H117.732H113.59V99.4746H121.874V108.399Z" fill="#9C5959"/>
<path d="M121.317 105.498H117.73V105.566H121.317V105.498Z" fill="#767676"/>
<path d="M121.317 105.941H117.73V106.009H121.317V105.941Z" fill="#767676"/>
<path d="M121.317 106.387H117.73V106.454H121.317V106.387Z" fill="#767676"/>
<path d="M121.317 106.832H117.73V106.9H121.317V106.832Z" fill="#767676"/>
<path d="M121.317 107.275H117.73V107.343H121.317V107.275Z" fill="#767676"/>
<path d="M121.317 107.721H117.73V107.788H121.317V107.721Z" fill="#767676"/>
<path d="M202.829 124.945H105.699V127.331H105.699V147.23H105.699V149.616H105.699V149.617H108.2V149.616H200.325V149.617H202.83V124.945H202.829Z" fill="#FFE2B2"/>
<path d="M200.324 127.332H108.199V147.232H200.324V127.332Z" fill="#FFCE7F"/>
<path d="M121.874 133.872H117.732H113.59V124.947H121.874V133.872Z" fill="#9C5959"/>
<path d="M121.317 130.971H117.73V131.038H121.317V130.971Z" fill="#767676"/>
<path d="M121.317 131.416H117.73V131.484H121.317V131.416Z" fill="#767676"/>
<path d="M121.317 131.859H117.73V131.927H121.317V131.859Z" fill="#767676"/>
<path d="M121.317 132.305H117.73V132.372H121.317V132.305Z" fill="#767676"/>
<path d="M121.317 132.75H117.73V132.818H121.317V132.75Z" fill="#767676"/>
<path d="M121.317 133.193H117.73V133.261H121.317V133.193Z" fill="#767676"/>
<path d="M121.874 133.872H117.732H113.59V124.947H121.874V133.872Z" fill="#9C5959"/>
<path d="M121.317 130.971H117.73V131.038H121.317V130.971Z" fill="#767676"/>
<path d="M121.317 131.416H117.73V131.484H121.317V131.416Z" fill="#767676"/>
<path d="M121.317 131.859H117.73V131.927H121.317V131.859Z" fill="#767676"/>
<path d="M121.317 132.305H117.73V132.372H121.317V132.305Z" fill="#767676"/>
<path d="M121.317 132.75H117.73V132.818H121.317V132.75Z" fill="#767676"/>
<path d="M121.317 133.193H117.73V133.261H121.317V133.193Z" fill="#767676"/>
<path d="M114.149 73.9644L113.293 73.6064L116.727 66.7344L117.521 67.1901C117.9 67.4075 118.089 67.7782 117.956 68.0434L115.082 73.7955C114.951 74.0579 114.548 74.1309 114.149 73.9644Z" fill="#CFCFCF"/>
<path d="M107.381 67.4998C107.337 67.4845 107.292 67.472 107.248 67.4625L105.249 67.3557C104.526 67.4144 104.421 67.9946 104.406 67.9644L104.271 68.4552C104.271 68.4552 104.274 68.975 104.357 69.0716L157.425 168.714L214.596 87.78L107.381 67.4998Z" fill="url(#paint0_linear_1_2)"/>
<path d="M91.8477 63.0819L96.6534 61.3887L102.191 62.9985C102.425 63.0663 102.633 63.2044 102.786 63.394C102.939 63.5837 103.03 63.8159 103.047 64.059L103.204 66.3503C103.221 66.5939 103.162 66.8368 103.037 67.046C102.911 67.2553 102.724 67.4209 102.501 67.5203L97.5787 69.7102L92.2981 68.418L91.8477 63.0819Z" fill="#B4816B"/>
<path d="M92.0177 62.8124L92.6017 68.6264L66.9033 67.4014C65.9017 67.1972 64.9901 66.6821 64.2983 65.9295L52.7305 53.3401L60.6674 46.2695L71.1553 58.2493L92.0177 62.8124Z" fill="#00243F"/>
<path d="M87.9727 79.7392C87.0688 79.147 86.7546 77.991 87.2743 77.1702L95.0785 64.8472C95.2204 64.649 95.4001 64.4808 95.6074 64.3525C95.8147 64.2241 96.0453 64.1381 96.286 64.0995C96.5267 64.0608 96.7727 64.0703 97.0097 64.1273C97.2468 64.1843 97.4701 64.2878 97.6669 64.4317C98.5708 65.0239 98.8851 66.1799 98.3653 67.0006L90.5611 79.3236C90.4193 79.5219 90.2395 79.69 90.0322 79.8184C89.825 79.9467 89.5943 80.0327 89.3536 80.0714C89.1129 80.11 88.8669 80.1005 88.6299 80.0435C88.3929 79.9865 88.1695 79.883 87.9727 79.7392Z" fill="#545454"/>
<path d="M50.7194 83.2578L57.6271 113.245C58.0202 114.952 57.9676 116.731 57.4743 118.412C56.981 120.093 56.0636 121.619 54.8103 122.843L31.2071 145.896C31.0266 146.073 30.7953 146.188 30.5457 146.226L25.4982 145.514L22.3752 142.303L22.2862 140.267C22.2744 139.984 22.3623 139.706 22.5346 139.481L41.3629 114.752L32.2323 92.3922L28.1858 83.3738L50.7194 83.2578Z" fill="#00243F"/>
<path d="M27.6172 77.0098L32.2359 92.3912L37.6123 119.519L39.4713 154.502C39.4879 154.815 39.6253 155.108 39.8546 155.321L44.2969 159.434L47.742 159.138L51.8573 154.655C52.0396 154.441 52.1406 154.169 52.1425 153.888L52.4536 117.964L51.2515 77.697L27.6172 77.0098Z" fill="#0074B0"/>
<path d="M27.9938 75.0742L26.7615 76.7216L26.5977 84.3975C26.7068 86.9138 27.4477 89.3622 28.752 91.5168L33.9574 100.123L51.7158 99.347L27.9938 75.0742Z" fill="#0074B0"/>
<path d="M36.3954 162.368C36.3954 162.368 37.9833 161.207 37.9532 159.911C37.9231 158.616 37.0256 157.468 36.4633 156.952C35.901 156.437 34.3033 155.133 34.3033 155.133C34.3033 155.133 32.6997 156 31.9782 156.748C31.5377 157.207 31.1399 157.705 30.7897 158.235L30.2344 158.804L35.8412 162.619L36.3954 162.368Z" fill="#545454"/>
<path d="M34.2658 155.158C33.7777 154.59 33.2895 154.021 32.8014 153.453C32.7146 153.441 32.6264 153.459 32.5512 153.504C32.476 153.549 32.4182 153.618 32.3872 153.7C32.3548 153.797 32.2872 153.878 32.1979 153.927C32.1085 153.977 32.0039 153.99 31.9048 153.966C31.821 153.958 31.7431 153.92 31.6859 153.858C31.6288 153.796 31.5966 153.716 31.5954 153.632C31.5827 153.531 31.6051 153.429 31.6588 153.342C31.7124 153.256 31.7942 153.191 31.8903 153.158C32.1041 153.077 32.311 152.98 32.509 152.866C32.2738 152.342 32.0386 151.818 31.8033 151.294C31.5481 151.363 31.3091 151.418 31.2335 151.749C31.2172 151.803 31.1883 151.852 31.1494 151.892C31.1104 151.932 31.0624 151.962 31.0095 151.98C30.9565 151.997 30.9 152.002 30.8448 151.994C30.7895 151.985 30.7371 151.964 30.6918 151.931C30.6405 151.906 30.5953 151.869 30.5592 151.825C30.5232 151.78 30.4972 151.728 30.4831 151.672C30.4689 151.617 30.467 151.559 30.4773 151.502C30.4876 151.446 30.5099 151.392 30.5428 151.345C30.6587 151.18 30.8192 151.052 31.0055 150.974C31.2014 150.925 31.3835 150.832 31.5384 150.702C31.3871 150.259 31.2049 149.827 30.9931 149.409C30.7202 149.441 30.4627 149.553 30.2523 149.73C30.1865 149.795 30.0983 149.834 30.0053 149.838C29.9122 149.842 29.8211 149.811 29.7501 149.75C29.6702 149.702 29.6107 149.626 29.5831 149.537C29.5555 149.448 29.5615 149.352 29.6001 149.267C29.6295 149.182 29.689 149.112 29.7671 149.068C29.8453 149.025 29.9367 149.012 30.0239 149.032C30.1554 149.043 30.2879 149.027 30.4129 148.984C30.5379 148.942 30.6526 148.874 30.7498 148.784C30.5552 148.241 30.3607 147.697 30.1662 147.154C29.8903 147.223 29.6341 147.355 29.4177 147.539C29.3506 147.596 29.2672 147.629 29.1798 147.634C29.0923 147.639 29.0056 147.616 28.9324 147.568C28.8592 147.52 28.8034 147.449 28.7733 147.367C28.7431 147.285 28.7403 147.195 28.7652 147.111C28.7803 147.028 28.8253 146.953 28.8918 146.901C28.9582 146.848 29.0415 146.822 29.126 146.826C29.465 146.807 29.793 146.699 30.0778 146.514C30.0225 146.342 29.9301 146.184 29.807 146.052C29.6839 145.92 29.5331 145.817 29.3655 145.749C28.985 145.584 28.5933 145.446 28.1935 145.336C26.5207 144.788 25.0051 143.844 23.7762 142.584C23.5046 142.271 23.2509 141.943 23.0162 141.601C22.9526 141.522 22.8821 141.449 22.8056 141.382C22.7199 141.281 22.6144 141.198 22.4954 141.139C22.3765 141.08 22.2467 141.045 22.114 141.038C21.9814 141.031 21.8487 141.052 21.7242 141.098C21.5997 141.144 21.486 141.216 21.3901 141.308C20.7554 141.81 20.1558 142.356 19.5958 142.941C18.7548 143.766 17.9594 144.636 17.213 145.547C17.0213 145.771 16.8603 146.02 16.7344 146.286C18.7547 147.757 20.7745 149.228 22.7938 150.699C23.4653 151.186 24.0847 151.74 24.6422 152.354C25.1246 152.89 25.5074 153.502 25.9862 154.038C26.6188 154.719 27.297 155.357 28.0162 155.946C28.9835 156.77 29.9561 157.587 30.9714 158.351C31.2089 158.024 31.4628 157.707 31.6805 157.367C32.0642 156.726 32.6129 156.199 33.2695 155.842C33.5464 155.698 33.8117 155.532 34.0848 155.381C34.1776 155.329 34.257 155.274 34.2658 155.158Z" fill="#FFAC26"/>
<path d="M30.0833 146.514C29.7985 146.699 29.4705 146.807 29.1315 146.826C29.047 146.822 28.9637 146.848 28.8973 146.9C28.8308 146.953 28.7858 147.028 28.7707 147.111C28.7458 147.195 28.7487 147.285 28.7788 147.367C28.8089 147.449 28.8647 147.52 28.9379 147.568C29.0111 147.616 29.0979 147.639 29.1853 147.634C29.2727 147.629 29.3561 147.595 29.4233 147.539C29.6396 147.355 29.8958 147.223 30.1717 147.154C30.2079 147.126 30.2404 147.084 30.281 147.074C30.5518 147.008 30.5465 146.87 30.4522 146.636C30.3595 146.405 30.228 146.484 30.0833 146.514Z" fill="black"/>
<path d="M31.5364 150.702C31.3815 150.831 31.1993 150.924 31.0035 150.974C30.8172 151.051 30.6567 151.18 30.5408 151.345C30.5079 151.392 30.4855 151.445 30.4752 151.502C30.4649 151.558 30.4669 151.616 30.4811 151.672C30.4952 151.728 30.5212 151.779 30.5572 151.824C30.5932 151.869 30.6385 151.905 30.6898 151.931C30.7351 151.964 30.7875 151.985 30.8428 151.993C30.898 152.002 30.9545 151.997 31.0074 151.979C31.0604 151.961 31.1084 151.931 31.1473 151.891C31.1863 151.851 31.2151 151.802 31.2315 151.749C31.3071 151.418 31.5461 151.362 31.8013 151.294C31.951 151.191 32.1939 151.158 32.0282 150.862C31.9291 150.686 31.8729 150.543 31.6602 150.713C31.6115 150.752 31.5762 150.72 31.5364 150.702Z" fill="black"/>
<path d="M30.7501 148.784C30.653 148.874 30.5382 148.942 30.4133 148.985C30.2883 149.027 30.1558 149.043 30.0243 149.032C29.9371 149.012 29.8457 149.025 29.7675 149.068C29.6893 149.112 29.6299 149.182 29.6005 149.267C29.5619 149.352 29.5559 149.448 29.5835 149.537C29.6111 149.626 29.6705 149.702 29.7504 149.751C29.8214 149.811 29.9125 149.842 30.0056 149.838C30.0987 149.835 30.1869 149.796 30.2527 149.73C30.4631 149.553 30.7206 149.442 30.9934 149.41C31.0083 149.332 31.0846 149.314 31.1353 149.3C31.3676 149.232 31.3203 149.105 31.2558 148.931C31.1778 148.719 31.0818 148.653 30.8813 148.777C30.8487 148.798 30.7944 148.783 30.7501 148.784Z" fill="black"/>
<path d="M32.5147 152.867C32.3167 152.981 32.1098 153.078 31.896 153.159C31.7999 153.192 31.7182 153.257 31.6645 153.343C31.6108 153.429 31.5884 153.532 31.6011 153.632C31.6023 153.717 31.6345 153.797 31.6917 153.859C31.7488 153.921 31.8267 153.959 31.9105 153.967C32.0096 153.991 32.1142 153.977 32.2036 153.928C32.2929 153.879 32.3605 153.798 32.3929 153.701C32.4239 153.619 32.4817 153.55 32.5569 153.505C32.6321 153.46 32.7203 153.442 32.8071 153.454C32.8132 153.422 32.829 153.394 32.8523 153.372C32.8756 153.35 32.9051 153.336 32.9368 153.332C33.1425 153.283 33.1283 153.187 33.0775 153C32.9591 152.564 32.7076 152.877 32.5147 152.867Z" fill="black"/>
<path d="M33.4766 163.166L33.5613 163.172C33.5505 163.161 33.5358 163.154 33.5201 163.152C33.5044 163.151 33.4888 163.156 33.4766 163.166Z" fill="#FF9E00"/>
<path d="M30.7578 161.264L30.8407 161.258C30.8287 161.248 30.8134 161.243 30.7979 161.244C30.7825 161.246 30.7681 161.253 30.7578 161.264Z" fill="#FF9E00"/>
<path d="M34.0388 163.775L34.0234 163.852C34.0296 163.848 34.0349 163.843 34.0391 163.837C34.0432 163.831 34.0461 163.824 34.0475 163.817C34.049 163.81 34.0489 163.802 34.0474 163.795C34.0459 163.788 34.043 163.781 34.0388 163.775Z" fill="#FF9E00"/>
<path d="M20.5945 147.896C20.5945 147.896 22.0268 146.657 21.5132 144.957C21.244 143.984 20.6727 143.123 19.8817 142.496C19.8817 142.496 17.8104 144.65 17.4128 145.05C17.0153 145.451 15.9961 146.778 15.9961 146.778L19.5816 149.069L20.5945 147.896Z" fill="#545454"/>
<path d="M30.9711 158.351C29.9558 157.587 28.9832 156.77 28.0159 155.946C27.2967 155.357 26.6185 154.72 25.9859 154.038C25.5071 153.502 25.1243 152.89 24.6419 152.354C24.0844 151.741 23.4649 151.186 22.7935 150.699C20.777 149.224 18.7572 147.753 16.7341 146.286C16.5445 146.117 16.4237 146.141 16.2667 146.365C15.5255 147.418 14.7615 148.455 14.0057 149.498L14 149.551C14.2042 149.731 14.42 149.898 14.6459 150.051C14.7876 150.166 14.8532 150.013 14.9509 149.973C14.971 149.947 14.9981 149.927 15.0292 149.915C15.0603 149.904 15.094 149.901 15.1264 149.908L15.2401 149.895L15.3295 149.903L15.3306 149.903C15.4239 149.903 15.5148 149.933 15.5888 149.99C15.6628 150.047 15.7156 150.127 15.7387 150.217C15.7429 150.218 15.7469 150.22 15.7503 150.223C15.7537 150.226 15.7566 150.229 15.7586 150.233C15.7606 150.237 15.7618 150.242 15.7621 150.246C15.7624 150.25 15.7618 150.255 15.7603 150.259C15.7751 150.271 15.7857 150.288 15.7908 150.306C15.7958 150.325 15.7951 150.344 15.7886 150.363L15.7924 150.418L15.7889 150.509C15.7854 150.614 15.7543 150.716 15.6989 150.804C16.1642 151.139 16.6085 151.503 17.0994 151.801C17.1777 151.686 17.2972 151.605 17.4333 151.575C17.5694 151.545 17.7118 151.569 17.8313 151.64C17.956 151.705 18.0502 151.816 18.0933 151.95C18.1364 152.083 18.1248 152.228 18.0612 152.354C18.0119 152.485 18.0609 152.536 18.1491 152.6C18.4932 152.848 18.8401 153.093 19.1765 153.351C19.2003 153.377 19.2295 153.399 19.262 153.413C19.2946 153.427 19.3299 153.435 19.3655 153.435C19.4011 153.434 19.4363 153.427 19.4687 153.412C19.5011 153.397 19.5301 153.376 19.5536 153.349C19.6441 153.275 19.758 153.235 19.8751 153.236C19.9923 153.237 20.1052 153.28 20.1939 153.356C20.2917 153.412 20.3664 153.501 20.4047 153.607C20.443 153.713 20.4425 153.83 20.4031 153.935C20.3092 154.166 20.4059 154.265 20.5753 154.366C20.6463 154.409 20.7103 154.463 20.7775 154.512C21.1501 154.782 21.15 154.782 21.4276 154.401C21.6393 154.11 21.8512 153.819 22.0898 153.491C22.3528 154.083 22.6542 154.657 22.9919 155.209C23.5501 156.157 24.2759 156.994 25.1338 157.682C25.239 157.762 25.3245 157.839 25.4648 157.714C25.555 157.625 25.6753 157.573 25.8017 157.569C25.9282 157.565 26.0515 157.609 26.147 157.692C26.2536 157.76 26.3316 157.865 26.3663 157.987C26.401 158.108 26.3899 158.238 26.3351 158.352C26.3216 158.375 26.3131 158.401 26.3102 158.428C26.3072 158.454 26.3099 158.481 26.318 158.506C26.3262 158.532 26.3396 158.555 26.3574 158.575C26.3752 158.595 26.397 158.611 26.4213 158.622C26.8497 158.927 27.2739 159.238 27.6975 159.549C27.7941 159.62 27.8624 159.658 27.978 159.552C28.0674 159.463 28.187 159.41 28.3133 159.404C28.4397 159.398 28.5638 159.439 28.6612 159.52C28.7688 159.586 28.8482 159.69 28.8843 159.811C28.9204 159.932 28.9107 160.062 28.8571 160.177C28.7941 160.329 28.8464 160.388 28.9547 160.465C29.2932 160.705 29.6346 160.943 29.9602 161.2C30.1926 161.383 30.4051 161.557 30.6791 161.277C30.6943 161.262 30.7313 161.268 30.7582 161.264C30.7685 161.252 30.7828 161.245 30.7982 161.244C30.8137 161.242 30.829 161.247 30.841 161.257L30.9554 161.265C31.0415 161.266 31.1253 161.293 31.1953 161.343C31.2652 161.393 31.3179 161.464 31.3458 161.545C31.3681 161.569 31.3849 161.597 31.3951 161.628C31.4053 161.659 31.4085 161.691 31.4047 161.724L31.4101 161.808L31.4102 161.806C31.4237 161.826 31.4297 161.85 31.427 161.874C31.4242 161.897 31.413 161.919 31.3954 161.936C31.3971 161.938 31.3984 161.94 31.399 161.942C31.3997 161.945 31.3998 161.948 31.3992 161.95C31.3986 161.953 31.3975 161.955 31.3958 161.957C31.3942 161.959 31.3921 161.961 31.3897 161.962C31.4039 162.044 31.3446 162.099 31.3156 162.166L33.0103 163.397C33.1031 163.306 33.1751 163.183 33.3306 163.189L33.4753 163.167C33.4877 163.157 33.5033 163.152 33.5191 163.153C33.5349 163.154 33.5497 163.161 33.5606 163.173C33.5652 163.169 33.5712 163.167 33.5772 163.167C33.5833 163.168 33.589 163.17 33.5933 163.175C33.6794 163.179 33.7623 163.209 33.8308 163.261C33.8994 163.314 33.9504 163.386 33.9771 163.468C33.9993 163.493 34.0159 163.522 34.0257 163.554C34.0355 163.586 34.0384 163.62 34.034 163.653C34.0478 163.67 34.0556 163.691 34.0563 163.713C34.0569 163.734 34.0504 163.756 34.0376 163.774L34.0171 163.774L34.0376 163.775C34.0418 163.781 34.0448 163.788 34.0463 163.795C34.0478 163.802 34.0478 163.809 34.0464 163.816C34.0449 163.824 34.0421 163.83 34.0379 163.836C34.0338 163.842 34.0285 163.848 34.0223 163.851C33.9221 164.043 33.9938 164.159 34.1704 164.265C34.3458 164.381 34.5146 164.507 34.6763 164.642L34.8787 164.757L34.9363 164.728C34.9695 164.658 35.0252 164.601 35.0945 164.565L35.3136 164.32C35.3622 164.217 35.4382 164.129 35.5333 164.067L35.9726 163.494L36.0216 163.39C36.0299 163.311 36.0688 163.239 36.1299 163.189L36.2011 163.043L36.2841 162.757L36.3004 162.672L36.3011 162.581L36.2735 162.464L36.1966 162.321L36.1815 162.311L36.1805 162.293L36.1364 162.26C34.3853 160.996 32.6636 159.693 30.9711 158.351Z" fill="black"/>
<path d="M64.2485 164.426C64.2485 164.426 64.85 162.55 64.0624 161.519C63.2748 160.488 61.8714 160.087 61.1125 160.001C60.3535 159.915 58.2914 159.801 58.2914 159.801C58.2914 159.801 57.5038 161.448 57.3606 162.479C57.2742 163.11 57.2455 163.747 57.2747 164.383L57.1602 165.171L63.9478 164.956L64.2485 164.426Z" fill="#545454"/>
<path d="M58.2736 159.844C57.5434 159.671 56.8133 159.499 56.0831 159.326C56.006 159.368 55.9453 159.435 55.9108 159.515C55.8764 159.596 55.8702 159.686 55.8934 159.771C55.9242 159.868 55.9173 159.973 55.874 160.066C55.8307 160.159 55.7542 160.231 55.6597 160.27C55.5872 160.313 55.5014 160.328 55.4188 160.312C55.3361 160.295 55.2625 160.249 55.2119 160.182C55.1422 160.107 55.1002 160.012 55.0928 159.91C55.0854 159.809 55.1132 159.708 55.1715 159.624C55.2973 159.433 55.4074 159.232 55.5006 159.023C55.0014 158.738 54.5022 158.452 54.003 158.166C53.8368 158.372 53.676 158.558 53.8098 158.871C53.8281 158.924 53.8335 158.98 53.8255 159.036C53.8176 159.091 53.7966 159.144 53.7642 159.189C53.7317 159.235 53.6889 159.272 53.6392 159.298C53.5895 159.324 53.5344 159.337 53.4785 159.337C53.4218 159.347 53.3637 159.344 53.3083 159.329C53.2528 159.314 53.2011 159.287 53.1569 159.251C53.1127 159.214 53.0769 159.168 53.052 159.116C53.027 159.065 53.0136 159.008 53.0125 158.951C53.0091 158.749 53.0633 158.55 53.1686 158.378C53.2979 158.222 53.3906 158.039 53.4396 157.843C53.056 157.574 52.6539 157.331 52.2363 157.118C52.0344 157.305 51.8915 157.547 51.8253 157.814C51.8109 157.906 51.7623 157.989 51.6892 158.047C51.6162 158.105 51.5239 158.133 51.4309 158.126C51.3378 158.134 51.2449 158.108 51.17 158.052C51.0951 157.996 51.0433 157.915 51.0245 157.823C50.9985 157.737 51.005 157.645 51.0428 157.564C51.0805 157.483 51.1469 157.419 51.2291 157.383C51.3424 157.315 51.4401 157.224 51.5162 157.116C51.5923 157.008 51.645 156.885 51.671 156.755L50.2379 155.779C50.0552 155.997 49.9255 156.255 49.8591 156.532C49.8379 156.617 49.7898 156.693 49.7221 156.749C49.6543 156.805 49.5704 156.837 49.4828 156.841C49.3952 156.845 49.3086 156.821 49.2358 156.772C49.1629 156.724 49.1078 156.653 49.0784 156.57C49.0416 156.494 49.0339 156.407 49.0568 156.325C49.0797 156.243 49.1316 156.173 49.2028 156.127C49.4657 155.911 49.6678 155.631 49.7893 155.313C49.6433 155.206 49.4755 155.133 49.298 155.099C49.1204 155.064 48.9375 155.069 48.7621 155.114C48.3567 155.204 47.9582 155.323 47.5693 155.469C45.8923 156.012 44.109 156.14 42.3715 155.844C41.967 155.751 41.5681 155.634 41.1767 155.496C41.0787 155.469 40.9785 155.452 40.8774 155.443C40.7482 155.411 40.6139 155.406 40.4828 155.429C40.3516 155.451 40.2264 155.5 40.1149 155.572C40.0034 155.645 39.908 155.739 39.8344 155.85C39.7609 155.961 39.7108 156.086 39.6874 156.217C39.4696 156.998 39.3057 157.793 39.1968 158.596C39.002 159.76 38.8706 160.933 38.8032 162.11C38.78 162.405 38.7962 162.701 38.8513 162.991C41.3535 162.991 43.8556 162.987 46.3577 162.993C47.1881 162.992 48.0164 163.076 48.8296 163.244C49.5356 163.394 50.2066 163.664 50.9099 163.816C51.8236 163.995 52.7483 164.111 53.6777 164.164C54.9464 164.262 56.2151 164.35 57.4877 164.371C57.4872 163.966 57.5061 163.56 57.482 163.156C57.4148 162.411 57.5486 161.661 57.8696 160.985C58.0091 160.705 58.1262 160.414 58.2581 160.131C58.2865 160.089 58.3029 160.04 58.3056 159.99C58.3083 159.939 58.2972 159.889 58.2736 159.844Z" fill="#FFAC26"/>
<path d="M49.7923 155.315C49.6708 155.632 49.4687 155.913 49.2058 156.128C49.1346 156.174 49.0827 156.245 49.0598 156.326C49.0369 156.408 49.0446 156.495 49.0814 156.572C49.1108 156.654 49.1659 156.725 49.2388 156.774C49.3116 156.823 49.3982 156.847 49.4858 156.843C49.5734 156.838 49.6573 156.806 49.7251 156.75C49.7928 156.695 49.8409 156.619 49.8621 156.534C49.9285 156.257 50.0582 155.999 50.2409 155.781C50.2468 155.735 50.2609 155.692 50.2826 155.652C50.4626 155.438 50.3774 155.33 50.163 155.196C49.952 155.064 49.892 155.205 49.7923 155.315Z" fill="black"/>
<path d="M53.439 157.844C53.39 158.04 53.2974 158.223 53.168 158.378C53.0627 158.551 53.0085 158.749 53.0119 158.951C53.013 159.009 53.0264 159.065 53.0514 159.117C53.0763 159.169 53.1121 159.215 53.1563 159.251C53.2005 159.288 53.2522 159.315 53.3077 159.33C53.3632 159.345 53.4212 159.347 53.4779 159.338C53.5338 159.338 53.5889 159.324 53.6386 159.298C53.6883 159.273 53.7312 159.235 53.7636 159.19C53.796 159.144 53.817 159.092 53.825 159.036C53.8329 158.981 53.8275 158.924 53.8092 158.871C53.6754 158.559 53.8362 158.373 54.0024 158.167C54.0629 157.995 54.2401 157.826 53.9319 157.684C53.7475 157.599 53.618 157.517 53.5462 157.78C53.5298 157.841 53.4821 157.835 53.439 157.844Z" fill="black"/>
<path d="M51.6739 156.755C51.6479 156.885 51.5952 157.008 51.5191 157.116C51.443 157.224 51.3453 157.315 51.232 157.383C51.1498 157.419 51.0834 157.483 51.0457 157.564C51.0079 157.645 51.0014 157.738 51.0274 157.823C51.0462 157.915 51.098 157.996 51.1729 158.052C51.2478 158.108 51.3406 158.135 51.4338 158.127C51.5268 158.134 51.619 158.105 51.6921 158.047C51.7652 157.989 51.8138 157.906 51.8282 157.814C51.8944 157.547 52.0373 157.305 52.2392 157.118C52.2056 157.047 52.2569 156.987 52.2893 156.945C52.4377 156.754 52.3246 156.679 52.1694 156.576C51.9819 156.451 51.8649 156.453 51.776 156.672C51.7615 156.708 51.7089 156.728 51.6739 156.755Z" fill="black"/>
<path d="M55.5027 159.024C55.4095 159.233 55.2994 159.434 55.1736 159.625C55.1153 159.708 55.0875 159.809 55.0949 159.911C55.1023 160.012 55.1444 160.108 55.2141 160.182C55.2646 160.25 55.3383 160.296 55.4209 160.313C55.5036 160.329 55.5894 160.314 55.6618 160.271C55.7563 160.232 55.8328 160.159 55.8761 160.067C55.9194 159.974 55.9263 159.869 55.8955 159.771C55.8724 159.687 55.8785 159.597 55.9129 159.516C55.9474 159.436 56.0081 159.369 56.0853 159.327C56.0718 159.298 56.0677 159.266 56.0736 159.234C56.0796 159.203 56.0952 159.174 56.1183 159.152C56.2564 158.992 56.1881 158.922 56.0367 158.8C55.6843 158.518 55.6647 158.919 55.5027 159.024Z" fill="black"/>
<path d="M64.3463 164.729L64.293 164.654L64.3463 164.729Z" fill="#FF9E00"/>
<path d="M62.3555 166.795L62.4281 166.749C62.4125 166.746 62.3964 166.749 62.3829 166.758C62.3694 166.766 62.3596 166.779 62.3555 166.795Z" fill="#FF9E00"/>
<path d="M59.0312 166.853L59.0945 166.799C59.079 166.798 59.0638 166.803 59.052 166.813C59.0402 166.823 59.0328 166.838 59.0312 166.853Z" fill="#FF9E00"/>
<path d="M63.168 166.955L63.2007 167.026C63.2034 167.019 63.2047 167.012 63.2045 167.005C63.2043 166.997 63.2026 166.99 63.1995 166.984C63.1965 166.977 63.1921 166.971 63.1867 166.966C63.1813 166.961 63.1749 166.957 63.168 166.955Z" fill="#FF9E00"/>
<path d="M42.9249 162.021C42.9249 162.021 43.3545 160.173 41.9368 159.099C41.1458 158.471 40.1755 158.11 39.1659 158.068C39.1659 158.068 38.7578 161.033 38.6718 161.591C38.5859 162.15 38.543 163.825 38.543 163.825L42.796 163.567L42.9249 162.021Z" fill="#545454"/>
<path d="M57.4884 164.372C56.2157 164.351 54.9471 164.263 53.6784 164.166C52.749 164.113 51.8242 163.996 50.9106 163.817C50.2072 163.666 49.5363 163.395 48.8302 163.246C48.0171 163.077 47.1888 162.993 46.3584 162.995C43.8563 162.988 41.3542 162.992 38.852 162.992C38.5989 162.967 38.5153 163.058 38.5197 163.331C38.5402 164.621 38.5328 165.911 38.5353 167.2L38.5618 167.246C38.8336 167.272 39.1067 167.28 39.3795 167.271C39.5623 167.281 39.5253 167.118 39.5807 167.028C39.5813 166.995 39.5915 166.963 39.6099 166.935C39.6283 166.907 39.6543 166.886 39.6847 166.872L39.7687 166.794L39.846 166.749L39.847 166.748C39.922 166.692 40.0136 166.663 40.107 166.666C40.2005 166.668 40.2904 166.702 40.3623 166.762C40.3665 166.76 40.3709 166.759 40.3753 166.76C40.3797 166.76 40.384 166.761 40.388 166.763C40.3919 166.765 40.3954 166.768 40.3983 166.771C40.4011 166.774 40.4032 166.778 40.4044 166.783C40.4236 166.784 40.442 166.791 40.457 166.803C40.472 166.815 40.483 166.831 40.4884 166.85L40.5244 166.893L40.575 166.968C40.6338 167.055 40.6686 167.156 40.6761 167.26C41.2499 167.257 41.8241 167.29 42.3975 167.243C42.4378 166.899 42.6087 166.706 42.8952 166.681C43.0341 166.659 43.1759 166.694 43.2896 166.777C43.4032 166.86 43.4794 166.984 43.5017 167.123C43.5395 167.259 43.6088 167.271 43.7178 167.27C44.1426 167.268 44.5677 167.262 44.9923 167.273C45.0272 167.281 45.0633 167.281 45.0981 167.273C45.133 167.266 45.1659 167.251 45.1946 167.23C45.2234 167.208 45.2473 167.182 45.2649 167.15C45.2825 167.119 45.2933 167.085 45.2966 167.05C45.326 166.936 45.3946 166.836 45.4903 166.768C45.5859 166.701 45.7024 166.669 45.8194 166.678C45.9316 166.666 46.0444 166.694 46.1379 166.757C46.2314 166.82 46.2994 166.915 46.3297 167.023C46.3898 167.266 46.5266 167.289 46.7233 167.271C46.8057 167.264 46.8894 167.27 46.9726 167.27C47.4338 167.269 47.4337 167.269 47.4335 166.797C47.4334 166.436 47.4335 166.076 47.4335 165.67C47.9952 165.994 48.5775 166.281 49.1767 166.53C50.1867 166.968 51.2679 167.218 52.3675 167.269C52.4999 167.272 52.6148 167.285 52.6544 167.1C52.675 166.975 52.7421 166.863 52.8421 166.785C52.9422 166.707 53.0679 166.67 53.1942 166.681C53.3206 166.673 53.4455 166.712 53.5452 166.79C53.6449 166.868 53.7126 166.98 53.7355 167.105C53.7714 167.244 53.8352 167.273 53.9641 167.272C54.4906 167.266 55.0171 167.268 55.5436 167.271C55.6636 167.271 55.7412 167.262 55.7726 167.108C55.7923 166.983 55.8579 166.87 55.9568 166.79C56.0556 166.711 56.1804 166.672 56.3069 166.679C56.433 166.67 56.5583 166.707 56.6589 166.784C56.7595 166.86 56.8284 166.971 56.8524 167.096C56.8912 167.256 56.9683 167.273 57.1014 167.272C57.517 167.267 57.9332 167.258 58.3482 167.274C58.6444 167.285 58.919 167.301 58.9762 166.913C58.9794 166.892 59.0127 166.875 59.032 166.855C59.0336 166.84 59.041 166.826 59.0528 166.816C59.0645 166.806 59.0797 166.801 59.0952 166.801L59.1928 166.741C59.2627 166.69 59.3466 166.663 59.4328 166.662C59.519 166.662 59.6032 166.688 59.6739 166.737C59.7058 166.743 59.736 166.756 59.7624 166.775C59.7888 166.794 59.8108 166.819 59.8267 166.847L59.8806 166.912L59.8796 166.911C59.9022 166.919 59.9212 166.934 59.933 166.955C59.9448 166.976 59.9487 167.001 59.9439 167.024C59.9465 167.025 59.9489 167.026 59.9509 167.027C59.9529 167.029 59.9545 167.031 59.9556 167.034C59.9566 167.036 59.9571 167.039 59.957 167.041C59.9568 167.044 59.956 167.046 59.9547 167.049C60.0146 167.107 59.9993 167.187 60.015 167.258L62.1125 167.256C62.1342 167.128 62.1202 166.986 62.2495 166.899L62.3536 166.796C62.3578 166.78 62.3676 166.767 62.381 166.759C62.3945 166.75 62.4106 166.747 62.4262 166.75C62.4276 166.744 62.4313 166.739 62.4364 166.736C62.4414 166.733 62.4476 166.731 62.4536 166.732C62.5258 166.685 62.6107 166.661 62.6971 166.663C62.7834 166.665 62.8671 166.693 62.9371 166.743C62.9698 166.751 63.0006 166.765 63.0274 166.785C63.0542 166.805 63.0763 166.831 63.0924 166.86C63.1135 166.865 63.1322 166.878 63.1456 166.895C63.1589 166.912 63.1662 166.934 63.1663 166.955L63.1501 166.968L63.1671 166.956C63.174 166.959 63.1804 166.963 63.1858 166.967C63.1912 166.972 63.1956 166.978 63.1987 166.985C63.2017 166.992 63.2034 166.999 63.2036 167.006C63.2038 167.013 63.2025 167.021 63.1998 167.027C63.2314 167.241 63.3579 167.293 63.5632 167.275C63.7738 167.266 63.9847 167.268 64.1951 167.282L64.4268 167.256L64.4565 167.199C64.442 167.122 64.4533 167.043 64.4886 166.974L64.5217 166.646C64.5002 166.534 64.5099 166.418 64.5499 166.311L64.5682 165.589L64.5464 165.475C64.5069 165.407 64.4959 165.326 64.5158 165.249L64.4874 165.089L64.3865 164.809L64.3495 164.73L64.2963 164.656L64.2052 164.578L64.0583 164.507L64.0403 164.508L64.0289 164.494L63.974 164.494C61.8112 164.502 59.6493 164.461 57.4884 164.372Z" fill="black"/>
<path d="M76.5437 9.65849C74.6109 7.35245 73.8948 8.70872 73.8948 8.70872L64.7165 10.1388L59.768 13.6427L57.8571 18.1718L54.9023 22.2315L60.0245 34.3937L64.6302 28.9457C69.2772 30.3092 72.0303 31.684 74.5751 24.7368L76.7321 24.7727L76.6723 18.3438C77.2969 16.2151 78.4725 11.962 76.5436 9.65851L76.5437 9.65849Z" fill="#DCA48C"/>
<path d="M66.8373 4.4291C64.7994 3.19156 63.2227 3.76906 62.5925 4.63192C60.8641 4.30067 59.9139 5.24551 59.7192 6.53443C58.4971 7.15477 57.7985 7.86753 58.1861 9.6852C56.5844 10.754 56.857 12.1188 57.301 13.0295C56.0862 13.9117 56.2626 15.1871 56.8933 15.7257C56.0882 17.0326 56.4697 17.8176 57.4859 18.6416C60.1867 19.1071 60.915 17.5339 61.2101 16.5283C61.2354 16.442 61.7455 14.7084 61.7725 14.6188C62.1696 13.3038 62.7934 12.82 64.3899 13.2473C66.4636 13.8032 66.0637 15.2346 65.7621 16.375L68.13 17.0698L69.2419 13.2805C74.5678 14.8432 74.2447 10.6745 76.7174 11.4C77.1408 11.5242 77.4618 11.6352 77.4618 11.6352C78.0848 10.3937 78.2953 8.00809 75.5097 7.49476C74.9814 6.79101 74.4054 5.27595 71.505 5.57163C70.1112 4.68898 68.5369 3.79877 66.8373 4.4291Z" fill="#00243F"/>
<path d="M74.2489 19.0266L73.7177 18.8707C73.6692 18.8565 73.624 18.8328 73.5847 18.8011C73.5453 18.7694 73.5126 18.7303 73.4884 18.686C73.4642 18.6416 73.449 18.5929 73.4436 18.5427C73.4382 18.4924 73.4428 18.4416 73.457 18.3932L73.6128 17.8622C73.6416 17.7644 73.708 17.6819 73.7975 17.633C73.887 17.5842 73.9923 17.5728 74.0901 17.6014L74.6214 17.7573C74.7192 17.7861 74.8016 17.8525 74.8505 17.942C74.8994 18.0315 74.9108 18.1368 74.8821 18.2346L74.7263 18.7656C74.7121 18.8141 74.6885 18.8593 74.6568 18.8987C74.6252 18.938 74.586 18.9708 74.5417 18.995C74.4974 19.0193 74.4487 19.0345 74.3985 19.0399C74.3482 19.0453 74.2974 19.0408 74.2489 19.0266Z" fill="#00243F"/>
<path d="M55.0028 21.75L63.287 33.8434C63.6484 34.3727 63.8327 35.003 63.8134 35.6436L63.6431 41.1691L53.4922 23.5374L55.0028 21.75Z" fill="#0074B0"/>
<path d="M51.5274 84.7285L51.4962 84.8255L51.4062 84.7909C51.4496 84.7764 51.4905 84.7554 51.5274 84.7285Z" fill="#FF9E00"/>
<path d="M63.6674 49.329C63.6692 49.7005 63.603 50.0692 63.4721 50.4169L60.0791 60.2716L58.8099 63.968L57.537 67.6609L56.2677 71.3572L52.533 83.5099C52.4549 83.7684 52.3266 84.0089 52.1555 84.2177C51.9843 84.4265 51.7737 84.5996 51.5356 84.7269C51.4984 84.7539 51.4573 84.7751 51.4136 84.7897C51.0006 84.9847 50.5347 85.0375 50.0885 84.9396L27.5162 80.0053C27.2149 79.9432 26.9301 79.8185 26.68 79.6394C26.43 79.4603 26.2203 79.2307 26.0645 78.9655C25.9088 78.7003 25.8104 78.4053 25.7757 78.0997C25.7411 77.7941 25.7709 77.4846 25.8633 77.1912L28.3949 69.1255L30.1211 63.6855L31.2997 59.9612L31.3137 59.9124L32.5551 56.2614L32.8829 55.3094L33.7338 52.5406L36.6665 43.0068L36.799 42.6127L39.0273 35.5652C39.7431 33.3037 41.2238 31.3618 43.2153 30.073L53.3489 23.4962C53.3489 23.4962 53.3629 23.5241 53.3943 23.5799L53.5721 23.4648L61.9866 36.5242C63.1953 38.4018 63.9729 40.524 64.2635 42.738C64.5542 44.952 64.3506 47.203 63.6674 49.329Z" fill="#FF9E00"/>
<path d="M60.0741 60.2862L58.8065 63.9823L32.5508 56.2785L32.8786 55.3237L33.7312 52.5566L60.0741 60.2862Z" fill="white"/>
<path d="M57.5306 67.6751L56.263 71.3712L30.1133 63.6984L31.2933 59.9766L57.5306 67.6751Z" fill="white"/>
<path d="M85.1858 69.1152L90.6505 69.3585L95.518 73.1843C95.7239 73.3458 95.8752 73.5666 95.9515 73.8169C96.0279 74.0673 96.0254 74.335 95.9446 74.5839L95.1812 76.9283C95.1002 77.1776 94.9445 77.396 94.7352 77.5538C94.5259 77.7117 94.2732 77.8015 94.0112 77.8109L88.2313 78.0156L83.4922 74.6092L85.1858 69.1152Z" fill="#DCA48C"/>
<path d="M85.1855 69.1166L83.4919 74.6105L59.452 67.4792C58.5276 67.0502 57.7622 66.3403 57.2649 65.4508L45.7554 45.3099L45.1857 44.3625C43.455 41.4843 44.3614 37.6328 47.3345 36.0706C47.4197 36.0258 47.512 35.9813 47.6098 35.9372C48.7633 35.4369 50.0553 35.3557 51.2623 35.7076C52.4693 36.0596 53.5152 36.8225 54.219 37.8643C54.7106 38.5873 55.158 39.3394 55.5586 40.1166L65.6869 59.5831L85.1855 69.1166Z" fill="#0074B0"/>
<path d="M56.9783 11.4375L55.1288 11.7935L55.1016 11.9532L56.9825 12L56.9783 11.4375Z" fill="#FF9E00"/>
<path d="M54.7227 14.1621L55.1237 11.7958L58.9697 12.1001C59.2657 12.0941 59.5528 11.9975 59.7921 11.8232L62.8756 9.32617L64.3839 11.1866L61.3039 13.6813C60.5886 14.2415 59.6967 14.5276 58.789 14.488L54.7227 14.1621Z" fill="#FFC566"/>
<path d="M81.8848 15.6564L54.6953 11.0526L55.7038 9.78226C57.1224 3.17113 60.1953 0.185262 65.5377 0.00511315C66.4272 -0.0194543 67.317 0.0445523 68.1938 0.196187L70.6106 0.604911C71.7054 0.77742 72.7738 1.08887 73.7898 1.53173C78.143 3.46789 79.6534 7.02742 79.3849 11.4843C80.0941 12.2202 81.4562 13.8344 82.3319 14.8812C82.3935 14.9564 82.4308 15.0485 82.4387 15.1454C82.4467 15.2423 82.4249 15.3393 82.3764 15.4234C82.3278 15.5076 82.2547 15.575 82.1669 15.6167C82.0791 15.6583 81.9807 15.6722 81.8847 15.6564" fill="#FF9E00"/>
<path d="M79.388 11.459L73.8906 13.1602L73.8921 13.1773L80.4532 12.6394C80.4532 12.6394 80.1504 12.2717 79.388 11.459" fill="#FF6D00"/>
<path d="M65.4679 6.91797L60.9688 12.1162L62.8257 12.4315L65.4679 6.91797Z" fill="#FF6D00"/>
<path d="M67.9476 31.683C67.5528 31.799 67.1377 31.829 66.7304 31.7709C66.323 31.7128 65.9328 31.568 65.5862 31.3463C65.4698 31.2717 65.3573 31.1914 65.249 31.1055C64.6582 30.582 64.2625 29.7272 64.0195 28.6543C64.7538 29.0326 65.5169 29.3523 66.3016 29.6103C66.3986 29.6382 66.4922 29.6633 66.5888 29.6851C66.6467 29.7795 66.7229 29.8614 66.8127 29.9261C66.9026 29.9908 67.0045 30.037 67.1124 30.0621C67.5847 30.1503 67.7745 30.0778 67.9741 29.8721C67.9741 29.8721 69.0391 30.0478 69.1667 30.0456C69.0385 30.7146 68.8653 31.269 67.9476 31.683Z" fill="#BFC8CF"/>
<path d="M66.5878 29.6868C66.4913 29.6649 66.3976 29.6399 66.3007 29.6119C65.516 29.354 64.7529 29.0343 64.0186 28.656C63.0072 24.2714 65.4001 15.2118 66.2154 11.9766L68.2177 12.4036C66.4333 19.4856 65.3336 27.9959 66.5878 29.6868Z" fill="#BFC8CF"/>
<path d="M62.8203 12.4315L71.3896 13.8828L70.7089 7.80719L65.4625 6.91797L62.8203 12.4315Z" fill="#FFC566"/>
<path d="M107.689 73.925L89.4071 66.0711C88.9103 65.8577 88.6246 65.3925 88.7886 65.0641L92.6387 57.3593C92.8027 57.031 93.3463 56.9801 93.8152 57.2493L111.073 67.1543C111.488 67.3929 111.696 67.7999 111.551 68.0911L108.726 73.7448C108.58 74.0359 108.13 74.1142 107.689 73.925Z" fill="#878787"/>
<defs>
<linearGradient id="paint0_linear_1_2" x1="106.448" y1="69.0615" x2="189.576" y2="127.388" gradientUnits="userSpaceOnUse">
<stop stop-color="#91D8F2"/>
<stop offset="1" stop-color="#E5F6FD" stop-opacity="0"/>
</linearGradient>
</defs>
</svg>
