<svg width="52" height="48" viewBox="0 0 52 48" fill="none"
  xmlns="http://www.w3.org/2000/svg">
  <path fill-rule="evenodd" clip-rule="evenodd" d="M1.79551 0.0103258C1.86275 0.00349778 1.93096 0 2 0H14C15.1046 0 16 0.895431 16 2C16 3.10457 15.1046 4 14 4L4 4V13C4 14.1046 3.10457 15 2 15C0.895431 15 0 14.1046 0 13V2C0 1.86193 0.0139911 1.72713 0.0406329 1.59693C0.213805 0.750662 0.921468 0.0990898 1.79551 0.0103258ZM9 24C9 23.4222 9.19422 22.9444 9.58266 22.5667C9.9711 22.1889 10.4624 22 11.0565 22L40.9436 22C41.5376 22 42.0289 22.1889 42.4173 22.5667C42.8058 22.9444 43 23.4222 43 24C43 24.5778 42.8058 25.0556 42.4173 25.4333C42.0289 25.8111 41.5376 26 40.9435 26L11.0565 26C10.4624 26 9.9711 25.8111 9.58266 25.4333C9.19422 25.0556 9 24.5778 9 24ZM52 46C52 47.1046 51.1046 48 50 48C49.9647 48 49.9296 47.9991 49.8948 47.9973L49.8633 47.9986L49.8327 47.9995L49.8059 47.9999L49.7841 48H38.2159C36.9921 48 36 47.0079 36 45.7841C36 44.5603 36.9921 43.5682 38.2159 43.5682H48V35C48 33.8954 48.8954 33 50 33C51.1046 33 52 33.8954 52 35V45.7841V46ZM0 46C0 47.1046 0.895431 48 2 48H14C15.1046 48 16 47.1046 16 46C16 44.8954 15.1046 44 14 44H4V35C4 33.8954 3.10457 33 2 33C0.895431 33 0 33.8954 0 35V46ZM52 2C52 0.895431 51.1046 0 50 0C49.9847 0 49.9694 0.000172712 49.9541 0.000516296C49.9388 0.000172712 49.9235 0 49.9082 0H37.9082C36.8036 0 35.9082 0.895431 35.9082 2C35.9082 3.10457 36.8036 4 37.9082 4L48 4V13C48 14.1046 48.8954 15 50 15C51.1046 15 52 14.1046 52 13V2Z" fill="#00243D"/>
</svg>