<svg width="52" height="51" viewBox="0 0 52 51" fill="none" xmlns="http://www.w3.org/2000/svg">
<path fill-rule="evenodd" clip-rule="evenodd" d="M1.35338 0.174138C1.61848 0.0620062 1.90996 0 2.21591 0H17.875C19.0988 0 20.0909 0.992096 20.0909 2.21591C20.0909 3.43972 19.0988 4.43182 17.875 4.43182L4.43182 4.43182V17.875C4.43182 19.0988 3.43972 20.0909 2.21591 20.0909C0.992096 20.0909 0 19.0988 0 17.875V2.21591C0 1.29805 0.558054 0.510531 1.35338 0.174138ZM7.68181 25.2614C7.68181 24.6212 7.89109 24.0919 8.30966 23.6733C8.72822 23.2547 9.25757 23.0455 9.89772 23.0455L42.1023 23.0455C42.7424 23.0455 43.2718 23.2547 43.6903 23.6733C44.1089 24.0919 44.3182 24.6212 44.3182 25.2614C44.3182 25.9015 44.1089 26.4309 43.6903 26.8494C43.2718 27.268 42.7424 27.4773 42.1023 27.4773L9.89772 27.4773C9.25757 27.4773 8.72822 27.268 8.30966 26.8494C7.89109 26.4309 7.68181 25.9015 7.68181 25.2614ZM51.9886 48.5334C51.8751 49.6508 50.9314 50.5227 49.7841 50.5227H34.125C32.9012 50.5227 31.9091 49.5306 31.9091 48.3068C31.9091 47.083 32.9012 46.0909 34.125 46.0909H47.5682V32.6477C47.5682 31.4239 48.5603 30.4318 49.7841 30.4318C51.0079 30.4318 52 31.4239 52 32.6477V48.3068C52 48.3833 51.9961 48.4589 51.9886 48.5334ZM0.0450194 48.7534C0.251645 49.7632 1.14507 50.5227 2.21591 50.5227H17.875C19.0988 50.5227 20.0909 49.5306 20.0909 48.3068C20.0909 47.083 19.0988 46.0909 17.875 46.0909H4.43182V32.6477C4.43182 31.4239 3.43972 30.4318 2.21591 30.4318C0.992096 30.4318 0 31.4239 0 32.6477V48.3068C0 48.4598 0.0155015 48.6091 0.0450194 48.7534ZM51.9886 1.98935C51.8751 0.871962 50.9314 0 49.7841 0H34.125C32.9012 0 31.9091 0.992096 31.9091 2.21591C31.9091 3.43972 32.9012 4.43182 34.125 4.43182L47.5682 4.43182V17.875C47.5682 19.0988 48.5603 20.0909 49.7841 20.0909C51.0079 20.0909 52 19.0988 52 17.875V2.21591C52 2.13942 51.9961 2.06384 51.9886 1.98935Z" fill="#7D7D7D"/>
</svg>
