<svg xmlns="http://www.w3.org/2000/svg" viewBox="0 0 355.59 172.35"><defs><style>.a{fill:none;}.b{fill:#fff;}</style></defs><title>Maersk_Logo_Neg</title><rect class="a" width="355.59" height="172.35"/><polygon class="b" points="130.57 98.17 130.57 74.19 136.95 74.19 145.04 92.11 153 74.19 159.11 74.19 159.11 98.17 153.85 98.17 153.85 84.22 147.78 98.17 142.17 98.17 136.03 84.29 136.03 98.17 130.57 98.17"/><path class="b" d="M167.65,98.17h-6.19l10.64-24h7.61l10.71,24h-6.1l-2.11-4.78H169.69Zm12.63-9.29-4.4-10.16-4.3,10.16Z"/><polygon class="b" points="192.89 98.17 192.89 74.19 215.78 74.19 215.78 78.98 198.42 78.98 198.42 83.74 213.31 83.74 213.31 88.42 198.42 88.42 198.42 93.37 215.82 93.37 215.82 98.17 192.89 98.17"/><path class="b" d="M220.28,98.17v-24h19.15a3.69,3.69,0,0,1,4,4v8.05c0,1.86-1.64,3.53-4.82,3.53h-.56l5.58,8.38h-6.16L232.24,90h-6.36v8.2Zm5.6-13h12V79h-12V85.2Z"/><path class="b" d="M253.56,98.18h-1.89c-2.48,0-3.67-1.43-3.67-3.52V91.53h5.56v1.85H265.4v-4.9H251.82A3.48,3.48,0,0,1,248.1,85V77.88a3.66,3.66,0,0,1,3.76-3.68h15.52A3.53,3.53,0,0,1,270.93,78v2.86H265.4V79H253.56v4.72H267.1a3.67,3.67,0,0,1,3.83,3.87v6.84a3.4,3.4,0,0,1-3.71,3.75Z"/><polygon class="b" points="276.27 98.18 276.27 74.2 281.95 74.2 281.95 83.79 292.78 74.2 300.48 74.2 287.56 85.34 300.94 98.18 292.98 98.18 281.95 87.27 281.95 98.18 276.27 98.18"/><path class="b" d="M101.43,59a6.21,6.21,0,0,1,6.21,6.21v42a6.21,6.21,0,0,1-6.21,6.21H62.27a6.21,6.21,0,0,1-6.21-6.21v-42A6.21,6.21,0,0,1,62.27,59h39.16m0-1.5H62.27a7.72,7.72,0,0,0-7.71,7.71v42a7.72,7.72,0,0,0,7.71,7.71h39.16a7.72,7.72,0,0,0,7.71-7.71v-42a7.72,7.72,0,0,0-7.71-7.71Z"/><polygon class="b" points="90.07 84.76 100.25 72 100.22 71.96 85.51 79.04 81.88 63.13 81.82 63.13 78.19 79.04 63.48 71.96 63.45 72 73.63 84.76 58.92 91.85 58.93 91.89 75.26 91.89 71.63 107.81 71.67 107.83 81.85 95.07 92.03 107.83 92.08 107.81 88.44 91.89 104.77 91.89 104.78 91.85 90.07 84.76"/></svg>