<svg width="84" height="96" viewBox="0 0 84 96" fill="none" xmlns="http://www.w3.org/2000/svg">
<path d="M41.9964 0C38.6777 0 35.9964 2.68125 35.9964 6V9.6C22.3089 12.375 11.9964 24.4875 11.9964 39V42.525C11.9964 51.3375 8.75266 59.85 2.90266 66.45L1.51516 68.0063C-0.059839 69.7688 -0.434839 72.3 0.521411 74.4563C1.47766 76.6125 3.63391 78 5.99641 78H77.9964C80.3589 78 82.4964 76.6125 83.4714 74.4563C84.4464 72.3 84.0527 69.7688 82.4777 68.0063L81.0902 66.45C75.2402 59.85 71.9964 51.3563 71.9964 42.525V39C71.9964 24.4875 61.6839 12.375 47.9964 9.6V6C47.9964 2.68125 45.3152 0 41.9964 0ZM50.4902 92.4937C52.7402 90.2437 53.9964 87.1875 53.9964 84H41.9964H29.9964C29.9964 87.1875 31.2527 90.2437 33.5027 92.4937C35.7527 94.7437 38.8089 96 41.9964 96C45.1839 96 48.2402 94.7437 50.4902 92.4937Z" fill="#40AB35"/>
<path d="M37.6883 58.4422C38.0249 58.4422 38.3335 58.3868 38.614 58.276C38.8946 58.1652 39.1751 57.9713 39.4556 57.6943L55.3618 41.9887C55.8106 41.5455 56.0351 40.9915 56.0351 40.3268C56.0351 39.662 55.8106 39.108 55.3618 38.6648C54.9129 38.2216 54.3519 38 53.6786 38C53.0053 38 52.4443 38.2216 51.9954 38.6648L37.7724 52.7084L31.0397 46.0606C30.5908 45.6174 30.0297 45.3958 29.3565 45.3958C28.6832 45.3958 28.1221 45.6174 27.6733 46.0606C27.2244 46.5037 27 47.0716 27 47.7641C27 48.4566 27.2244 49.0244 27.6733 49.4676L35.9209 57.6943C36.2014 57.9713 36.482 58.1652 36.7625 58.276C37.043 58.3868 37.3516 58.4422 37.6883 58.4422Z" fill="white"/>
</svg>
