<svg width="64" height="64" viewBox="0 0 64 64" fill="none" xmlns="http://www.w3.org/2000/svg">
<path d="M23.6 40.24H50.08C50.56 40.24 50.92 40.0267 51.16 39.6C51.4 39.1733 51.36 38.7467 51.04 38.32L43.28 27.84C43.0133 27.52 42.6933 27.36 42.32 27.36C41.9467 27.36 41.6267 27.52 41.36 27.84L34.08 37.36L29.6 31.6C29.3333 31.28 29.0133 31.1333 28.64 31.16C28.2667 31.1867 27.9467 31.36 27.68 31.68L22.64 38.32C22.32 38.7467 22.2667 39.1733 22.48 39.6C22.6933 40.0267 23.0667 40.24 23.6 40.24ZM14.4 54.4C13.12 54.4 12 53.92 11.04 52.96C10.08 52 9.6 50.88 9.6 49.6V4.8C9.6 3.52 10.08 2.4 11.04 1.44C12 0.48 13.12 0 14.4 0H59.2C60.48 0 61.6 0.48 62.56 1.44C63.52 2.4 64 3.52 64 4.8V49.6C64 50.88 63.52 52 62.56 52.96C61.6 53.92 60.48 54.4 59.2 54.4H14.4ZM14.4 49.6H59.2V4.8H14.4V49.6ZM4.8 64C3.52 64 2.4 63.52 1.44 62.56C0.48 61.6 0 60.48 0 59.2V12C0 11.3067 0.226667 10.7333 0.68 10.28C1.13333 9.82667 1.70667 9.6 2.4 9.6C3.09333 9.6 3.66667 9.82667 4.12 10.28C4.57333 10.7333 4.8 11.3067 4.8 12V59.2H52C52.6933 59.2 53.2667 59.4267 53.72 59.88C54.1733 60.3333 54.4 60.9067 54.4 61.6C54.4 62.2933 54.1733 62.8667 53.72 63.32C53.2667 63.7733 52.6933 64 52 64H4.8Z" fill="black"/>
</svg>
