<svg width="52" height="52" viewBox="0 0 52 52" fill="none" xmlns="http://www.w3.org/2000/svg">
<rect x="2" y="2" width="48" height="48" rx="6" fill="white" stroke="black" stroke-width="4"/>
<path d="M21.7611 37.2444C22.05 37.2444 22.3148 37.1963 22.5556 37.1C22.7963 37.0037 23.037 36.8352 23.2778 36.5944L41.1167 18.7556C41.5019 18.3704 41.7065 17.8648 41.7306 17.2389C41.7546 16.613 41.55 16.0833 41.1167 15.65C40.6833 15.2167 40.1657 15 39.5639 15C38.962 15 38.4444 15.2167 38.0111 15.65L21.7611 31.9L14.6833 24.8222C14.2981 24.437 13.8046 24.2324 13.2028 24.2083C12.6009 24.1843 12.0833 24.3889 11.65 24.8222C11.2167 25.2556 11 25.7731 11 26.375C11 26.9769 11.2167 27.4944 11.65 27.9278L20.2444 36.5944C20.4852 36.8352 20.7259 37.0037 20.9667 37.1C21.2074 37.1963 21.4722 37.2444 21.7611 37.2444Z" fill="black"/>
</svg>
