<svg width="65" height="69" viewBox="0 0 65 69" fill="none" xmlns="http://www.w3.org/2000/svg">
<rect x="40.0234" y="44.6074" width="22" height="22" rx="5.05618" stroke="black" stroke-width="4"/>
<path d="M49.0554 61.387L49.0569 61.3885C49.1923 61.524 49.3492 61.6406 49.5303 61.7131C49.6975 61.78 49.8735 61.8099 50.052 61.8099C50.2306 61.8099 50.4065 61.78 50.5738 61.7131C50.7548 61.6406 50.9117 61.524 51.0471 61.3885L58.5931 53.8426C58.8584 53.5772 58.9846 53.2371 58.9988 52.8667C59.0142 52.4662 58.8773 52.106 58.5931 51.8218C58.3179 51.5466 57.9726 51.4004 57.5827 51.4004C57.1928 51.4004 56.8474 51.5466 56.5723 51.8218L50.052 58.3421L47.4116 55.7017C47.1501 55.4402 46.8176 55.3106 46.4518 55.296C46.055 55.2801 45.7014 55.4217 45.4214 55.7017C45.1462 55.9768 45 56.3222 45 56.7121C45 57.1016 45.146 57.4466 45.4206 57.7217C45.4209 57.7219 45.4211 57.7222 45.4214 57.7225L49.0554 61.387Z" fill="black" stroke="black"/>
<path fill-rule="evenodd" clip-rule="evenodd" d="M10.6967 0.000111418H47.3709L47.5814 5.61049e-05C48.8352 -0.000436945 50.1909 -0.000970049 51.3352 0.152882C52.6758 0.333119 54.3884 0.796654 55.8297 2.23795C57.271 3.67924 57.7345 5.39185 57.9148 6.73244C58.0686 7.87678 58.0681 9.23247 58.0676 10.4862L58.0675 10.6967V45.0793C58.0667 45.0793 58.0659 45.0793 58.0651 45.0793H53.4833V10.6967C53.4833 7.81535 53.4833 6.37465 52.5881 5.47952C51.693 4.58438 50.2523 4.58438 47.3709 4.58438H10.6967C7.81535 4.58438 6.37465 4.58438 5.47952 5.47952C4.58438 6.37465 4.58438 7.81535 4.58438 10.6967V53.4833C4.58438 56.3647 4.58438 57.8054 5.47952 58.7005C6.37465 59.5956 7.81534 59.5956 10.6967 59.5956H39.728V63.4164C39.728 63.683 39.728 63.9372 39.7288 64.1799H10.6967L10.4862 64.1799H10.4861C9.23236 64.1804 7.87673 64.181 6.73243 64.0271C5.39185 63.8469 3.67924 63.3833 2.23795 61.9421C0.796653 60.5008 0.333119 58.7881 0.152882 57.4476C-0.000970049 56.3032 -0.000436945 54.9475 5.61049e-05 53.6938L0.000111418 53.4833V10.6967L5.61049e-05 10.4862C-0.000436945 9.23246 -0.000970049 7.87678 0.152882 6.73244C0.333119 5.39185 0.796653 3.67924 2.23795 2.23795C3.67924 0.796653 5.39185 0.333119 6.73244 0.152882C7.87678 -0.000970049 9.23246 -0.000436945 10.4862 5.61049e-05L10.6967 0.000111418ZM40.7661 45.843C40.717 45.8845 40.6693 45.9283 40.6232 45.9744C39.811 46.7866 39.7357 48.048 39.7288 50.4272H12.9859C11.72 50.4272 10.6938 49.401 10.6938 48.1351C10.6938 46.8692 11.72 45.843 12.9859 45.843H40.7661ZM12.9859 13.754C11.72 13.754 10.6938 14.7802 10.6938 16.0461C10.6938 17.312 11.72 18.3382 12.9859 18.3382H45.0758C46.3417 18.3382 47.3679 17.312 47.3679 16.0461C47.3679 14.7802 46.3417 13.754 45.0758 13.754H12.9859ZM12.9859 24.4491C11.72 24.4491 10.6938 25.4753 10.6938 26.7412C10.6938 28.0071 11.72 29.0333 12.9859 29.0333H45.0758C46.3417 29.0333 47.3679 28.0071 47.3679 26.7412C47.3679 25.4753 46.3417 24.4491 45.0758 24.4491H12.9859ZM10.6938 37.4381C10.6938 36.1722 11.72 35.146 12.9859 35.146H45.0758C46.3417 35.146 47.3679 36.1722 47.3679 37.4381C47.3679 38.7041 46.3417 39.7303 45.0758 39.7303H12.9859C11.72 39.7303 10.6938 38.7041 10.6938 37.4381Z" fill="black"/>
</svg>
