<svg width="82" height="82" viewBox="0 0 82 82" fill="none" xmlns="http://www.w3.org/2000/svg">
<path fill-rule="evenodd" clip-rule="evenodd" d="M57.7944 41.1263C59.0067 42.3386 60.9722 42.3386 62.1845 41.1263C63.3968 39.914 63.3968 37.9485 62.1845 36.7362L43.5587 18.1104C42.3464 16.8981 40.3809 16.8981 39.1686 18.1104L20.5428 36.7362C19.3305 37.9485 19.3305 39.914 20.5428 41.1263C21.7551 42.3386 23.7207 42.3386 24.933 41.1263L38.2684 27.7909L38.2684 61.6996C38.2684 63.4141 39.6582 64.8039 41.3727 64.8039C43.0871 64.8039 44.477 63.4141 44.477 61.6996L44.477 27.8089L57.7944 41.1263Z" fill="#C7C7C7"/>
<circle cx="41" cy="41" r="37.4" stroke="#C7C7C7" stroke-width="6.8"/>
</svg>
