<svg width="82" height="82" viewBox="0 0 82 82" fill="none" xmlns="http://www.w3.org/2000/svg">
<path d="M34.8494 62.576C35.4179 62.576 35.9391 62.4825 36.4128 62.2954C36.8866 62.1082 37.3604 61.7808 37.8342 61.313L64.6968 34.789C65.4549 34.0405 65.8339 33.1049 65.8339 31.9822C65.8339 30.8595 65.4549 29.9239 64.6968 29.1754C63.9388 28.427 62.9913 28.0527 61.8542 28.0527C60.7172 28.0527 59.7697 28.427 59.0116 29.1754L34.9915 52.8927L23.6211 41.6656C22.8631 40.9171 21.9155 40.5429 20.7785 40.5429C19.6414 40.5429 18.6939 40.9171 17.9359 41.6656C17.1778 42.4141 16.7988 43.373 16.7988 44.5425C16.7988 45.712 17.1778 46.671 17.9359 47.4195L31.8647 61.313C32.3384 61.7808 32.8122 62.1082 33.286 62.2954C33.7597 62.4825 34.2809 62.576 34.8494 62.576Z" fill="#42B0D5"/>
<circle cx="41" cy="41" r="37.4" stroke="#42B0D5" stroke-width="6.8"/>
</svg>
