<svg width="57" height="74" viewBox="0 0 57 74" fill="none" xmlns="http://www.w3.org/2000/svg">
<path d="M48.9863 8.60938V8.60938C51.8444 8.60938 54.1613 10.9263 54.1613 13.7843V60.3587C54.1613 63.2167 51.8444 65.5336 48.9863 65.5336V65.5336" stroke="black" stroke-width="5" stroke-linecap="round" stroke-linejoin="round"/>
<mask id="path-2-outside-1_761_6338" maskUnits="userSpaceOnUse" x="0" y="0" width="44" height="74" fill="black">
<rect fill="white" width="44" height="74"/>
<path fill-rule="evenodd" clip-rule="evenodd" d="M5.91873 9.76948C5 10.8246 5 12.3757 5 15.4779V58.5221C5 61.6243 5 63.1754 5.91873 64.2305C6.83747 65.2857 8.37381 65.499 11.4465 65.9258L30.1335 68.5212C34.0913 69.0709 36.0702 69.3458 37.3534 68.2285C38.6366 67.1113 38.6366 65.1133 38.6366 61.1175V12.8825C38.6366 8.88666 38.6366 6.88874 37.3534 5.77148C36.0702 4.65422 34.0913 4.92907 30.1335 5.47877L11.4465 8.07419C8.37381 8.50095 6.83747 8.71433 5.91873 9.76948ZM27.0671 45.9596C29.5611 45.9596 31.514 44.6025 32.7066 43.0124C33.8983 41.4235 34.5171 39.4117 34.5171 37.3597C34.5171 35.3077 33.8983 33.296 32.7066 31.7071C31.514 30.1169 29.5611 28.7598 27.0671 28.7598C24.5732 28.7598 22.6202 30.1169 21.4277 31.7071C20.236 33.296 19.6172 35.3077 19.6172 37.3597C19.6172 39.4117 20.236 41.4235 21.4277 43.0124C22.6202 44.6025 24.5732 45.9596 27.0671 45.9596ZM30.5171 37.3597C30.5171 39.9002 28.9725 41.9596 27.0671 41.9596C25.1618 41.9596 23.6172 39.9002 23.6172 37.3597C23.6172 34.8192 25.1618 32.7598 27.0671 32.7598C28.9725 32.7598 30.5171 34.8192 30.5171 37.3597Z"/>
</mask>
<path d="M5.91873 64.2305L9.68963 60.9472L9.68962 60.9472L5.91873 64.2305ZM11.4465 65.9258L12.1343 60.9733H12.1343L11.4465 65.9258ZM30.1335 68.5212L29.4456 73.4737H29.4456L30.1335 68.5212ZM37.3534 68.2285L40.6367 71.9994L40.6368 71.9994L37.3534 68.2285ZM37.3534 5.77148L40.6368 2.00059V2.00059L37.3534 5.77148ZM30.1335 5.47877L30.8213 10.4312L30.1335 5.47877ZM11.4465 8.07419L12.1343 13.0266H12.1343L11.4465 8.07419ZM21.4277 31.7071L25.4277 34.7071L25.4277 34.7071L21.4277 31.7071ZM21.4277 43.0124L25.4277 40.0124L25.4277 40.0124L21.4277 43.0124ZM10 15.4779C10 14.6848 10.0003 14.0714 10.0129 13.5456C10.0256 13.0184 10.0488 12.6933 10.0753 12.4838C10.1235 12.1028 10.1293 12.5478 9.68962 13.0528L2.14785 6.48613C0.789405 8.04629 0.335874 9.79442 0.154408 11.2283C-0.00935078 12.5223 0 14.0574 0 15.4779H10ZM10 58.5221V15.4779H0V58.5221H10ZM9.68962 60.9472C10.1293 61.4522 10.1235 61.8972 10.0753 61.5162C10.0488 61.3067 10.0256 60.9816 10.0129 60.4544C10.0003 59.9286 10 59.3152 10 58.5221H0C0 59.9426 -0.00935078 61.4777 0.154408 62.7717C0.335873 64.2056 0.789404 65.9537 2.14785 67.5139L9.68962 60.9472ZM12.1343 60.9733C11.3488 60.8642 10.7413 60.7796 10.2222 60.6947C9.70174 60.6097 9.38294 60.542 9.17908 60.4869C8.80834 60.3867 9.24992 60.4422 9.68963 60.9472L2.14784 67.5139C3.50629 69.074 5.17541 69.7637 6.57068 70.1407C7.82982 70.4809 9.35168 70.6829 10.7587 70.8783L12.1343 60.9733ZM30.8213 63.5688L12.1343 60.9733L10.7587 70.8783L29.4456 73.4737L30.8213 63.5688ZM34.0701 64.4576C34.7179 63.8935 35.3103 63.9989 34.7367 64C34.4394 64.0006 33.9967 63.973 33.309 63.8958C32.6252 63.8189 31.83 63.7089 30.8213 63.5688L29.4456 73.4737C31.275 73.7278 33.1717 74.003 34.7562 74C36.4823 73.9966 38.7057 73.6808 40.6367 71.9994L34.0701 64.4576ZM33.6366 61.1175C33.6366 62.1358 33.6362 62.9387 33.6182 63.6265C33.6001 64.3183 33.5665 64.7605 33.525 65.055C33.445 65.623 33.4222 65.0218 34.07 64.4576L40.6368 71.9994C42.5678 70.318 43.1865 68.1592 43.4273 66.4499C43.6483 64.881 43.6366 62.9644 43.6366 61.1175H33.6366ZM33.6366 12.8825V61.1175H43.6366V12.8825H33.6366ZM34.07 9.54237C33.4222 8.97825 33.445 8.37699 33.525 8.94498C33.5665 9.23945 33.6001 9.68168 33.6182 10.3735C33.6362 11.0613 33.6366 11.8642 33.6366 12.8825H43.6366C43.6366 11.0356 43.6483 9.11902 43.4273 7.55007C43.1865 5.84082 42.5678 3.68198 40.6368 2.00059L34.07 9.54237ZM30.8213 10.4312C31.83 10.2911 32.6252 10.1811 33.309 10.1042C33.9967 10.027 34.4394 9.99943 34.7367 10C35.3103 10.0011 34.7179 10.1065 34.0701 9.54237L40.6368 2.00059C38.7057 0.31921 36.4823 0.00337839 34.7561 2.71797e-05C33.1717 -0.00304842 31.2749 0.272241 29.4456 0.526313L30.8213 10.4312ZM12.1343 13.0266L30.8213 10.4312L29.4456 0.526313L10.7587 3.12173L12.1343 13.0266ZM9.68962 13.0528C9.24992 13.5578 8.80834 13.6133 9.17909 13.5131C9.38294 13.458 9.70174 13.3903 10.2222 13.3053C10.7413 13.2204 11.3488 13.1358 12.1343 13.0266L10.7587 3.12173C9.35167 3.31714 7.82981 3.51907 6.57068 3.85928C5.1754 4.23627 3.50629 4.92598 2.14785 6.48613L9.68962 13.0528ZM28.7066 40.0124C28.2132 40.6702 27.6193 40.9596 27.0671 40.9596V50.9596C31.5029 50.9596 34.8148 48.5347 36.7066 46.0124L28.7066 40.0124ZM29.5171 37.3597C29.5171 38.4363 29.1881 39.3704 28.7066 40.0124L36.7066 46.0124C38.6085 43.4766 39.5171 40.3872 39.5171 37.3597H29.5171ZM28.7066 34.7071C29.1881 35.3491 29.5171 36.2831 29.5171 37.3597H39.5171C39.5171 34.3322 38.6085 31.2429 36.7066 28.7071L28.7066 34.7071ZM27.0671 33.7598C27.6193 33.7598 28.2132 34.0492 28.7066 34.7071L36.7066 28.7071C34.8148 26.1847 31.5029 23.7598 27.0671 23.7598V33.7598ZM25.4277 34.7071C25.9211 34.0492 26.5149 33.7598 27.0671 33.7598V23.7598C22.6314 23.7598 19.3194 26.1847 17.4277 28.7071L25.4277 34.7071ZM24.6172 37.3597C24.6172 36.2831 24.9462 35.3491 25.4277 34.7071L17.4277 28.7071C15.5258 31.2428 14.6172 34.3322 14.6172 37.3597H24.6172ZM25.4277 40.0124C24.9462 39.3703 24.6172 38.4363 24.6172 37.3597H14.6172C14.6172 40.3872 15.5258 43.4766 17.4277 46.0124L25.4277 40.0124ZM27.0671 40.9596C26.5149 40.9596 25.9211 40.6702 25.4277 40.0124L17.4277 46.0123C19.3194 48.5347 22.6314 50.9596 27.0671 50.9596V40.9596ZM27.0671 46.9596C29.9465 46.9596 32.172 45.3919 33.5066 43.6124C34.8401 41.8343 35.5171 39.6072 35.5171 37.3597H25.5171C25.5171 37.6527 25.4218 37.7255 25.5066 37.6124C25.5927 37.4977 26.0932 36.9596 27.0671 36.9596V46.9596ZM18.6172 37.3597C18.6172 39.6072 19.2941 41.8343 20.6277 43.6124C21.9623 45.3919 24.1878 46.9596 27.0671 46.9596V36.9596C28.0411 36.9596 28.5416 37.4977 28.6277 37.6124C28.7125 37.7255 28.6172 37.6527 28.6172 37.3597H18.6172ZM27.0671 27.7598C24.1878 27.7598 21.9623 29.3275 20.6277 31.1071C19.2941 32.8851 18.6172 35.1122 18.6172 37.3597H28.6172C28.6172 37.0667 28.7125 36.9939 28.6277 37.1071C28.5416 37.2218 28.0411 37.7598 27.0671 37.7598V27.7598ZM35.5171 37.3597C35.5171 35.1122 34.8401 32.8851 33.5066 31.1071C32.172 29.3275 29.9465 27.7598 27.0671 27.7598V37.7598C26.0932 37.7598 25.5927 37.2218 25.5066 37.1071C25.4218 36.9939 25.5171 37.0667 25.5171 37.3597H35.5171Z" fill="black" mask="url(#path-2-outside-1_761_6338)"/>
</svg>
