<svg width="59" height="65" viewBox="0 0 59 65" fill="none" xmlns="http://www.w3.org/2000/svg">
<path fill-rule="evenodd" clip-rule="evenodd" d="M10.6967 0.000111418H47.3709C47.4407 0.000111418 47.5109 8.37614e-05 47.5814 5.61049e-05C48.8352 -0.000436945 50.1909 -0.000970049 51.3352 0.152882C52.6758 0.333119 54.3884 0.796654 55.8297 2.23795C57.271 3.67924 57.7345 5.39185 57.9148 6.73244C58.0686 7.87678 58.0681 9.23247 58.0676 10.4862C58.0676 10.5567 58.0675 10.6269 58.0675 10.6967V53.4833C58.0675 53.5531 58.0676 53.6233 58.0676 53.6938C58.0681 54.9475 58.0686 56.3032 57.9148 57.4476C57.7345 58.7881 57.271 60.5008 55.8297 61.9421C54.3884 63.3833 52.6758 63.8469 51.3352 64.0271C50.1909 64.181 48.8352 64.1804 47.5814 64.1799C47.5109 64.1799 47.4407 64.1799 47.3709 64.1799H10.6967C10.6269 64.1799 10.5567 64.1799 10.4862 64.1799C9.23246 64.1804 7.87678 64.181 6.73243 64.0271C5.39185 63.8469 3.67924 63.3833 2.23795 61.9421C0.796653 60.5008 0.333119 58.7881 0.152882 57.4476C-0.000970049 56.3032 -0.000436945 54.9475 5.61049e-05 53.6938C8.37614e-05 53.6233 0.000111418 53.5531 0.000111418 53.4833V10.6967C0.000111418 10.6269 8.37614e-05 10.5567 5.61049e-05 10.4862C-0.000436945 9.23246 -0.000970049 7.87678 0.152882 6.73244C0.333119 5.39185 0.796653 3.67924 2.23795 2.23795C3.67924 0.796653 5.39185 0.333119 6.73244 0.152882C7.87678 -0.000970049 9.23246 -0.000436945 10.4862 5.61049e-05C10.5567 8.37614e-05 10.6269 0.000111418 10.6967 0.000111418ZM5.47952 5.47952C4.58438 6.37465 4.58438 7.81535 4.58438 10.6967V53.4833C4.58438 56.3647 4.58438 57.8054 5.47952 58.7005C6.37465 59.5956 7.81534 59.5956 10.6967 59.5956H47.3709C50.2523 59.5956 51.693 59.5956 52.5881 58.7005C53.4833 57.8054 53.4833 56.3647 53.4833 53.4833V10.6967C53.4833 7.81535 53.4833 6.37465 52.5881 5.47952C51.693 4.58438 50.2523 4.58438 47.3709 4.58438H10.6967C7.81535 4.58438 6.37465 4.58438 5.47952 5.47952Z" fill="black"/>
<path d="M12.8333 50.6444C13.5889 50.6444 14.25 50.3611 14.8167 49.7944C15.3833 49.2278 15.6667 48.5667 15.6667 47.8111C15.6667 47.0556 15.3833 46.3944 14.8167 45.8278C14.25 45.2611 13.5889 44.9778 12.8333 44.9778C12.0778 44.9778 11.4167 45.2611 10.85 45.8278C10.2833 46.3944 10 47.0556 10 47.8111C10 48.5667 10.2833 49.2278 10.85 49.7944C11.4167 50.3611 12.0778 50.6444 12.8333 50.6444ZM12.8333 35.1556C13.5889 35.1556 14.25 34.8722 14.8167 34.3056C15.3833 33.7389 15.6667 33.0778 15.6667 32.3222C15.6667 31.5667 15.3833 30.9056 14.8167 30.3389C14.25 29.7722 13.5889 29.4889 12.8333 29.4889C12.0778 29.4889 11.4167 29.7722 10.85 30.3389C10.2833 30.9056 10 31.5667 10 32.3222C10 33.0778 10.2833 33.7389 10.85 34.3056C11.4167 34.8722 12.0778 35.1556 12.8333 35.1556ZM12.8333 19.6667C13.5889 19.6667 14.25 19.3833 14.8167 18.8167C15.3833 18.25 15.6667 17.5889 15.6667 16.8333C15.6667 16.0778 15.3833 15.4167 14.8167 14.85C14.25 14.2833 13.5889 14 12.8333 14C12.0778 14 11.4167 14.2833 10.85 14.85C10.2833 15.4167 10 16.0778 10 16.8333C10 17.5889 10.2833 18.25 10.85 18.8167C11.4167 19.3833 12.0778 19.6667 12.8333 19.6667ZM28.1333 50.6444H45.5111C46.3296 50.6444 47.0065 50.3769 47.5417 49.8417C48.0769 49.3065 48.3444 48.6296 48.3444 47.8111C48.3444 46.9926 48.0769 46.3157 47.5417 45.7806C47.0065 45.2454 46.3296 44.9778 45.5111 44.9778H28.1333C27.3148 44.9778 26.638 45.2454 26.1028 45.7806C25.5676 46.3157 25.3 46.9926 25.3 47.8111C25.3 48.6296 25.5676 49.3065 26.1028 49.8417C26.638 50.3769 27.3148 50.6444 28.1333 50.6444ZM28.1333 35.1556H45.5111C46.3296 35.1556 47.0065 34.888 47.5417 34.3528C48.0769 33.8176 48.3444 33.1407 48.3444 32.3222C48.3444 31.5037 48.0769 30.8268 47.5417 30.2917C47.0065 29.7565 46.3296 29.4889 45.5111 29.4889H28.1333C27.3148 29.4889 26.638 29.7565 26.1028 30.2917C25.5676 30.8268 25.3 31.5037 25.3 32.3222C25.3 33.1407 25.5676 33.8176 26.1028 34.3528C26.638 34.888 27.3148 35.1556 28.1333 35.1556ZM28.1333 19.6667H45.5111C46.3296 19.6667 47.0065 19.3991 47.5417 18.8639C48.0769 18.3287 48.3444 17.6519 48.3444 16.8333C48.3444 16.0148 48.0769 15.338 47.5417 14.8028C47.0065 14.2676 46.3296 14 45.5111 14H28.1333C27.3148 14 26.638 14.2676 26.1028 14.8028C25.5676 15.338 25.3 16.0148 25.3 16.8333C25.3 17.6519 25.5676 18.3287 26.1028 18.8639C26.638 19.3991 27.3148 19.6667 28.1333 19.6667Z" fill="black"/>
</svg>
