<svg width="63" height="64" viewBox="0 0 63 64" fill="none" xmlns="http://www.w3.org/2000/svg">
<path d="M36.56 64H26C25.4133 64 24.8933 63.8133 24.44 63.44C23.9867 63.0667 23.7067 62.5867 23.6 62L22.32 53.92C21.3067 53.5467 20.24 53.04 19.12 52.4C18 51.76 17.0133 51.0933 16.16 50.4L8.72 53.84C8.13333 54.1067 7.54667 54.1467 6.96 53.96C6.37333 53.7733 5.92 53.3867 5.6 52.8L0.32 43.44C8.9407e-08 42.9067 -0.0800001 42.3467 0.08 41.76C0.24 41.1733 0.56 40.6933 1.04 40.32L7.92 35.28C7.81333 34.8 7.74667 34.2533 7.72 33.64C7.69333 33.0267 7.68 32.48 7.68 32C7.68 31.52 7.69333 30.9733 7.72 30.36C7.74667 29.7467 7.81333 29.2 7.92 28.72L1.04 23.68C0.56 23.3067 0.24 22.8267 0.08 22.24C-0.0800001 21.6533 8.9407e-08 21.0933 0.32 20.56L5.6 11.2C5.92 10.6133 6.37333 10.2267 6.96 10.04C7.54667 9.85333 8.13333 9.89333 8.72 10.16L16.16 13.6C17.0133 12.9067 18 12.24 19.12 11.6C20.24 10.96 21.3067 10.48 22.32 10.16L23.6 2C23.7067 1.41333 23.9867 0.933333 24.44 0.56C24.8933 0.186667 25.4133 0 26 0H36.56C37.1467 0 37.6667 0.186667 38.12 0.56C38.5733 0.933333 38.8533 1.41333 38.96 2L40.24 10.08C41.2533 10.4533 42.3333 10.9467 43.48 11.56C44.6267 12.1733 45.6 12.8533 46.4 13.6L53.84 10.16C54.4267 9.89333 55.0133 9.85333 55.6 10.04C56.1867 10.2267 56.64 10.6133 56.96 11.2L62.24 20.48C62.56 21.0133 62.6533 21.5867 62.52 22.2C62.3867 22.8133 62.0533 23.3067 61.52 23.68L54.64 28.56C54.7467 29.0933 54.8133 29.6667 54.84 30.28C54.8667 30.8933 54.88 31.4667 54.88 32C54.88 32.5333 54.8667 33.0933 54.84 33.68C54.8133 34.2667 54.7467 34.8267 54.64 35.36L61.52 40.32C62 40.6933 62.32 41.1733 62.48 41.76C62.64 42.3467 62.56 42.9067 62.24 43.44L56.96 52.8C56.64 53.3867 56.1867 53.7733 55.6 53.96C55.0133 54.1467 54.4267 54.1067 53.84 53.84L46.4 50.4C45.5467 51.0933 44.5733 51.7733 43.48 52.44C42.3867 53.1067 41.3067 53.6 40.24 53.92L38.96 62C38.8533 62.5867 38.5733 63.0667 38.12 63.44C37.6667 63.8133 37.1467 64 36.56 64ZM31.28 42.4C34.16 42.4 36.6133 41.3867 38.64 39.36C40.6667 37.3333 41.68 34.88 41.68 32C41.68 29.12 40.6667 26.6667 38.64 24.64C36.6133 22.6133 34.16 21.6 31.28 21.6C28.4 21.6 25.9467 22.6133 23.92 24.64C21.8933 26.6667 20.88 29.12 20.88 32C20.88 34.88 21.8933 37.3333 23.92 39.36C25.9467 41.3867 28.4 42.4 31.28 42.4ZM31.28 37.6C29.7333 37.6 28.4133 37.0533 27.32 35.96C26.2267 34.8667 25.68 33.5467 25.68 32C25.68 30.4533 26.2267 29.1333 27.32 28.04C28.4133 26.9467 29.7333 26.4 31.28 26.4C32.8267 26.4 34.1467 26.9467 35.24 28.04C36.3333 29.1333 36.88 30.4533 36.88 32C36.88 33.5467 36.3333 34.8667 35.24 35.96C34.1467 37.0533 32.8267 37.6 31.28 37.6ZM27.76 59.2H34.8L35.92 50.24C37.68 49.8133 39.3467 49.1467 40.92 48.24C42.4933 47.3333 43.92 46.24 45.2 44.96L53.68 48.64L56.88 42.88L49.36 37.36C49.5733 36.4533 49.7467 35.56 49.88 34.68C50.0133 33.8 50.08 32.9067 50.08 32C50.08 31.0933 50.0267 30.2 49.92 29.32C49.8133 28.44 49.6267 27.5467 49.36 26.64L56.88 21.12L53.68 15.36L45.2 19.04C43.9733 17.6533 42.5867 16.4933 41.04 15.56C39.4933 14.6267 37.7867 14.0267 35.92 13.76L34.8 4.8H27.76L26.64 13.76C24.8267 14.1333 23.1333 14.7733 21.56 15.68C19.9867 16.5867 18.5867 17.7067 17.36 19.04L8.88 15.36L5.68 21.12L13.2 26.64C12.9867 27.5467 12.8133 28.44 12.68 29.32C12.5467 30.2 12.48 31.0933 12.48 32C12.48 32.9067 12.5467 33.8 12.68 34.68C12.8133 35.56 12.9867 36.4533 13.2 37.36L5.68 42.88L8.88 48.64L17.36 44.96C18.64 46.24 20.0667 47.3333 21.64 48.24C23.2133 49.1467 24.88 49.8133 26.64 50.24L27.76 59.2Z" fill="black"/>
</svg>
