<svg width="82" height="82" viewBox="0 0 82 82" fill="none" xmlns="http://www.w3.org/2000/svg">
<path fill-rule="evenodd" clip-rule="evenodd" d="M57.7963 41.1263C59.0086 42.3386 60.9742 42.3386 62.1865 41.1263C63.3988 39.914 63.3988 37.9485 62.1865 36.7362L43.5607 18.1104C42.3484 16.8981 40.3829 16.8981 39.1706 18.1104L20.5448 36.7362C19.3325 37.9485 19.3325 39.914 20.5448 41.1263C21.7571 42.3386 23.7226 42.3386 24.9349 41.1263L38.2703 27.7909L38.2703 61.6996C38.2703 63.4141 39.6602 64.8039 41.3746 64.8039C43.0891 64.8039 44.4789 63.4141 44.4789 61.6996L44.4789 27.8089L57.7963 41.1263Z" fill="#42B0D5"/>
<circle cx="41" cy="41" r="37.4" stroke="#42B0D5" stroke-width="6.8"/>
</svg>
