<svg width="70" height="58" viewBox="0 0 70 58" fill="none" xmlns="http://www.w3.org/2000/svg">
<path fill-rule="evenodd" clip-rule="evenodd" d="M1 5C1 2.79086 2.79086 1 5 1H26.0294C28.4494 1 30.8047 1.62653 32.8786 2.78977C34.1815 3.52058 35.8185 3.52058 37.1214 2.78977C39.1953 1.62653 41.5506 1 43.9706 1H65C67.2091 1 69 2.79086 69 5V49C69 51.2091 67.2091 53 65 53H45.9706C43.3184 53 40.7749 54.0536 38.8995 55.9289L38.7337 56.0947C38.1541 56.6744 37.3679 57 36.5481 57H33.4519C32.6321 57 31.8459 56.6744 31.2663 56.0947L31.1005 55.9289C29.2251 54.0536 26.6816 53 24.0294 53H5C2.79086 53 1 51.2091 1 49V5ZM26.0294 5L8.09091 5C6.38385 5 5 6.38385 5 8.09091V45.9091C5 47.6162 6.38385 49 8.09091 49H24.0294C27.302 49 30.4564 50.1458 32.9564 52.2153C33.5354 52.6946 34.2484 53 35 53V53C35.7516 53 36.4646 52.6946 37.0436 52.2153C39.5435 50.1458 42.698 49 45.9706 49H61.9091C63.6162 49 65 47.6162 65 45.9091V8.09091C65 6.38385 63.6161 5 61.9091 5H43.9706C41.3184 5 38.7749 6.05357 36.8995 7.92893V7.92893C35.8504 8.97799 34.1496 8.97799 33.1005 7.92893V7.92893C31.2251 6.05357 28.6816 5 26.0294 5Z" fill="black" stroke="black" stroke-width="0.7"/>
<path fill-rule="evenodd" clip-rule="evenodd" d="M35 55C33.8954 55 33 54.1046 33 53V9C33 7.89543 33.8954 7 35 7C36.1046 7 37 7.89543 37 9V53C37 54.1046 36.1046 55 35 55Z" fill="black" stroke="black" stroke-width="0.7"/>
<path fill-rule="evenodd" clip-rule="evenodd" d="M25 15C25 16.1046 24.1046 17 23 17H15C13.8954 17 13 16.1046 13 15C13 13.8954 13.8954 13 15 13H23C24.1046 13 25 13.8954 25 15Z" fill="black" stroke="black" stroke-width="0.7"/>
<path fill-rule="evenodd" clip-rule="evenodd" d="M25 27C25 28.1046 24.1046 29 23 29H15C13.8954 29 13 28.1046 13 27C13 25.8954 13.8954 25 15 25H23C24.1046 25 25 25.8954 25 27Z" fill="black" stroke="black" stroke-width="0.7"/>
<path fill-rule="evenodd" clip-rule="evenodd" d="M25 39C25 40.1046 24.1046 41 23 41H15C13.8954 41 13 40.1046 13 39C13 37.8954 13.8954 37 15 37H23C24.1046 37 25 37.8954 25 39Z" fill="black" stroke="black" stroke-width="0.7"/>
<path fill-rule="evenodd" clip-rule="evenodd" d="M57 15C57 16.1046 56.1046 17 55 17H47C45.8954 17 45 16.1046 45 15C45 13.8954 45.8954 13 47 13H55C56.1046 13 57 13.8954 57 15Z" fill="black" stroke="black" stroke-width="0.7"/>
<path fill-rule="evenodd" clip-rule="evenodd" d="M57 27C57 28.1046 56.1046 29 55 29H47C45.8954 29 45 28.1046 45 27C45 25.8954 45.8954 25 47 25H55C56.1046 25 57 25.8954 57 27Z" fill="black" stroke="black" stroke-width="0.7"/>
<path fill-rule="evenodd" clip-rule="evenodd" d="M57 39C57 40.1046 56.1046 41 55 41H47C45.8954 41 45 40.1046 45 39C45 37.8954 45.8954 37 47 37H55C56.1046 37 57 37.8954 57 39Z" fill="black" stroke="black" stroke-width="0.7"/>
</svg>
