<svg xmlns="http://www.w3.org/2000/svg" width="20" height="20" viewBox="0 0 20 20"><path d="M2 4v12h6a2 2 0 0 1 1.5.677V5a1.344 1.344 0 0 0-.135-.526.818.818 0 0 0-.275-.324C8.97 4.07 8.788 4 8.5 4H2zm8.5 12.677A2 2 0 0 1 12 16h6V4h-6.5c-.287 0-.47.07-.59.15a.817.817 0 0 0-.275.324 1.344 1.344 0 0 0-.135.53v11.673zM1 4c0-.55.445-1 .999-1H8.5c.462 0 .843.117 1.145.318.14.094.257.202.355.315.098-.113.215-.22.355-.315.302-.2.682-.318 1.145-.318h6.501c.554 0 .999.45.999 1v12a1 1 0 0 1-1 1h-6a1 1 0 0 0-.8.4l-.45.6h-1.5l-.45-.6A1 1 0 0 0 8 17H2a1 1 0 0 1-1-1V4zm6.5 4H4V7h3.5v1zM16 8h-3.5V7H16v1zm-8.5 2.5H4v-1h3.5v1zm8.5 0h-3.5v-1H16v1zM7.5 13H4v-1h3.5v1zm8.5 0h-3.5v-1H16v1z"/></svg>