<svg width="72" height="54" viewBox="0 0 72 54" fill="none" xmlns="http://www.w3.org/2000/svg">
<path d="M4.49532 53.9438C3.29657 53.9438 2.24766 53.4943 1.3486 52.5952C0.449532 51.6961 0 50.6472 0 49.4485V4.49532C0 3.29657 0.449532 2.24766 1.3486 1.3486C2.24766 0.449532 3.29657 0 4.49532 0H67.5047C68.7034 0 69.7523 0.449532 70.6514 1.3486C71.5505 2.24766 72 3.29657 72 4.49532V49.4485C72 50.6472 71.5505 51.6961 70.6514 52.5952C69.7523 53.4943 68.7034 53.9438 67.5047 53.9438H4.49532ZM44.204 49.4485H67.5047V4.49532H4.49532V49.4485H5.24454C7.44225 45.7523 10.2393 42.9553 13.6358 41.0572C17.0323 39.1592 20.7284 38.2102 24.7242 38.2102C28.7201 38.2102 32.4037 39.1592 35.7752 41.0572C39.1467 42.9553 41.9563 45.7523 44.204 49.4485ZM24.7242 32.2164C27.2216 32.2164 29.3195 31.3673 31.0177 29.6691C32.7159 27.9709 33.565 25.873 33.565 23.3757C33.565 20.8783 32.7159 18.7804 31.0177 17.0822C29.3195 15.384 27.2216 14.5349 24.7242 14.5349C22.2268 14.5349 20.129 15.384 18.4308 17.0822C16.7326 18.7804 15.8835 20.8783 15.8835 23.3757C15.8835 25.873 16.7326 27.9709 18.4308 29.6691C20.129 31.3673 22.2268 32.2164 24.7242 32.2164ZM10.9386 49.4485H38.5099C36.6119 47.1009 34.5016 45.3902 32.179 44.3163C29.8564 43.2425 27.3715 42.7055 24.7242 42.7055C22.077 42.7055 19.5671 43.23 17.1946 44.2789C14.8221 45.3278 12.7367 47.051 10.9386 49.4485ZM24.7242 27.7211C23.5255 27.7211 22.5016 27.2966 21.6524 26.4474C20.8033 25.5983 20.3788 24.5744 20.3788 23.3757C20.3788 22.1769 20.8033 21.153 21.6524 20.3038C22.5016 19.4547 23.5255 19.0302 24.7242 19.0302C25.923 19.0302 26.9469 19.4547 27.796 20.3038C28.6452 21.153 29.0697 22.1769 29.0697 23.3757C29.0697 24.5744 28.6452 25.5983 27.796 26.4474C26.9469 27.2966 25.923 27.7211 24.7242 27.7211Z" fill="black"/>
<rect x="40" y="12" width="23" height="4" rx="1.63636" fill="black"/>
<rect x="40" y="22" width="23" height="4" rx="1.63636" fill="black"/>
<rect x="40" y="32" width="23" height="4" rx="1.63636" fill="black"/>
</svg>
